{
.appVersion = "1141";
customParameters = (
{
name = Axes;
value = "Nouvelle valeur";
}
);
date = "2017-10-30 19:21:32 +0000";
designer = "Mateo Broillet";
designerURL = "Mateo Broillet";
familyName = "Sabir Mono";
featurePrefixes = (
{
automatic = 1;
code = "languagesystem DFLT dflt;\012languagesystem hebr dflt;\012";
name = Languagesystems;
}
);
features = (
{
automatic = 1;
code = "feature case;\012feature salt;\012feature ss01;\012feature ss02;\012feature ss03;\012";
name = aalt;
},
{
automatic = 1;
code = "sub tonos by tonos.case;\012";
name = case;
},
{
automatic = 1;
code = "sub A by A.ss01;\012sub B by B.ss01;\012sub C by C.ss01;\012sub D by D.ss01;\012sub E by E.ss01;\012sub F by F.ss01;\012sub G by G.ss01;\012sub H by H.ss01;\012sub I by I.ss01;\012sub J by J.ss01;\012sub K by K.ss01;\012sub L by L.ss01;\012sub M by M.ss01;\012sub N by N.ss01;\012sub O by O.ss01;\012sub P by P.ss01;\012sub Q by Q.ss01;\012sub R by R.ss01;\012sub S by S.ss01;\012sub T by T.ss01;\012sub U by U.ss01;\012sub V by V.ss01;\012sub W by W.ss01;\012sub X by X.ss01;\012sub Y by Y.ss01;\012sub Z by Z.ss01;\012sub a by a.ss01;\012sub b by b.ss01;\012sub c by c.ss01;\012sub d by d.ss01;\012sub e by e.ss01;\012sub f by f.ss01;\012sub g by g.ss01;\012sub h by h.ss01;\012sub i by i.ss01;\012sub j by j.ss01;\012sub k by k.ss01;\012sub l by l.ss01;\012sub m by m.ss01;\012sub n by n.ss01;\012sub o by o.ss01;\012sub p by p.ss01;\012sub q by q.ss01;\012sub r by r.ss01;\012sub s by s.ss01;\012sub t by t.ss01;\012sub u by u.ss01;\012sub v by v.ss01;\012sub w by w.ss01;\012sub y by y.ss01;\012sub z by z.ss01;\012";
name = salt;
},
{
automatic = 1;

glyphs = (
{
glyphname = A;
lastChange = "2018-05-03 18:16:23 +0000";
layers = (
{
layerId = "85099F7B-7F46-42FC-B840-CDE30C82BCDD";
paths = (
{
closed = 1;
nodes = (
"358 249 LINE",
"145 249 LINE",
"145 195 LINE",
"358 195 LINE"
);
},
{
closed = 1;
nodes = (
"93 0 LINE",
"275 545 LINE",
"219 545 LINE",
"37 0 LINE"
);
},
{
closed = 1;
nodes = (
"275 545 LINE",
"219 545 LINE",
"401 0 LINE",
"457 0 LINE"
);
}
);
width = 500;
}
);
unicode = 0041;
},
{
glyphname = AE;
lastChange = "2018-05-03 13:05:47 +0000";
layers = (
{
layerId = "85099F7B-7F46-42FC-B840-CDE30C82BCDD";
paths = (
{
closed = 1;
nodes = (
"459 54 LINE",
"263 54 LINE",
"263 0 LINE",
"459 0 LINE"
);
},
{
closed = 1;
nodes = (
"459 545 LINE",
"263 545 LINE",
"263 491 LINE",
"459 491 LINE"
);
},
{
closed = 1;
nodes = (
"319 20 LINE",
"319 534 LINE",
"263 534 LINE",
"263 20 LINE"
);
},
{
closed = 1;
nodes = (
"438 303 LINE",
"275 303 LINE",
"275 249 LINE",
"438 249 LINE"
);
},
{
closed = 1;
nodes = (
"72 0 LINE",
"295 545 LINE",
"239 545 LINE",
"16 0 LINE"
);
},
{
closed = 1;
nodes = (
"290 249 LINE",
"129 249 LINE",
"129 195 LINE",
"290 195 LINE"
);
}
);
width = 500;
}
);
unicode = 00C6;
},
{
glyphname = B;
lastChange = "2018-05-09 12:15:28 +0000";
layers = (
{
layerId = "85099F7B-7F46-42FC-B840-CDE30C82BCDD";
paths = (
{
closed = 1;
nodes = (
"116 20 LINE",
"116 545 LINE",
"60 545 LINE",
"60 20 LINE"
);
},
{
closed = 1;
nodes = (
"391 0 OFFCURVE",
"444 70 OFFCURVE",
"444 154 CURVE",
"444 243 OFFCURVE",
"394 308 OFFCURVE",
"289 308 CURVE",
"60 308 LINE",
"60 262 LINE",
"291 262 LINE",
"345 262 OFFCURVE",
"390 212 OFFCURVE",
"390 157 CURVE",
"390 101 OFFCURVE",
"344 56 OFFCURVE",
"290 56 CURVE",
"60 56 LINE",
"60 0 LINE",
"289 0 LINE"
);
},
{
closed = 1;
nodes = (
"365 262 OFFCURVE",
"413 325 OFFCURVE",
"413 399 CURVE",
"413 477 OFFCURVE",
"367 545 OFFCURVE",
"271 545 CURVE",
"60 545 LINE",
"60 489 LINE",
"273 489 LINE",
"322 489 OFFCURVE",
"359 448 OFFCURVE",
"359 401 CURVE",
"359 354 OFFCURVE",
"321 308 OFFCURVE",
"272 308 CURVE",
"60 308 LINE",
"60 262 LINE",
"271 262 LINE"
);
},
{
closed = 1;
nodes = (
"122 262 LINE",
"116 262 LINE",
"116 256 LINE"
);
},
{
closed = 1;
nodes = (
"116 308 LINE",
"122 308 LINE",
"116 314 LINE"
);
},
{
closed = 1;
nodes = (
"122 489 LINE",
"116 489 LINE",
"116 483 LINE"
);
},
{
closed = 1;
nodes = (
"116 56 LINE",
"122 56 LINE",
"116 62 LINE"
);
}
);
width = 500;
}
);
unicode = 0042;
},
{
glyphname = C;
lastChange = "2018-05-03 18:16:17 +0000";
layers = (
{
layerId = "85099F7B-7F46-42FC-B840-CDE30C82BCDD";
paths = (
{
closed = 1;
nodes = (
"215 51 OFFCURVE",
"112 118 OFFCURVE",
"112 268 CURVE SMOOTH",
"112 418 OFFCURVE",
"215 495 OFFCURVE",
"295 495 CURVE SMOOTH",
"360 495 OFFCURVE",
"401 466 OFFCURVE",
"430 439 CURVE",
"430 504 LINE",
"407 525 OFFCURVE",
"362 549 OFFCURVE",
"295 549 CURVE SMOOTH",
"170 549 OFFCURVE",
"55 423 OFFCURVE",
"55 268 CURVE SMOOTH",
"55 113 OFFCURVE",
"170 -3 OFFCURVE",
"295 -3 CURVE SMOOTH",
"362 -3 OFFCURVE",
"407 21 OFFCURVE",
"430 42 CURVE",
"430 107 LINE",
"401 80 OFFCURVE",
"358 51 OFFCURVE",
"295 51 CURVE SMOOTH"
);
}
);
width = 500;
}
);
unicode = 0043;
},
{
glyphname = D;
lastChange = "2018-05-09 10:52:51 +0000";
layers = (
{
layerId = "85099F7B-7F46-42FC-B840-CDE30C82BCDD";
paths = (
{
closed = 1;
nodes = (
"244 0 LINE SMOOTH",
"364 0 OFFCURVE",
"448 116 OFFCURVE",
"447 271 CURVE SMOOTH",
"446 426 OFFCURVE",
"364 545 OFFCURVE",
"244 545 CURVE SMOOTH",
"58 545 LINE",
"58 0 LINE"
);
},
{
closed = 1;
nodes = (
"114 491 LINE",
"244 491 LINE SMOOTH",
"319 491 OFFCURVE",
"390 421 OFFCURVE",
"390 271 CURVE SMOOTH",
"390 121 OFFCURVE",
"319 54 OFFCURVE",
"244 54 CURVE SMOOTH",
"114 54 LINE"
);
},
{
closed = 1;
nodes = (
"114 491 LINE",
"114 485 LINE",
"120 491 LINE"
);
},
{
closed = 1;
nodes = (
"114 60 LINE",
"114 54 LINE",
"120 54 LINE"
);
}
);
width = 500;
}
);
unicode = 0044;
},
{
glyphname = Eth;
lastChange = "2018-05-03 12:14:27 +0000";
layers = (
{
components = (
{
name = D;
}
);
layerId = "85099F7B-7F46-42FC-B840-CDE30C82BCDD";
paths = (
{
closed = 1;
nodes = (
"13 251 LINE",
"209 251 LINE",
"209 307 LINE",
"13 307 LINE"
);
}
);
width = 500;
}
);
unicode = 00D0;
},
{
glyphname = E;
lastChange = "2018-05-09 12:11:10 +0000";
layers = (
{
layerId = "85099F7B-7F46-42FC-B840-CDE30C82BCDD";
paths = (
{
closed = 1;
nodes = (
"424 54 LINE",
"78 54 LINE",
"78 0 LINE",
"424 0 LINE"
);
},
{
closed = 1;
nodes = (
"134 20 LINE",
"134 534 LINE",
"78 534 LINE",
"78 20 LINE"
);
},
{
closed = 1;
nodes = (
"407 303 LINE",
"80 303 LINE",
"80 249 LINE",
"407 249 LINE"
);
},
{
closed = 1;
nodes = (
"424 545 LINE",
"78 545 LINE",
"78 491 LINE",
"424 491 LINE"
);
},
{
closed = 1;
nodes = (
"134 491 LINE",
"134 485 LINE",
"140 491 LINE"
);
},
{
closed = 1;
nodes = (
"134 60 LINE",
"134 54 LINE",
"140 54 LINE"
);
},
{
closed = 1;
nodes = (
"134 309 LINE",
"134 303 LINE",
"140 303 LINE"
);
},
{
closed = 1;
nodes = (
"134 249 LINE",
"134 243 LINE",
"140 249 LINE"
);
},
{
closed = 1;
nodes = (
"134 491 LINE",
"134 485 LINE",
"140 491 LINE"
);
},
{
closed = 1;
nodes = (
"134 60 LINE",
"134 54 LINE",
"140 54 LINE"
);
},
{
closed = 1;
nodes = (
"134 309 LINE",
"134 303 LINE",
"140 303 LINE"
);
},
{
closed = 1;
nodes = (
"134 249 LINE",
"134 243 LINE",
"140 249 LINE"
);
}
);
width = 500;
}
);
unicode = 0045;
},
{
glyphname = F;
lastChange = "2018-05-09 10:55:44 +0000";
layers = (
{
layerId = "85099F7B-7F46-42FC-B840-CDE30C82BCDD";
paths = (
{
closed = 1;
nodes = (
"134 0 LINE",
"134 534 LINE",
"78 534 LINE",
"78 0 LINE"
);
},
{
closed = 1;
nodes = (
"407 303 LINE",
"80 303 LINE",
"80 249 LINE",
"407 249 LINE"
);
},
{
closed = 1;
nodes = (
"424 545 LINE",
"78 545 LINE",
"78 491 LINE",
"424 491 LINE"
);
},
{
closed = 1;
nodes = (
"134 491 LINE",
"134 485 LINE",
"140 491 LINE"
);
},
{
closed = 1;
nodes = (
"134 309 LINE",
"134 303 LINE",
"140 303 LINE"
);
},
{
closed = 1;
nodes = (
"134 249 LINE",
"134 243 LINE",
"140 249 LINE"
);
}
);
width = 500;
}
);
unicode = 0046;
},
{
glyphname = G;
lastChange = "2017-12-07 11:36:20 +0000";
layers = (
{
layerId = "85099F7B-7F46-42FC-B840-CDE30C82BCDD";
paths = (
{
closed = 1;
nodes = (
"364 79 LINE",
"420 79 LINE",
"420 277 LINE",
"364 277 LINE"
);
},
{
closed = 1;
nodes = (
"238 228 LINE",
"420 228 LINE",
"420 282 LINE",
"238 282 LINE"
);
},
{
closed = 1;
nodes = (
"39 118 OFFCURVE",
"122 -5 OFFCURVE",
"259 -5 CURVE SMOOTH",
"324 -5 OFFCURVE",
"385 25 OFFCURVE",
"420 60 CURVE",
"420 142 LINE",
"385 72 OFFCURVE",
"313 49 OFFCURVE",
"259 49 CURVE SMOOTH",
"167 49 OFFCURVE",
"96 123 OFFCURVE",
"96 273 CURVE SMOOTH",
"96 423 OFFCURVE",
"167 497 OFFCURVE",
"259 497 CURVE SMOOTH",
"313 497 OFFCURVE",
"385 474 OFFCURVE",
"420 404 CURVE",
"420 486 LINE",
"385 521 OFFCURVE",
"324 551 OFFCURVE",
"259 551 CURVE SMOOTH",
"122 551 OFFCURVE",
"39 428 OFFCURVE",
"39 273 CURVE SMOOTH"
);
}
);
width = 500;
}
);
unicode = 0047;
},
{
glyphname = H;
lastChange = "2018-05-09 10:56:28 +0000";
layers = (
{
layerId = "85099F7B-7F46-42FC-B840-CDE30C82BCDD";
paths = (
{
closed = 1;
nodes = (
"437 315 LINE",
"312 315 OFFCURVE",
"188 315 OFFCURVE",
"63 315 CURVE",
"63 261 LINE",
"437 261 LINE"
);
},
{
closed = 1;
nodes = (
"119 0 LINE",
"119 545 LINE",
"63 545 LINE",
"63 0 LINE"
);
},
{
closed = 1;
nodes = (
"437 0 LINE",
"437 545 LINE",
"381 545 LINE",
"381 0 LINE"
);
},
{
closed = 1;
nodes = (
"119 321 LINE",
"119 315 LINE",
"125 315 LINE"
);
},
{
closed = 1;
nodes = (
"119 261 LINE",
"119 255 LINE",
"125 261 LINE"
);
},
{
closed = 1;
nodes = (
"381 315 LINE",
"381 321 LINE",
"375 315 LINE"
);
},
{
closed = 1;
nodes = (
"381 255 LINE",
"381 261 LINE",
"375 261 LINE"
);
}
);
width = 500;
}
);
unicode = 0048;
},
{
glyphname = I;
lastChange = "2018-05-09 12:10:14 +0000";
layers = (
{
layerId = "85099F7B-7F46-42FC-B840-CDE30C82BCDD";
paths = (
{
closed = 1;
nodes = (
"278 0 LINE",
"278 545 LINE",
"222 545 LINE",
"222 0 LINE SMOOTH"
);
},
{
closed = 1;
nodes = (
"430 54 LINE",
"70 54 LINE",
"70 0 LINE",
"430 0 LINE"
);
},
{
closed = 1;
nodes = (
"430 545 LINE",
"70 545 LINE",
"70 491 LINE",
"430 491 LINE"
);
},
{
closed = 1;
nodes = (
"278 60 LINE",
"278 54 LINE",
"284 54 LINE"
);
},
{
closed = 1;
nodes = (
"222 54 LINE",
"222 60 LINE",
"216 54 LINE"
);
},
{
closed = 1;
nodes = (
"278 491 LINE",
"278 485 LINE",
"284 491 LINE"
);
},
{
closed = 1;
nodes = (
"222 485 LINE",
"222 491 LINE",
"216 491 LINE"
);
}
);
width = 500;
}
);
unicode = 0049;
},
{
glyphname = J;
lastChange = "2018-05-03 17:48:57 +0000";
layers = (
{
layerId = "85099F7B-7F46-42FC-B840-CDE30C82BCDD";
paths = (
{
closed = 1;
nodes = (
"134 24 OFFCURVE",
"179 0 OFFCURVE",
"247 0 CURVE",
"345 0 OFFCURVE",
"415 50 OFFCURVE",
"415 155 CURVE",
"415 545 LINE",
"359 545 LINE",
"359 153 LINE",
"359 99 OFFCURVE",
"310 54 OFFCURVE",
"246 54 CURVE",
"183 54 OFFCURVE",
"140 83 OFFCURVE",
"111 110 CURVE",
"111 45 LINE"
);
}
);
width = 500;
}
);
unicode = 004A;
},
{
glyphname = K;
lastChange = "2018-05-01 16:50:22 +0000";
layers = (
{
layerId = "85099F7B-7F46-42FC-B840-CDE30C82BCDD";
paths = (
{
closed = 1;
nodes = (
"86 0 LINE",
"142 0 LINE",
"142 545 LINE",
"86 545 LINE"
);
},
{
closed = 1;
nodes = (
"87 306 LINE",
"87 239 LINE",
"177 239 LINE",
"177 306 LINE"
);
},
{
closed = 1;
nodes = (
"427 0 LINE",
"157 306 LINE",
"157 239 LINE",
"360 0 LINE"
);
},
{
closed = 1;
nodes = (
"157 306 LINE",
"157 239 LINE",
"439 545 LINE",
"372 545 LINE"
);
}
);
width = 500;
}
);
unicode = 004B;
},
{
glyphname = L;
lastChange = "2018-05-09 12:10:37 +0000";
layers = (
{
layerId = "85099F7B-7F46-42FC-B840-CDE30C82BCDD";
paths = (
{
closed = 1;
nodes = (
"436 54 LINE",
"64 54 LINE",
"64 0 LINE",
"436 0 LINE"
);
},
{
closed = 1;
nodes = (
"120 0 LINE",
"120 545 LINE",
"64 545 LINE",
"64 0 LINE"
);
},
{
closed = 1;
nodes = (
"120 60 LINE",
"120 54 LINE",
"126 54 LINE"
);
}
);
width = 500;
}
);
unicode = 004C;
},
{
glyphname = Lslash;
lastChange = "2018-05-03 12:50:45 +0000";
layers = (
{
components = (
{
name = L;
}
);
layerId = "85099F7B-7F46-42FC-B840-CDE30C82BCDD";
paths = (
{
closed = 1;
nodes = (
"25 253 LINE",
"267 328 LINE",
"267 384 LINE",
"25 309 LINE"
);
}
);
width = 500;
}
);
unicode = 0141;
},
{
glyphname = M;
lastChange = "2018-05-01 18:01:41 +0000";
layers = (
{
layerId = "85099F7B-7F46-42FC-B840-CDE30C82BCDD";
paths = (
{
closed = 1;
nodes = (
"276 65 LINE",
"112 545 LINE",
"63 545 LINE",
"224 65 LINE"
);
},
{
closed = 1;
nodes = (
"444 0 LINE",
"444 545 LINE",
"388 545 LINE",
"388 0 LINE"
);
},
{
closed = 1;
nodes = (
"112 0 LINE",
"112 545 LINE",
"56 545 LINE",
"56 0 LINE"
);
},
{
closed = 1;
nodes = (
"437 545 LINE",
"388 545 LINE",
"224 65 LINE",
"276 65 LINE"
);
}
);
width = 500;
}
);
unicode = 004D;
},
{
glyphname = N;
lastChange = "2017-12-07 11:36:20 +0000";
layers = (
{
layerId = "85099F7B-7F46-42FC-B840-CDE30C82BCDD";
paths = (
{
closed = 1;
nodes = (
"440 0 LINE",
"440 545 LINE",
"384 545 LINE",
"384 0 LINE"
);
},
{
closed = 1;
nodes = (
"440 0 LINE",
"114 545 LINE",
"58 545 LINE",
"384 0 LINE"
);
},
{
closed = 1;
nodes = (
"114 0 LINE",
"114 545 LINE",
"58 545 LINE",
"58 0 LINE"
);
}
);
width = 500;
}
);
unicode = 004E;
},
{
glyphname = Eng;
lastChange = "2018-05-04 18:32:01 +0000";
layers = (
{
components = (
{
name = N;
}
);
layerId = "85099F7B-7F46-42FC-B840-CDE30C82BCDD";
paths = (
{
closed = 1;
nodes = (
"247 -73 LINE",
"266 -85 OFFCURVE",
"289 -93 OFFCURVE",
"319 -93 CURVE SMOOTH",
"391 -93 OFFCURVE",
"440 -58 OFFCURVE",
"440 0 CURVE",
"384 0 LINE",
"384 -27 OFFCURVE",
"374 -39 OFFCURVE",
"319 -39 CURVE SMOOTH",
"287 -39 OFFCURVE",
"265 -30 OFFCURVE",
"247 -18 CURVE"
);
}
);
width = 500;
}
);
unicode = 014A;
},
{
glyphname = O;
lastChange = "2018-05-03 12:06:07 +0000";
layers = (
{
layerId = "85099F7B-7F46-42FC-B840-CDE30C82BCDD";
paths = (
{
closed = 1;
nodes = (
"457 430 OFFCURVE",
"375 549 OFFCURVE",
"250 549 CURVE SMOOTH",
"125 549 OFFCURVE",
"42 430 OFFCURVE",
"42 275 CURVE SMOOTH",
"42 120 OFFCURVE",
"125 -3 OFFCURVE",
"250 -3 CURVE SMOOTH",
"375 -3 OFFCURVE",
"459 120 OFFCURVE",
"458 275 CURVE SMOOTH"
);
},
{
closed = 1;
nodes = (
"401 125 OFFCURVE",
"330 51 OFFCURVE",
"250 51 CURVE SMOOTH",
"170 51 OFFCURVE",
"99 125 OFFCURVE",
"99 275 CURVE SMOOTH",
"99 425 OFFCURVE",
"170 495 OFFCURVE",
"250 495 CURVE SMOOTH",
"330 495 OFFCURVE",
"401 425 OFFCURVE",
"401 275 CURVE SMOOTH"
);
}
);
width = 500;
}
);
unicode = 004F;
},
{
glyphname = Oslash;
lastChange = "2018-05-04 18:19:47 +0000";
layers = (
{
components = (
{
name = O;
}
);
layerId = "85099F7B-7F46-42FC-B840-CDE30C82BCDD";
paths = (
{
closed = 1;
nodes = (
"393 545 LINE",
"58 0 LINE",
"117 0 LINE",
"452 545 LINE"
);
}
);
width = 500;
}
);
unicode = 00D8;
},
{
glyphname = OE;
lastChange = "2018-05-09 12:11:56 +0000";
layers = (
{
layerId = "85099F7B-7F46-42FC-B840-CDE30C82BCDD";
paths = (
{
closed = 1;
nodes = (
"18 119 OFFCURVE",
"101 0 OFFCURVE",
"226 0 CURVE",
"259 0 LINE",
"482 0 LINE",
"482 53 LINE",
"260 53 LINE",
"260 248 LINE",
"453 248 LINE",
"453 302 LINE",
"260 302 LINE",
"260 490 LINE",
"480 490 LINE",
"480 545 LINE",
"265 545 LINE",
"226 545 LINE SMOOTH",
"101 545 OFFCURVE",
"18 429 OFFCURVE",
"18 274 CURVE SMOOTH"
);
},
{
closed = 1;
nodes = (
"75 410 OFFCURVE",
"133 480 OFFCURVE",
"204 492 CURVE",
"204 52 LINE",
"133 64 OFFCURVE",
"75 138 OFFCURVE",
"75 274 CURVE SMOOTH"
);
},
{
closed = 1;
nodes = (
"260 490 LINE",
"260 484 LINE",
"266 490 LINE"
);
},
{
closed = 1;
nodes = (
"260 59 LINE",
"260 53 LINE",
"266 53 LINE"
);
},
{
closed = 1;
nodes = (
"260 308 LINE",
"260 302 LINE",
"266 302 LINE"
);
},
{
closed = 1;
nodes = (
"260 248 LINE",
"260 242 LINE",
"266 248 LINE"
);
}
);
width = 500;
}
);
unicode = 0152;
},
{
glyphname = P;
lastChange = "2018-05-09 12:12:11 +0000";
layers = (
{
layerId = "85099F7B-7F46-42FC-B840-CDE30C82BCDD";
paths = (
{
closed = 1;
nodes = (
"76 0 LINE",
"132 0 LINE",
"132 525 LINE",
"76 525 LINE"
);
},
{
closed = 1;
nodes = (
"76 545 LINE",
"76 489 LINE",
"306 489 LINE",
"360 489 OFFCURVE",
"406 444 OFFCURVE",
"406 388 CURVE",
"406 333 OFFCURVE",
"361 288 OFFCURVE",
"307 288 CURVE",
"76 288 LINE",
"76 232 LINE",
"305 232 LINE",
"410 232 OFFCURVE",
"460 302 OFFCURVE",
"460 391 CURVE",
"460 475 OFFCURVE",
"407 545 OFFCURVE",
"305 545 CURVE"
);
},
{
closed = 1;
nodes = (
"138 232 LINE",
"132 232 LINE",
"132 226 LINE"
);
},
{
closed = 1;
nodes = (
"132 288 LINE",
"138 288 LINE",
"132 294 LINE"
);
},
{
closed = 1;
nodes = (
"138 489 LINE",
"132 489 LINE",
"132 483 LINE"
);
}
);
width = 500;
}
);
unicode = 0050;
},
{
glyphname = Thorn;
lastChange = "2018-05-09 12:13:09 +0000";
layers = (
{
layerId = "85099F7B-7F46-42FC-B840-CDE30C82BCDD";
paths = (
{
closed = 1;
nodes = (
"76 0 LINE",
"132 0 LINE",
"132 525 LINE",
"76 525 LINE"
);
},
{
closed = 1;
nodes = (
"76 440 LINE",
"76 384 LINE",
"306 384 LINE",
"360 384 OFFCURVE",
"406 339 OFFCURVE",
"406 283 CURVE",
"406 228 OFFCURVE",
"361 183 OFFCURVE",
"307 183 CURVE",
"76 183 LINE",
"76 127 LINE",
"305 127 LINE",
"410 127 OFFCURVE",
"460 197 OFFCURVE",
"460 286 CURVE",
"460 370 OFFCURVE",
"407 440 OFFCURVE",
"305 440 CURVE"
);
},
{
closed = 1;
nodes = (
"138 127 LINE",
"132 127 LINE",
"132 121 LINE"
);
},
{
closed = 1;
nodes = (
"132 183 LINE",
"138 183 LINE",
"132 189 LINE"
);
},
{
closed = 1;
nodes = (
"138 384 LINE",
"132 384 LINE",
"132 378 LINE"
);
},
{
closed = 1;
nodes = (
"132 440 LINE",
"138 440 LINE",
"132 446 LINE"
);
}
);
width = 500;
}
);
unicode = 00DE;
},
{
glyphname = Q;
lastChange = "2018-05-03 12:05:05 +0000";
layers = (
{
layerId = "85099F7B-7F46-42FC-B840-CDE30C82BCDD";
paths = (
{
closed = 1;
nodes = (
"455 430 OFFCURVE",
"373 549 OFFCURVE",
"253 549 CURVE SMOOTH",
"133 549 OFFCURVE",
"50 430 OFFCURVE",
"50 275 CURVE SMOOTH",
"50 120 OFFCURVE",
"133 -3 OFFCURVE",
"253 -3 CURVE SMOOTH",
"373 -3 OFFCURVE",
"457 120 OFFCURVE",
"456 275 CURVE SMOOTH"
);
},
{
closed = 1;
nodes = (
"399 125 OFFCURVE",
"328 51 OFFCURVE",
"253 51 CURVE SMOOTH",
"178 51 OFFCURVE",
"107 125 OFFCURVE",
"107 275 CURVE SMOOTH",
"107 425 OFFCURVE",
"178 495 OFFCURVE",
"253 495 CURVE SMOOTH",
"328 495 OFFCURVE",
"399 425 OFFCURVE",
"399 275 CURVE SMOOTH"
);
},
{
closed = 1;
nodes = (
"351 -65 LINE",
"327 -9 OFFCURVE",
"304 47 OFFCURVE",
"280 103 CURVE",
"224 103 LINE",
"248 47 OFFCURVE",
"271 -9 OFFCURVE",
"295 -65 CURVE"
);
}
);
width = 500;
}
);
unicode = 0051;
},
{
glyphname = R;
lastChange = "2018-05-09 12:12:24 +0000";
layers = (
{
layerId = "85099F7B-7F46-42FC-B840-CDE30C82BCDD";
paths = (
{
closed = 1;
nodes = (
"61 0 LINE",
"117 0 LINE",
"117 525 LINE",
"61 525 LINE"
);
},
{
closed = 1;
nodes = (
"61 545 LINE",
"61 489 LINE",
"285 489 LINE",
"339 489 OFFCURVE",
"385 444 OFFCURVE",
"385 388 CURVE",
"385 333 OFFCURVE",
"340 288 OFFCURVE",
"286 288 CURVE",
"61 288 LINE",
"61 232 LINE",
"284 232 LINE",
"389 232 OFFCURVE",
"439 302 OFFCURVE",
"439 391 CURVE",
"439 475 OFFCURVE",
"386 545 OFFCURVE",
"284 545 CURVE"
);
},
{
closed = 1;
nodes = (
"366 0 LINE",
"425 0 LINE",
"284 276 LINE",
"225 276 LINE"
);
},
{
closed = 1;
nodes = (
"123 232 LINE",
"117 232 LINE",
"117 226 LINE"
);
},
{
closed = 1;
nodes = (
"117 288 LINE",
"123 288 LINE",
"117 294 LINE"
);
},
{
closed = 1;
nodes = (
"123 489 LINE",
"117 489 LINE",
"117 483 LINE"
);
}
);
width = 500;
}
);
unicode = 0052;
},
{
glyphname = S;
lastChange = "2018-05-03 18:14:39 +0000";
layers = (
{
guideLines = (
{
angle = 90;
position = "{71, 105}";
},
{
angle = 90;
position = "{440, 124}";
}
);
layerId = "85099F7B-7F46-42FC-B840-CDE30C82BCDD";
paths = (
{
closed = 1;
nodes = (
"397 506 LINE",
"374 527 OFFCURVE",
"329 551 OFFCURVE",
"262 551 CURVE SMOOTH",
"141 551 OFFCURVE",
"71 473 OFFCURVE",
"71 387 CURVE SMOOTH",
"71 258 OFFCURVE",
"180 256 OFFCURVE",
"254 245 CURVE SMOOTH",
"309 237 OFFCURVE",
"386 239 OFFCURVE",
"386 160 CURVE SMOOTH",
"386 94 OFFCURVE",
"339 49 OFFCURVE",
"248 49 CURVE SMOOTH",
"165 49 OFFCURVE",
"107 100 OFFCURVE",
"71 132 CURVE",
"71 63 LINE",
"94 42 OFFCURVE",
"155 -5 OFFCURVE",
"248 -5 CURVE SMOOTH",
"374 -5 OFFCURVE",
"442 74 OFFCURVE",
"442 160 CURVE SMOOTH",
"442 289 OFFCURVE",
"333 289 OFFCURVE",
"254 302 CURVE SMOOTH",
"204 310 OFFCURVE",
"127 308 OFFCURVE",
"127 387 CURVE SMOOTH",
"127 453 OFFCURVE",
"176 497 OFFCURVE",
"262 497 CURVE SMOOTH",
"325 497 OFFCURVE",
"368 468 OFFCURVE",
"397 441 CURVE"
);
}
);
width = 500;
}
);
unicode = 0053;
},
{
glyphname = T;
lastChange = "2018-05-09 12:13:49 +0000";
layers = (
{
layerId = "85099F7B-7F46-42FC-B840-CDE30C82BCDD";
paths = (
{
closed = 1;
nodes = (
"447 545 LINE",
"53 545 LINE",
"53 491 LINE",
"447 491 LINE"
);
},
{
closed = 1;
nodes = (
"278 0 LINE",
"278 534 LINE",
"222 534 LINE",
"222 0 LINE"
);
},
{
closed = 1;
nodes = (
"222 491 LINE",
"216 491 LINE",
"222 485 LINE"
);
},
{
closed = 1;
nodes = (
"284 491 LINE",
"278 491 LINE",
"278 485 LINE"
);
}
);
width = 500;
}
);
unicode = 0054;
},
{
glyphname = Tbar;
lastChange = "2018-05-03 12:51:59 +0000";
layers = (
{
layerId = "85099F7B-7F46-42FC-B840-CDE30C82BCDD";
paths = (
{
closed = 1;
nodes = (
"447 545 LINE",
"53 545 LINE",
"53 491 LINE",
"447 491 LINE"
);
},
{
closed = 1;
nodes = (
"278 0 LINE",
"278 534 LINE",
"222 534 LINE",
"222 0 LINE"
);
},
{
closed = 1;
nodes = (
"393 326 LINE",
"107 326 LINE",
"107 272 LINE",
"393 272 LINE"
);
}
);
width = 500;
}
);
unicode = 0166;
},
{
glyphname = U;
lastChange = "2017-12-07 11:36:20 +0000";
layers = (
{
layerId = "85099F7B-7F46-42FC-B840-CDE30C82BCDD";
paths = (
{
closed = 0;
nodes = (
"125 545 LINE",
"69 545 LINE"
);
},
{
closed = 1;
nodes = (
"68 78 OFFCURVE",
"149 -3 OFFCURVE",
"250 -3 CURVE",
"350 -3 OFFCURVE",
"431 77 OFFCURVE",
"431 179 CURVE",
"432 545 LINE",
"376 545 LINE",
"376 177 LINE",
"376 107 OFFCURVE",
"320 51 OFFCURVE",
"251 51 CURVE",
"181 51 OFFCURVE",
"125 107 OFFCURVE",
"125 177 CURVE",
"125 545 LINE",
"69 545 LINE",
"68 179 LINE"
);
}
);
width = 500;
}
);
unicode = 0055;
},
{
glyphname = V;
lastChange = "2017-12-07 11:36:20 +0000";
layers = (
{
layerId = "85099F7B-7F46-42FC-B840-CDE30C82BCDD";
paths = (
{
closed = 1;
nodes = (
"278 0 LINE",
"90 545 LINE",
"34 545 LINE",
"222 0 LINE"
);
},
{
closed = 1;
nodes = (
"466 545 LINE",
"410 545 LINE",
"222 0 LINE",
"278 0 LINE"
);
}
);
width = 500;
}
);
unicode = 0056;
},
{
glyphname = W;
lastChange = "2018-05-01 15:49:42 +0000";
layers = (
{
layerId = "85099F7B-7F46-42FC-B840-CDE30C82BCDD";
paths = (
{
closed = 1;
nodes = (
"163 0 LINE",
"80 545 LINE",
"24 545 LINE",
"107 0 LINE"
);
},
{
closed = 1;
nodes = (
"278 510 LINE",
"227 510 LINE",
"118 0 LINE",
"164 0 LINE"
);
},
{
closed = 1;
nodes = (
"481 545 LINE",
"425 545 LINE",
"342 0 LINE",
"398 0 LINE"
);
},
{
closed = 1;
nodes = (
"387 0 LINE",
"278 510 LINE",
"227 510 LINE",
"341 0 LINE"
);
}
);
width = 500;
}
);
unicode = 0057;
},
{
glyphname = X;
lastChange = "2018-05-02 11:55:46 +0000";
layers = (
{
layerId = "85099F7B-7F46-42FC-B840-CDE30C82BCDD";
paths = (
{
closed = 1;
nodes = (
"437 0 LINE",
"111 545 LINE",
"50 545 LINE",
"376 0 LINE"
);
},
{
closed = 1;
nodes = (
"442 545 LINE",
"381 545 LINE",
"55 0 LINE",
"116 0 LINE"
);
}
);
width = 500;
}
);
unicode = 0058;
},
{
glyphname = Y;
lastChange = "2017-12-19 10:23:45 +0000";
layers = (
{
layerId = "85099F7B-7F46-42FC-B840-CDE30C82BCDD";
paths = (
{
closed = 1;
nodes = (
"222 214 LINE",
"222 0 LINE",
"278 0 LINE",
"278 214 LINE",
"450 545 LINE",
"394 545 LINE",
"250 260 LINE",
"106 545 LINE",
"50 545 LINE"
);
}
);
width = 500;
}
);
unicode = 0059;
},
{
glyphname = Z;
lastChange = "2018-05-03 12:08:41 +0000";
layers = (
{
layerId = "85099F7B-7F46-42FC-B840-CDE30C82BCDD";
paths = (
{
closed = 1;
nodes = (
"61 545 LINE",
"61 491 LINE",
"377 491 LINE",
"61 54 LINE",
"61 0 LINE",
"439 0 LINE",
"439 54 LINE",
"123 54 LINE",
"439 491 LINE",
"439 545 LINE"
);
},
{
closed = 0;
nodes = (
"439 0 LINE"
);
}
);
width = 500;
}
);
unicode = 005A;
},
{
glyphname = A.ss01;
lastChange = "2018-05-10 08:20:55 +0000";
layers = (
{
layerId = "85099F7B-7F46-42FC-B840-CDE30C82BCDD";
paths = (
{
closed = 1;
nodes = (
"358 249 LINE",
"145 249 LINE",
"145 195 LINE",
"358 195 LINE"
);
},
{
closed = 1;
nodes = (
"93 0 LINE",
"275 545 LINE",
"219 545 LINE",
"37 0 LINE"
);
},
{
closed = 1;
nodes = (
"275 545 LINE",
"219 545 LINE",
"401 0 LINE",
"457 0 LINE"
);
}
);
width = 500;
}
);
},
{
glyphname = B.ss01;
lastChange = "2018-05-10 08:23:20 +0000";
layers = (
{
layerId = "85099F7B-7F46-42FC-B840-CDE30C82BCDD";
paths = (
{
closed = 1;
nodes = (
"116 0 LINE",
"116 545 LINE",
"60 545 LINE",
"60 0 LINE"
);
},
{
closed = 1;
nodes = (
"122 262 LINE",
"116 262 LINE",
"116 256 LINE"
);
},
{
closed = 1;
nodes = (
"116 308 LINE",
"122 308 LINE",
"116 314 LINE"
);
},
{
closed = 1;
nodes = (
"122 489 LINE",
"116 489 LINE",
"116 483 LINE"
);
},
{
closed = 1;
nodes = (
"116 56 LINE",
"122 56 LINE",
"116 62 LINE"
);
},
{
closed = 1;
nodes = (
"418 262 LINE",
"418 545 LINE",
"362 545 LINE",
"362 262 LINE"
);
},
{
closed = 1;
nodes = (
"443 0 LINE",
"443 283 LINE",
"387 283 LINE",
"387 0 LINE"
);
},
{
closed = 1;
nodes = (
"112 489 LINE",
"417 489 LINE",
"417 545 LINE",
"112 545 LINE"
);
},
{
closed = 1;
nodes = (
"108 262 LINE",
"413 262 LINE",
"413 308 LINE",
"108 308 LINE"
);
},
{
closed = 1;
nodes = (
"109 0 LINE",
"402 0 LINE",
"402 56 LINE",
"109 56 LINE"
);
},
{
closed = 1;
nodes = (
"381 56 LINE",
"387 56 LINE",
"387 62 LINE"
);
},
{
closed = 1;
nodes = (
"387 262 LINE",
"381 262 LINE",
"387 256 LINE"
);
},
{
closed = 1;
nodes = (
"356 308 LINE",
"362 308 LINE",
"362 314 LINE"
);
},
{
closed = 1;
nodes = (
"362 489 LINE",
"356 489 LINE",
"362 483 LINE"
);
}
);
width = 500;
}
);
},
{
glyphname = C.ss01;
lastChange = "2018-05-10 08:24:43 +0000";
layers = (
{
layerId = "85099F7B-7F46-42FC-B840-CDE30C82BCDD";
paths = (
{
closed = 1;
nodes = (
"113 0 LINE",
"113 545 LINE",
"57 545 LINE",
"57 0 LINE"
);
},
{
closed = 1;
nodes = (
"119 489 LINE",
"113 489 LINE",
"113 483 LINE"
);
},
{
closed = 1;
nodes = (
"113 56 LINE",
"119 56 LINE",
"113 62 LINE"
);
},
{
closed = 1;
nodes = (
"109 489 LINE",
"443 489 LINE",
"443 545 LINE",
"109 545 LINE"
);
},
{
closed = 1;
nodes = (
"106 0 LINE",
"443 0 LINE",
"443 56 LINE",
"106 56 LINE"
);
}
);
width = 500;
}
);
},
{
glyphname = D.ss01;
lastChange = "2018-05-10 08:25:54 +0000";
layers = (
{
layerId = "85099F7B-7F46-42FC-B840-CDE30C82BCDD";
paths = (
{
closed = 1;
nodes = (
"113 0 LINE",
"113 545 LINE",
"57 545 LINE",
"57 0 LINE"
);
},
{
closed = 1;
nodes = (
"119 489 LINE",
"113 489 LINE",
"113 483 LINE"
);
},
{
closed = 1;
nodes = (
"113 56 LINE",
"119 56 LINE",
"117 58 OFFCURVE",
"115 60 OFFCURVE",
"113 62 CURVE"
);
},
{
closed = 1;
nodes = (
"109 489 LINE",
"411 489 LINE",
"411 545 LINE",
"109 545 LINE"
);
},
{
closed = 1;
nodes = (
"106 0 LINE",
"443 0 LINE",
"443 56 LINE",
"106 56 LINE"
);
},
{
closed = 1;
nodes = (
"422 0 LINE",
"422 545 LINE",
"366 545 LINE",
"366 0 LINE"
);
},
{
closed = 1;
nodes = (
"364 60 OFFCURVE",
"362 58 OFFCURVE",
"360 56 CURVE",
"366 56 LINE",
"366 62 LINE"
);
},
{
closed = 1;
nodes = (
"366 489 LINE",
"360 489 LINE",
"366 483 LINE"
);
}
);
width = 500;
}
);
},
{
glyphname = E.ss01;
lastChange = "2018-05-10 08:27:56 +0000";
layers = (
{
layerId = "85099F7B-7F46-42FC-B840-CDE30C82BCDD";
paths = (
{
closed = 1;
nodes = (
"431 54 LINE",
"68 54 LINE",
"68 0 LINE",
"431 0 LINE"
);
},
{
closed = 1;
nodes = (
"124 20 LINE",
"124 534 LINE",
"68 534 LINE",
"68 20 LINE"
);
},
{
closed = 1;
nodes = (
"414 303 LINE",
"70 303 LINE",
"70 249 LINE",
"414 249 LINE"
);
},
{
closed = 1;
nodes = (
"431 545 LINE",
"68 545 LINE",
"68 491 LINE",
"431 491 LINE"
);
},
{
closed = 1;
nodes = (
"124 491 LINE",
"124 485 LINE",
"130 491 LINE"
);
},
{
closed = 1;
nodes = (
"124 60 LINE",
"124 54 LINE",
"130 54 LINE"
);
},
{
closed = 1;
nodes = (
"124 309 LINE",
"124 303 LINE",
"130 303 LINE"
);
},
{
closed = 1;
nodes = (
"124 249 LINE",
"124 243 LINE",
"130 249 LINE"
);
},
{
closed = 1;
nodes = (
"124 491 LINE",
"124 485 LINE",
"130 491 LINE"
);
},
{
closed = 1;
nodes = (
"124 60 LINE",
"124 54 LINE",
"130 54 LINE"
);
},
{
closed = 1;
nodes = (
"124 309 LINE",
"124 303 LINE",
"130 303 LINE"
);
},
{
closed = 1;
nodes = (
"124 249 LINE",
"124 243 LINE",
"130 249 LINE"
);
}
);
width = 500;
}
);
},
{
glyphname = F.ss01;
lastChange = "2018-05-10 08:28:06 +0000";
layers = (
{
layerId = "85099F7B-7F46-42FC-B840-CDE30C82BCDD";
paths = (
{
closed = 1;
nodes = (
"124 0 LINE",
"124 534 LINE",
"68 534 LINE",
"68 0 LINE"
);
},
{
closed = 1;
nodes = (
"414 303 LINE",
"70 303 LINE",
"70 249 LINE",
"414 249 LINE"
);
},
{
closed = 1;
nodes = (
"431 545 LINE",
"68 545 LINE",
"68 491 LINE",
"431 491 LINE"
);
},
{
closed = 1;
nodes = (
"124 491 LINE",
"124 485 LINE",
"130 491 LINE"
);
},
{
closed = 1;
nodes = (
"124 309 LINE",
"124 303 LINE",
"130 303 LINE"
);
},
{
closed = 1;
nodes = (
"124 249 LINE",
"124 243 LINE",
"130 249 LINE"
);
},
{
closed = 1;
nodes = (
"124 491 LINE",
"124 485 LINE",
"130 491 LINE"
);
},
{
closed = 1;
nodes = (
"124 309 LINE",
"124 303 LINE",
"130 303 LINE"
);
},
{
closed = 1;
nodes = (
"124 249 LINE",
"124 243 LINE",
"130 249 LINE"
);
}
);
width = 500;
}
);
},
{
glyphname = G.ss01;
lastChange = "2018-05-10 08:28:14 +0000";
layers = (
{
layerId = "85099F7B-7F46-42FC-B840-CDE30C82BCDD";
paths = (
{
closed = 1;
nodes = (
"113 0 LINE",
"113 545 LINE",
"57 545 LINE",
"57 0 LINE"
);
},
{
closed = 1;
nodes = (
"119 489 LINE",
"113 489 LINE",
"113 483 LINE"
);
},
{
closed = 1;
nodes = (
"113 56 LINE",
"119 56 LINE",
"113 62 LINE"
);
},
{
closed = 1;
nodes = (
"109 489 LINE",
"443 489 LINE",
"443 545 LINE",
"109 545 LINE"
);
},
{
closed = 1;
nodes = (
"106 0 LINE",
"443 0 LINE",
"443 56 LINE",
"106 56 LINE"
);
},
{
closed = 1;
nodes = (
"443 2 LINE",
"443 271 LINE",
"387 271 LINE",
"387 2 LINE"
);
},
{
closed = 1;
nodes = (
"245 215 LINE",
"443 215 LINE",
"443 271 LINE",
"245 271 LINE"
);
},
{
closed = 1;
nodes = (
"381 56 LINE",
"387 56 LINE",
"387 62 LINE"
);
},
{
closed = 1;
nodes = (
"387 215 LINE",
"381 215 LINE",
"387 209 LINE"
);
}
);
width = 500;
}
);
},
{
glyphname = H.ss01;
lastChange = "2018-05-10 08:29:06 +0000";
layers = (
{
layerId = "85099F7B-7F46-42FC-B840-CDE30C82BCDD";
paths = (
{
closed = 1;
nodes = (
"117 0 LINE",
"117 545 LINE",
"61 545 LINE",
"61 0 LINE"
);
},
{
closed = 1;
nodes = (
"421 303 LINE",
"63 303 LINE",
"63 249 LINE",
"421 249 LINE"
);
},
{
closed = 1;
nodes = (
"117 309 LINE",
"117 303 LINE",
"123 303 LINE"
);
},
{
closed = 1;
nodes = (
"117 249 LINE",
"117 243 LINE",
"123 249 LINE"
);
},
{
closed = 1;
nodes = (
"117 309 LINE",
"117 303 LINE",
"123 303 LINE"
);
},
{
closed = 1;
nodes = (
"117 249 LINE",
"117 243 LINE",
"123 249 LINE"
);
},
{
closed = 1;
nodes = (
"438 0 LINE",
"438 545 LINE",
"382 545 LINE",
"382 0 LINE"
);
},
{
closed = 1;
nodes = (
"382 303 LINE",
"382 309 LINE",
"376 303 LINE"
);
},
{
closed = 1;
nodes = (
"382 243 LINE",
"382 249 LINE",
"376 249 LINE"
);
}
);
width = 500;
}
);
},
{
glyphname = I.ss01;
lastChange = "2018-05-10 08:29:15 +0000";
layers = (
{
layerId = "85099F7B-7F46-42FC-B840-CDE30C82BCDD";
paths = (
{
closed = 1;
nodes = (
"278 0 LINE",
"278 545 LINE",
"222 545 LINE",
"222 0 LINE SMOOTH"
);
},
{
closed = 1;
nodes = (
"430 54 LINE",
"70 54 LINE",
"70 0 LINE",
"430 0 LINE"
);
},
{
closed = 1;
nodes = (
"430 545 LINE",
"70 545 LINE",
"70 491 LINE",
"430 491 LINE"
);
},
{
closed = 1;
nodes = (
"278 60 LINE",
"278 54 LINE",
"284 54 LINE"
);
},
{
closed = 1;
nodes = (
"222 54 LINE",
"222 60 LINE",
"216 54 LINE"
);
},
{
closed = 1;
nodes = (
"278 491 LINE",
"278 485 LINE",
"284 491 LINE"
);
},
{
closed = 1;
nodes = (
"222 485 LINE",
"222 491 LINE",
"216 491 LINE"
);
}
);
width = 500;
}
);
},
{
glyphname = J.ss01;
lastChange = "2018-05-10 08:29:47 +0000";
layers = (
{
layerId = "85099F7B-7F46-42FC-B840-CDE30C82BCDD";
paths = (
{
closed = 1;
nodes = (
"436 0 LINE",
"436 54 LINE",
"64 54 LINE",
"64 0 LINE"
);
},
{
closed = 1;
nodes = (
"436 545 LINE",
"380 545 LINE",
"380 0 LINE",
"436 0 LINE"
);
},
{
closed = 1;
nodes = (
"380 54 LINE",
"380 60 LINE",
"374 54 LINE"
);
}
);
width = 500;
}
);
},
{
glyphname = K.ss01;
lastChange = "2018-05-10 08:30:51 +0000";
layers = (
{
layerId = "85099F7B-7F46-42FC-B840-CDE30C82BCDD";
paths = (
{
closed = 1;
nodes = (
"144 545 LINE",
"50 545 LINE",
"50 492 LINE",
"87 492 LINE",
"87 0 LINE",
"144 0 LINE"
);
},
{
closed = 1;
nodes = (
"87 485 LINE",
"87 492 LINE",
"81 492 LINE"
);
},
{
closed = 1;
nodes = (
"401 304 LINE",
"345 304 LINE",
"345 0 LINE",
"401 0 LINE"
);
},
{
closed = 1;
nodes = (
"397 304 LINE",
"88 304 LINE",
"88 250 LINE",
"397 250 LINE"
);
},
{
closed = 1;
nodes = (
"144 250 LINE",
"144 244 LINE",
"150 250 LINE"
);
},
{
closed = 1;
nodes = (
"345 244 LINE",
"345 250 LINE",
"339 250 LINE"
);
},
{
closed = 1;
nodes = (
"450 545 LINE",
"387 545 LINE",
"257 295 LINE",
"320 295 LINE"
);
}
);
width = 500;
}
);
},
{
glyphname = L.ss01;
lastChange = "2018-05-10 08:30:40 +0000";
layers = (
{
layerId = "85099F7B-7F46-42FC-B840-CDE30C82BCDD";
paths = (
{
closed = 1;
nodes = (
"436 54 LINE",
"64 54 LINE",
"64 0 LINE",
"436 0 LINE"
);
},
{
closed = 1;
nodes = (
"120 0 LINE",
"120 545 LINE",
"64 545 LINE",
"64 0 LINE"
);
},
{
closed = 1;
nodes = (
"120 60 LINE",
"120 54 LINE",
"126 54 LINE"
);
}
);
width = 500;
}
);
},
{
glyphname = M.ss01;
lastChange = "2018-05-10 08:31:27 +0000";
layers = (
{
layerId = "85099F7B-7F46-42FC-B840-CDE30C82BCDD";
paths = (
{
closed = 1;
nodes = (
"115 545 LINE",
"59 545 LINE",
"59 0 LINE",
"115 0 LINE"
);
},
{
closed = 0;
nodes = (
"59 545 LINE",
"59 0 LINE"
);
},
{
closed = 1;
nodes = (
"279 545 LINE",
"222 545 LINE",
"222 0 LINE",
"279 0 LINE"
);
},
{
closed = 1;
nodes = (
"442 545 LINE",
"59 545 LINE",
"59 490 LINE",
"442 490 LINE"
);
},
{
closed = 1;
nodes = (
"442 545 LINE",
"386 545 LINE",
"386 0 LINE",
"442 0 LINE"
);
},
{
closed = 1;
nodes = (
"115 490 LINE",
"115 484 LINE",
"121 490 LINE"
);
},
{
closed = 1;
nodes = (
"222 484 LINE",
"222 490 LINE",
"216 490 LINE"
);
},
{
closed = 1;
nodes = (
"279 490 LINE",
"279 484 LINE",
"285 490 LINE"
);
},
{
closed = 1;
nodes = (
"386 484 LINE",
"386 490 LINE",
"380 490 LINE"
);
},
{
closed = 1;
nodes = (
"115 545 LINE",
"59 545 LINE",
"59 0 LINE",
"115 0 LINE"
);
}
);
width = 500;
}
);
},
{
glyphname = N.ss01;
lastChange = "2018-05-10 08:31:37 +0000";
layers = (
{
layerId = "85099F7B-7F46-42FC-B840-CDE30C82BCDD";
paths = (
{
closed = 1;
nodes = (
"115 545 LINE",
"59 545 LINE",
"59 0 LINE",
"115 0 LINE"
);
},
{
closed = 0;
nodes = (
"59 545 LINE",
"59 0 LINE"
);
},
{
closed = 1;
nodes = (
"442 545 LINE",
"59 545 LINE",
"59 490 LINE",
"442 490 LINE"
);
},
{
closed = 1;
nodes = (
"442 545 LINE",
"386 545 LINE",
"386 0 LINE",
"442 0 LINE"
);
},
{
closed = 1;
nodes = (
"115 490 LINE",
"115 484 LINE",
"121 490 LINE"
);
},
{
closed = 1;
nodes = (
"386 484 LINE",
"386 490 LINE",
"380 490 LINE"
);
},
{
closed = 1;
nodes = (
"115 545 LINE",
"59 545 LINE",
"59 0 LINE",
"115 0 LINE"
);
}
);
width = 500;
}
);
},
{
glyphname = O.ss01;
lastChange = "2018-05-10 08:34:24 +0000";
layers = (
{
layerId = "85099F7B-7F46-42FC-B840-CDE30C82BCDD";
paths = (
{
closed = 0;
nodes = (
"59 545 LINE",
"59 0 LINE"
);
},
{
closed = 1;
nodes = (
"442 545 LINE",
"59 545 LINE",
"59 490 LINE",
"442 490 LINE"
);
},
{
closed = 1;
nodes = (
"442 545 LINE",
"386 545 LINE",
"386 0 LINE",
"442 0 LINE"
);
},
{
closed = 1;
nodes = (
"115 490 LINE",
"115 484 LINE",
"121 490 LINE"
);
},
{
closed = 1;
nodes = (
"386 484 LINE",
"386 490 LINE",
"380 490 LINE"
);
},
{
closed = 1;
nodes = (
"115 545 LINE",
"59 545 LINE",
"59 0 LINE",
"115 0 LINE"
);
},
{
closed = 1;
nodes = (
"442 55 LINE",
"59 55 LINE",
"59 0 LINE",
"442 0 LINE"
);
},
{
closed = 1;
nodes = (
"115 61 LINE",
"115 55 LINE",
"121 55 LINE"
);
},
{
closed = 1;
nodes = (
"386 55 LINE",
"386 61 LINE",
"380 55 LINE"
);
}
);
width = 500;
}
);
},
{
glyphname = P.ss01;
lastChange = "2018-05-10 08:34:52 +0000";
layers = (
{
layerId = "85099F7B-7F46-42FC-B840-CDE30C82BCDD";
paths = (
{
closed = 0;
nodes = (
"59 545 LINE",
"59 0 LINE"
);
},
{
closed = 1;
nodes = (
"442 545 LINE",
"59 545 LINE",
"59 490 LINE",
"442 490 LINE"
);
},
{
closed = 1;
nodes = (
"442 545 LINE",
"386 545 LINE",
"386 226 LINE",
"442 226 LINE"
);
},
{
closed = 1;
nodes = (
"115 490 LINE",
"115 484 LINE",
"121 490 LINE"
);
},
{
closed = 1;
nodes = (
"386 484 LINE",
"386 490 LINE",
"380 490 LINE"
);
},
{
closed = 1;
nodes = (
"115 545 LINE",
"59 545 LINE",
"59 0 LINE",
"115 0 LINE"
);
},
{
closed = 1;
nodes = (
"442 278 LINE",
"59 278 LINE",
"59 223 LINE",
"442 223 LINE"
);
},
{
closed = 1;
nodes = (
"115 284 LINE",
"115 278 LINE",
"121 278 LINE"
);
},
{
closed = 1;
nodes = (
"386 278 LINE",
"386 284 LINE",
"380 278 LINE"
);
}
);
width = 500;
}
);
},
{
glyphname = Q.ss01;
lastChange = "2018-05-10 08:37:52 +0000";
layers = (
{
layerId = "85099F7B-7F46-42FC-B840-CDE30C82BCDD";
paths = (
{
closed = 0;
nodes = (
"60 545 LINE",
"60 0 LINE"
);
},
{
closed = 1;
nodes = (
"442 545 LINE",
"60 545 LINE",
"60 490 LINE",
"442 490 LINE"
);
},
{
closed = 1;
nodes = (
"442 545 LINE",
"386 545 LINE",
"386 0 LINE",
"442 0 LINE"
);
},
{
closed = 1;
nodes = (
"116 490 LINE",
"116 484 LINE",
"122 490 LINE"
);
},
{
closed = 1;
nodes = (
"386 484 LINE",
"386 490 LINE",
"380 490 LINE"
);
},
{
closed = 1;
nodes = (
"116 545 LINE",
"60 545 LINE",
"60 0 LINE",
"116 0 LINE"
);
},
{
closed = 1;
nodes = (
"442 55 LINE",
"60 55 LINE",
"60 0 LINE",
"442 0 LINE"
);
},
{
closed = 1;
nodes = (
"116 61 LINE",
"116 55 LINE",
"122 55 LINE"
);
},
{
closed = 1;
nodes = (
"386 55 LINE",
"386 61 LINE",
"380 55 LINE"
);
},
{
closed = 1;
nodes = (
"226 -99 LINE",
"276 -99 LINE",
"276 117 LINE",
"226 117 LINE"
);
},
{
closed = 1;
nodes = (
"226 55 LINE",
"226 61 LINE",
"220 55 LINE"
);
},
{
closed = 1;
nodes = (
"276 61 LINE",
"276 55 LINE",
"282 55 LINE"
);
},
{
closed = 1;
nodes = (
"226 -6 LINE",
"226 0 LINE",
"220 0 LINE"
);
},
{
closed = 1;
nodes = (
"276 0 LINE",
"276 -6 LINE",
"282 0 LINE"
);
}
);
width = 500;
}
);
},
{
glyphname = R.ss01;
lastChange = "2018-05-10 08:35:45 +0000";
layers = (
{
layerId = "85099F7B-7F46-42FC-B840-CDE30C82BCDD";
paths = (
{
closed = 0;
nodes = (
"59 545 LINE",
"59 0 LINE"
);
},
{
closed = 1;
nodes = (
"442 545 LINE",
"59 545 LINE",
"59 490 LINE",
"442 490 LINE"
);
},
{
closed = 1;
nodes = (
"442 545 LINE",
"386 545 LINE",
"386 225 LINE",
"442 226 LINE"
);
},
{
closed = 1;
nodes = (
"115 490 LINE",
"115 484 LINE",
"121 490 LINE"
);
},
{
closed = 1;
nodes = (
"386 484 LINE",
"386 490 LINE",
"380 490 LINE"
);
},
{
closed = 1;
nodes = (
"115 545 LINE",
"59 545 LINE",
"59 0 LINE",
"115 0 LINE"
);
},
{
closed = 1;
nodes = (
"442 278 LINE",
"59 278 LINE",
"59 223 LINE",
"442 223 LINE"
);
},
{
closed = 1;
nodes = (
"115 284 LINE",
"115 278 LINE",
"121 278 LINE"
);
},
{
closed = 1;
nodes = (
"386 278 LINE",
"386 284 LINE",
"380 278 LINE"
);
},
{
closed = 1;
nodes = (
"387 232 LINE",
"331 232 LINE",
"331 -1 LINE",
"387 -1 LINE"
);
},
{
closed = 1;
nodes = (
"387 223 LINE",
"387 217 LINE",
"393 223 LINE"
);
},
{
closed = 1;
nodes = (
"331 217 LINE",
"331 223 LINE",
"325 223 LINE"
);
}
);
width = 500;
}
);
},
{
glyphname = S.ss01;
lastChange = "2018-05-10 08:38:39 +0000";
layers = (
{
layerId = "85099F7B-7F46-42FC-B840-CDE30C82BCDD";
paths = (
{
closed = 1;
nodes = (
"418 545 LINE",
"81 545 LINE",
"81 490 LINE",
"418 490 LINE"
);
},
{
closed = 1;
nodes = (
"137 545 LINE",
"81 545 LINE",
"81 268 LINE",
"137 268 LINE"
);
},
{
closed = 1;
nodes = (
"418 55 LINE",
"82 55 LINE",
"82 0 LINE",
"418 0 LINE"
);
},
{
closed = 1;
nodes = (
"418 300 LINE",
"81 300 LINE",
"81 248 LINE",
"418 248 LINE"
);
},
{
closed = 1;
nodes = (
"418 282 LINE",
"362 282 LINE",
"362 0 LINE",
"418 0 LINE"
);
},
{
closed = 1;
nodes = (
"362 55 LINE",
"362 62 LINE",
"356 55 LINE"
);
},
{
closed = 1;
nodes = (
"362 241 LINE",
"362 248 LINE",
"356 248 LINE"
);
},
{
closed = 1;
nodes = (
"137 307 LINE",
"137 300 LINE",
"143 300 LINE"
);
},
{
closed = 1;
nodes = (
"137 490 LINE",
"137 483 LINE",
"143 490 LINE"
);
}
);
width = 500;
}
);
},
{
glyphname = T.ss01;
lastChange = "2018-05-10 08:38:50 +0000";
layers = (
{
layerId = "85099F7B-7F46-42FC-B840-CDE30C82BCDD";
paths = (
{
closed = 1;
nodes = (
"447 545 LINE",
"53 545 LINE",
"53 491 LINE",
"447 491 LINE"
);
},
{
closed = 1;
nodes = (
"278 0 LINE",
"278 534 LINE",
"222 534 LINE",
"222 0 LINE"
);
},
{
closed = 1;
nodes = (
"222 491 LINE",
"216 491 LINE",
"222 485 LINE"
);
},
{
closed = 1;
nodes = (
"284 491 LINE",
"278 491 LINE",
"278 485 LINE"
);
}
);
width = 500;
}
);
},
{
glyphname = U.ss01;
lastChange = "2018-05-10 08:38:57 +0000";
layers = (
{
layerId = "85099F7B-7F46-42FC-B840-CDE30C82BCDD";
paths = (
{
closed = 0;
nodes = (
"59 545 LINE",
"59 0 LINE"
);
},
{
closed = 1;
nodes = (
"442 545 LINE",
"386 545 LINE",
"386 0 LINE",
"442 0 LINE"
);
},
{
closed = 1;
nodes = (
"115 545 LINE",
"59 545 LINE",
"59 0 LINE",
"115 0 LINE"
);
},
{
closed = 1;
nodes = (
"442 55 LINE",
"59 55 LINE",
"59 0 LINE",
"442 0 LINE"
);
},
{
closed = 1;
nodes = (
"115 61 LINE",
"115 55 LINE",
"121 55 LINE"
);
},
{
closed = 1;
nodes = (
"386 55 LINE",
"386 61 LINE",
"380 55 LINE"
);
}
);
width = 500;
}
);
},
{
glyphname = V.ss01;
lastChange = "2018-05-10 08:40:07 +0000";
layers = (
{
layerId = "85099F7B-7F46-42FC-B840-CDE30C82BCDD";
paths = (
{
closed = 1;
nodes = (
"298 0 LINE",
"472 545 LINE",
"407 545 LINE",
"252 54 LINE",
"247 54 LINE",
"95 545 LINE",
"30 545 LINE",
"201 0 LINE"
);
}
);
width = 500;
}
);
},
{
glyphname = W.ss01;
lastChange = "2018-05-10 08:40:18 +0000";
layers = (
{
layerId = "85099F7B-7F46-42FC-B840-CDE30C82BCDD";
paths = (
{
closed = 1;
nodes = (
"59 545 LINE",
"59 0 LINE",
"115 0 LINE",
"115 545 LINE"
);
},
{
closed = 0;
nodes = (
"59 545 LINE",
"59 0 LINE"
);
},
{
closed = 1;
nodes = (
"222 545 LINE",
"222 0 LINE",
"279 0 LINE",
"279 545 LINE"
);
},
{
closed = 1;
nodes = (
"59 55 LINE",
"59 0 LINE",
"442 0 LINE",
"442 55 LINE"
);
},
{
closed = 1;
nodes = (
"386 545 LINE",
"386 0 LINE",
"442 0 LINE",
"442 545 LINE"
);
},
{
closed = 1;
nodes = (
"115 61 LINE",
"115 55 LINE",
"121 55 LINE"
);
},
{
closed = 1;
nodes = (
"222 55 LINE",
"222 61 LINE",
"216 55 LINE"
);
},
{
closed = 1;
nodes = (
"279 61 LINE",
"279 55 LINE",
"285 55 LINE"
);
},
{
closed = 1;
nodes = (
"386 55 LINE",
"386 61 LINE",
"380 55 LINE"
);
},
{
closed = 1;
nodes = (
"59 545 LINE",
"59 0 LINE",
"115 0 LINE",
"115 545 LINE"
);
}
);
width = 500;
}
);
},
{
glyphname = X.ss01;
lastChange = "2018-05-10 08:40:28 +0000";
layers = (
{
layerId = "85099F7B-7F46-42FC-B840-CDE30C82BCDD";
paths = (
{
closed = 1;
nodes = (
"437 0 LINE",
"111 545 LINE",
"50 545 LINE",
"376 0 LINE"
);
},
{
closed = 1;
nodes = (
"442 545 LINE",
"381 545 LINE",
"55 0 LINE",
"116 0 LINE"
);
}
);
width = 500;
}
);
},
{
glyphname = Y.ss01;
lastChange = "2018-05-10 08:40:59 +0000";
layers = (
{
layerId = "85099F7B-7F46-42FC-B840-CDE30C82BCDD";
paths = (
{
closed = 1;
nodes = (
"279 -1 LINE",
"476 545 LINE",
"418 545 LINE",
"222 -1 LINE"
);
},
{
closed = 1;
nodes = (
"222 -152 LINE",
"279 -152 LINE",
"279 6 LINE",
"222 6 LINE"
);
},
{
closed = 1;
nodes = (
"99 -152 LINE",
"279 -152 LINE",
"279 -98 LINE",
"99 -98 LINE"
);
},
{
closed = 1;
nodes = (
"82 545 LINE",
"24 545 LINE",
"222 -1 LINE",
"279 -1 LINE"
);
},
{
closed = 1;
nodes = (
"222 -98 LINE",
"222 -91 LINE",
"216 -98 LINE"
);
}
);
width = 500;
}
);
},
{
glyphname = Z.ss01;
lastChange = "2018-05-10 08:41:05 +0000";
layers = (
{
layerId = "85099F7B-7F46-42FC-B840-CDE30C82BCDD";
paths = (
{
closed = 1;
nodes = (
"61 545 LINE",
"61 491 LINE",
"377 491 LINE",
"61 54 LINE",
"61 0 LINE",
"439 0 LINE",
"439 54 LINE",
"123 54 LINE",
"439 491 LINE",
"439 545 LINE"
);
},
{
closed = 0;
nodes = (
"439 0 LINE"
);
}
);
width = 500;
}
);
},
{
glyphname = C.ss02;
lastChange = "2018-05-10 08:20:22 +0000";
layers = (
{
layerId = "85099F7B-7F46-42FC-B840-CDE30C82BCDD";
paths = (
{
closed = 1;
nodes = (
"178 51 OFFCURVE",
"107 125 OFFCURVE",
"107 275 CURVE",
"107 425 OFFCURVE",
"178 495 OFFCURVE",
"263 495 CURVE",
"325 495 OFFCURVE",
"379 459 OFFCURVE",
"404 381 CURVE SMOOTH",
"449 416 LINE SMOOTH",
"415 497 OFFCURVE",
"349 549 OFFCURVE",
"263 549 CURVE",
"133 549 OFFCURVE",
"50 430 OFFCURVE",
"50 275 CURVE",
"50 120 OFFCURVE",
"133 -3 OFFCURVE",
"263 -3 CURVE",
"348 -3 OFFCURVE",
"414 51 OFFCURVE",
"449 131 CURVE SMOOTH",
"403 166 LINE SMOOTH",
"378 89 OFFCURVE",
"324 51 OFFCURVE",
"263 51 CURVE"
);
}
);
width = 500;
}
);
},
{
glyphname = C.ss03;
lastChange = "2018-05-10 08:20:28 +0000";
layers = (
{
layerId = "85099F7B-7F46-42FC-B840-CDE30C82BCDD";
paths = (
{
closed = 1;
nodes = (
"174 46 OFFCURVE",
"75 146 OFFCURVE",
"75 268 CURVE SMOOTH",
"75 390 OFFCURVE",
"174 489 OFFCURVE",
"296 489 CURVE SMOOTH",
"371 489 OFFCURVE",
"437 453 OFFCURVE",
"477 396 CURVE",
"477 476 LINE",
"428 518 OFFCURVE",
"366 543 OFFCURVE",
"297 543 CURVE SMOOTH",
"145 543 OFFCURVE",
"22 420 OFFCURVE",
"22 268 CURVE SMOOTH",
"22 116 OFFCURVE",
"145 -7 OFFCURVE",
"297 -7 CURVE SMOOTH",
"366 -7 OFFCURVE",
"428 19 OFFCURVE",
"477 60 CURVE",
"477 139 LINE",
"437 83 OFFCURVE",
"371 46 OFFCURVE",
"296 46 CURVE SMOOTH"
);
}
);
width = 500;
}
);
},
{
glyphname = a;
lastChange = "2018-06-29 11:16:12 +0000";
layers = (
{
layerId = "85099F7B-7F46-42FC-B840-CDE30C82BCDD";
paths = (
{
closed = 1;
nodes = (
"85 56 OFFCURVE",
"116 1 OFFCURVE",
"225 1 CURVE SMOOTH",
"268 1 OFFCURVE",
"320 24 OFFCURVE",
"347 67 CURVE",
"351 67 LINE",
"335 56 LINE",
"346 0 LINE",
"393 0 LINE",
"393 242 LINE",
"393 362 OFFCURVE",
"346 388 OFFCURVE",
"247 388 CURVE SMOOTH",
"201 388 OFFCURVE",
"161 377 OFFCURVE",
"127 344 CURVE",
"127 288 LINE",
"161 321 OFFCURVE",
"201 336 OFFCURVE",
"247 336 CURVE SMOOTH",
"335 336 OFFCURVE",
"337 296 OFFCURVE",
"337 244 CURVE",
"272 241 LINE SMOOTH",
"114 234 OFFCURVE",
"85 185 OFFCURVE",
"85 117 CURVE SMOOTH"
);
},
{
closed = 1;
nodes = (
"141 160 OFFCURVE",
"168 183 OFFCURVE",
"273 188 CURVE SMOOTH",
"337 191 LINE",
"337 140 LINE",
"337 83 OFFCURVE",
"281 53 OFFCURVE",
"225 53 CURVE SMOOTH",
"168 53 OFFCURVE",
"141 74 OFFCURVE",
"141 117 CURVE SMOOTH"
);
}
);
width = 500;
}
);
unicode = 0061;
},
{
glyphname = ae;
lastChange = "2018-05-03 13:49:03 +0000";
layers = (
{
layerId = "85099F7B-7F46-42FC-B840-CDE30C82BCDD";
paths = (
{
closed = 1;
nodes = (
"499 217 LINE",
"497 322 OFFCURVE",
"430 390 OFFCURVE",
"320 390 CURVE",
"289 390 OFFCURVE",
"262 383 OFFCURVE",
"239 372 CURVE",
"219 377 OFFCURVE",
"196 379 OFFCURVE",
"169 379 CURVE",
"123 379 OFFCURVE",
"83 368 OFFCURVE",
"49 335 CURVE",
"49 279 LINE",
"83 312 OFFCURVE",
"123 327 OFFCURVE",
"169 327 CURVE",
"174 327 OFFCURVE",
"179 327 OFFCURVE",
"183 327 CURVE",
"208 325 OFFCURVE",
"225 319 OFFCURVE",
"236 310 CURVE",
"258 293 OFFCURVE",
"259 264 OFFCURVE",
"259 232 CURVE",
"198 232 LINE",
"194 232 LINE",
"175 232 OFFCURVE",
"159 231 OFFCURVE",
"143 230 CURVE",
"31 219 OFFCURVE",
"7 168 OFFCURVE",
"7 108 CURVE",
"7 47 OFFCURVE",
"38 -8 OFFCURVE",
"147 -8 CURVE",
"190 -8 OFFCURVE",
"242 15 OFFCURVE",
"269 58 CURVE",
"273 58 LINE",
"245 12 LINE",
"270 -1 OFFCURVE",
"301 -7 OFFCURVE",
"332 -7 CURVE",
"414 -7 OFFCURVE",
"445 24 OFFCURVE",
"468 45 CURVE",
"468 99 LINE",
"439 72 OFFCURVE",
"416 47 OFFCURVE",
"333 47 CURVE",
"327 47 OFFCURVE",
"321 47 OFFCURVE",
"315 48 CURVE",
"315 170 LINE",
"499 170 LINE"
);
},
{
closed = 1;
nodes = (
"380 337 OFFCURVE",
"442 315 OFFCURVE",
"442 217 CURVE",
"432 217 LINE",
"315 217 LINE",
"315 233 LINE",
"315 280 OFFCURVE",
"308 313 OFFCURVE",
"293 335 CURVE",
"302 336 OFFCURVE",
"311 337 OFFCURVE",
"320 337 CURVE"
);
},
{
closed = 1;
nodes = (
"259 111 OFFCURVE",
"252 94 OFFCURVE",
"240 81 CURVE",
"228 67 OFFCURVE",
"211 57 OFFCURVE",
"192 51 CURVE",
"178 46 OFFCURVE",
"162 44 OFFCURVE",
"147 44 CURVE",
"90 44 OFFCURVE",
"63 65 OFFCURVE",
"63 108 CURVE",
"63 143 OFFCURVE",
"80 167 OFFCURVE",
"141 176 CURVE",
"156 178 OFFCURVE",
"174 179 OFFCURVE",
"195 179 CURVE",
"259 179 LINE",
"259 170 LINE",
"259 131 LINE"
);
}
);
width = 500;
}
);
unicode = 00E6;
},
{
glyphname = b;
lastChange = "2018-05-10 09:26:14 +0000";
layers = (
{
layerId = "85099F7B-7F46-42FC-B840-CDE30C82BCDD";
paths = (
{
closed = 1;
nodes = (
"73 534 LINE",
"73 0 LINE",
"130 0 LINE",
"130 48 LINE",
"121 72 LINE",
"125 72 LINE",
"130 192 LINE",
"130 534 LINE"
);
},
{
closed = 1;
nodes = (
"439 297 OFFCURVE",
"372 388 OFFCURVE",
"256 388 CURVE SMOOTH",
"140 388 OFFCURVE",
"103 295 OFFCURVE",
"103 192 CURVE SMOOTH",
"103 83 OFFCURVE",
"140 -7 OFFCURVE",
"256 -7 CURVE SMOOTH",
"372 -7 OFFCURVE",
"439 88 OFFCURVE",
"439 193 CURVE SMOOTH"
);
},
{
closed = 1;
nodes = (
"382 96 OFFCURVE",
"331 47 OFFCURVE",
"256 47 CURVE SMOOTH",
"181 47 OFFCURVE",
"130 98 OFFCURVE",
"130 192 CURVE SMOOTH",
"130 285 OFFCURVE",
"181 334 OFFCURVE",
"256 334 CURVE SMOOTH",
"331 334 OFFCURVE",
"382 283 OFFCURVE",
"382 193 CURVE SMOOTH"
);
}
);
width = 500;
}
);
unicode = 0062;
},
{
glyphname = c;
lastChange = "2017-12-07 11:36:20 +0000";
layers = (
{
layerId = "85099F7B-7F46-42FC-B840-CDE30C82BCDD";
paths = (
{
closed = 1;
nodes = (
"71 95 OFFCURVE",
"137 0 OFFCURVE",
"262 0 CURVE SMOOTH",
"345 0 OFFCURVE",
"375 28 OFFCURVE",
"398 49 CURVE",
"398 105 LINE",
"369 78 OFFCURVE",
"346 54 OFFCURVE",
"263 54 CURVE SMOOTH",
"193 54 OFFCURVE",
"127 111 OFFCURVE",
"127 198 CURVE SMOOTH",
"127 285 OFFCURVE",
"193 342 OFFCURVE",
"263 342 CURVE SMOOTH",
"346 342 OFFCURVE",
"369 318 OFFCURVE",
"398 291 CURVE",
"398 347 LINE",
"375 368 OFFCURVE",
"345 396 OFFCURVE",
"262 396 CURVE SMOOTH",
"137 396 OFFCURVE",
"71 301 OFFCURVE",
"71 198 CURVE SMOOTH"
);
}
);
width = 500;
}
);
unicode = 0063;
},
{
glyphname = d;
lastChange = "2018-06-29 10:07:53 +0000";
layers = (
{
layerId = "85099F7B-7F46-42FC-B840-CDE30C82BCDD";
paths = (
{
closed = 1;
nodes = (
"370 192 LINE",
"375 72 LINE",
"370 64 LINE",
"370 47 LINE",
"370 0 LINE",
"427 0 LINE",
"427 534 LINE",
"370 534 LINE"
);
},
{
closed = 1;
nodes = (
"61 88 OFFCURVE",
"128 -7 OFFCURVE",
"244 -7 CURVE SMOOTH",
"360 -7 OFFCURVE",
"397 83 OFFCURVE",
"397 192 CURVE SMOOTH",
"397 295 OFFCURVE",
"360 388 OFFCURVE",
"244 388 CURVE SMOOTH",
"128 388 OFFCURVE",
"61 297 OFFCURVE",
"61 193 CURVE SMOOTH"
);
},
{
closed = 1;
nodes = (
"118 283 OFFCURVE",
"169 334 OFFCURVE",
"244 334 CURVE SMOOTH",
"319 334 OFFCURVE",
"370 285 OFFCURVE",
"370 192 CURVE SMOOTH",
"370 98 OFFCURVE",
"319 47 OFFCURVE",
"244 47 CURVE SMOOTH",
"169 47 OFFCURVE",
"118 96 OFFCURVE",
"118 193 CURVE SMOOTH"
);
}
);
width = 500;
}
);
unicode = 0064;
},
{
glyphname = dcroat;
lastChange = "2018-05-04 18:34:43 +0000";
layers = (
{
layerId = "85099F7B-7F46-42FC-B840-CDE30C82BCDD";
paths = (
{
closed = 1;
nodes = (
"370 192 LINE",
"375 72 LINE",
"379 72 LINE",
"370 47 LINE",
"370 0 LINE",
"427 0 LINE",
"427 534 LINE",
"370 534 LINE"
);
},
{
closed = 1;
nodes = (
"61 88 OFFCURVE",
"128 -7 OFFCURVE",
"244 -7 CURVE SMOOTH",
"360 -7 OFFCURVE",
"397 83 OFFCURVE",
"397 192 CURVE SMOOTH",
"397 295 OFFCURVE",
"360 388 OFFCURVE",
"244 388 CURVE SMOOTH",
"128 388 OFFCURVE",
"61 297 OFFCURVE",
"61 193 CURVE SMOOTH"
);
},
{
closed = 1;
nodes = (
"118 283 OFFCURVE",
"169 334 OFFCURVE",
"244 334 CURVE SMOOTH",
"319 334 OFFCURVE",
"370 285 OFFCURVE",
"370 192 CURVE SMOOTH",
"370 98 OFFCURVE",
"319 47 OFFCURVE",
"244 47 CURVE SMOOTH",
"169 47 OFFCURVE",
"118 96 OFFCURVE",
"118 193 CURVE SMOOTH"
);
},
{
closed = 1;
nodes = (
"320 454 LINE",
"477 454 LINE",
"477 491 LINE",
"320 491 LINE"
);
}
);
width = 500;
}
);
unicode = 0111;
},
{
glyphname = e;
lastChange = "2018-04-30 10:32:39 +0000";
layers = (
{
layerId = "85099F7B-7F46-42FC-B840-CDE30C82BCDD";
paths = (
{
closed = 1;
nodes = (
"398 104 LINE",
"369 77 OFFCURVE",
"346 52 OFFCURVE",
"263 52 CURVE SMOOTH",
"190 52 OFFCURVE",
"127 108 OFFCURVE",
"127 175 CURVE",
"429 175 LINE",
"429 222 LINE",
"362 222 LINE",
"128 222 LINE",
"129 320 OFFCURVE",
"201 342 OFFCURVE",
"250 342 CURVE SMOOTH",
"310 342 OFFCURVE",
"372 320 OFFCURVE",
"372 222 CURVE",
"429 222 LINE",
"427 327 OFFCURVE",
"360 395 OFFCURVE",
"250 395 CURVE SMOOTH",
"137 395 OFFCURVE",
"71 306 OFFCURVE",
"71 197 CURVE SMOOTH",
"71 94 OFFCURVE",
"137 -2 OFFCURVE",
"262 -2 CURVE SMOOTH",
"344 -2 OFFCURVE",
"375 29 OFFCURVE",
"398 50 CURVE"
);
}
);
width = 500;
}
);
unicode = 0065;
},
{
glyphname = f;
lastChange = "2017-12-07 11:36:20 +0000";
layers = (
{
layerId = "85099F7B-7F46-42FC-B840-CDE30C82BCDD";
paths = (
{
closed = 1;
nodes = (
"410 492 LINE",
"410 545 LINE",
"203 545 LINE",
"203 384 LINE",
"138 384 LINE",
"78 331 LINE",
"203 331 LINE",
"203 0 LINE",
"259 0 LINE",
"259 331 LINE",
"350 331 LINE",
"410 384 LINE",
"259 384 LINE",
"259 492 LINE"
);
},
{
closed = 0;
nodes = (
"259 0 LINE"
);
},
{
closed = 0;
nodes = (
"203 0 LINE"
);
},
{
closed = 0;
nodes = (
"259 384 LINE"
);
},
{
closed = 0;
nodes = (
"203 384 LINE"
);
},
{
closed = 1;
nodes = (
"203 384 LINE",
"203 390 LINE",
"197 384 LINE"
);
},
{
closed = 1;
nodes = (
"259 390 LINE",
"259 384 LINE",
"265 384 LINE"
);
},
{
closed = 0;
nodes = (
"259 331 LINE"
);
},
{
closed = 0;
nodes = (
"203 331 LINE"
);
},
{
closed = 1;
nodes = (
"203 325 LINE",
"203 331 LINE",
"197 331 LINE"
);
},
{
closed = 1;
nodes = (
"259 331 LINE",
"259 325 LINE",
"265 331 LINE"
);
},
{
closed = 1;
nodes = (
"259 492 LINE",
"259 486 LINE",
"265 492 LINE"
);
}
);
width = 500;
}
);
unicode = 0066;
},
{
glyphname = g;
lastChange = "2018-05-15 15:41:50 +0000";
layers = (
{
layerId = "85099F7B-7F46-42FC-B840-CDE30C82BCDD";
paths = (
{
closed = 1;
nodes = (
"197 130 LINE",
"214 124 OFFCURVE",
"232 120 OFFCURVE",
"251 120 CURVE",
"329 120 OFFCURVE",
"391 180 OFFCURVE",
"391 254 CURVE",
"391 287 OFFCURVE",
"379 316 OFFCURVE",
"359 340 CURVE",
"377 346 OFFCURVE",
"400 344 OFFCURVE",
"414 344 CURVE",
"425 394 LINE",
"396 398 OFFCURVE",
"350 384 OFFCURVE",
"329 366 CURVE",
"307 380 OFFCURVE",
"280 388 OFFCURVE",
"251 388 CURVE",
"172 388 OFFCURVE",
"111 328 OFFCURVE",
"111 254 CURVE",
"111 212 OFFCURVE",
"130 175 OFFCURVE",
"162 150 CURVE"
);
},
{
closed = 1;
nodes = (
"304 338 OFFCURVE",
"341 301 OFFCURVE",
"341 254 CURVE",
"341 207 OFFCURVE",
"304 170 OFFCURVE",
"251 170 CURVE",
"198 170 OFFCURVE",
"161 207 OFFCURVE",
"161 254 CURVE",
"161 301 OFFCURVE",
"198 338 OFFCURVE",
"251 338 CURVE"
);
},
{
closed = 1;
nodes = (
"117 28 OFFCURVE",
"184 14 OFFCURVE",
"266 14 CURVE SMOOTH",
"320 14 OFFCURVE",
"378 7 OFFCURVE",
"378 -44 CURVE",
"378 -94 OFFCURVE",
"325 -104 OFFCURVE",
"254 -104 CURVE",
"196 -104 OFFCURVE",
"147 -88 OFFCURVE",
"118 -61 CURVE",
"118 -111 LINE",
"141 -134 OFFCURVE",
"182 -154 OFFCURVE",
"254 -154 CURVE",
"355 -154 OFFCURVE",
"426 -128 OFFCURVE",
"426 -35 CURVE",
"426 38 OFFCURVE",
"350 60 OFFCURVE",
"275 60 CURVE SMOOTH",
"219 60 OFFCURVE",
"164 63 OFFCURVE",
"164 93 CURVE",
"164 117 OFFCURVE",
"193 131 OFFCURVE",
"210 131 CURVE",
"165 153 LINE",
"139 146 OFFCURVE",
"117 124 OFFCURVE",
"117 93 CURVE"
);
}
);
width = 500;
}
);
unicode = 0067;
},
{
glyphname = gcommaaccent;
lastChange = "2018-05-15 15:41:53 +0000";
layers = (
{
components = (
{
name = commaturnedabovecomb;
transform = "{1, 0, 0, 1, 10, 19}";
}
);
layerId = "85099F7B-7F46-42FC-B840-CDE30C82BCDD";
paths = (
{
closed = 1;
nodes = (
"197 130 LINE",
"214 124 OFFCURVE",
"232 120 OFFCURVE",
"251 120 CURVE",
"329 120 OFFCURVE",
"391 180 OFFCURVE",
"391 254 CURVE",
"391 287 OFFCURVE",
"379 316 OFFCURVE",
"359 340 CURVE",
"377 346 OFFCURVE",
"400 344 OFFCURVE",
"414 344 CURVE",
"425 394 LINE",
"396 398 OFFCURVE",
"350 384 OFFCURVE",
"329 366 CURVE",
"307 380 OFFCURVE",
"280 388 OFFCURVE",
"251 388 CURVE",
"172 388 OFFCURVE",
"111 328 OFFCURVE",
"111 254 CURVE",
"111 212 OFFCURVE",
"130 175 OFFCURVE",
"162 150 CURVE"
);
},
{
closed = 1;
nodes = (
"304 338 OFFCURVE",
"341 301 OFFCURVE",
"341 254 CURVE",
"341 207 OFFCURVE",
"304 170 OFFCURVE",
"251 170 CURVE",
"198 170 OFFCURVE",
"161 207 OFFCURVE",
"161 254 CURVE",
"161 301 OFFCURVE",
"198 338 OFFCURVE",
"251 338 CURVE"
);
},
{
closed = 1;
nodes = (
"117 28 OFFCURVE",
"184 14 OFFCURVE",
"266 14 CURVE SMOOTH",
"320 14 OFFCURVE",
"378 7 OFFCURVE",
"378 -44 CURVE",
"378 -94 OFFCURVE",
"325 -104 OFFCURVE",
"254 -104 CURVE",
"196 -104 OFFCURVE",
"147 -88 OFFCURVE",
"118 -61 CURVE",
"118 -111 LINE",
"141 -134 OFFCURVE",
"182 -154 OFFCURVE",
"254 -154 CURVE",
"355 -154 OFFCURVE",
"426 -128 OFFCURVE",
"426 -35 CURVE",
"426 38 OFFCURVE",
"350 60 OFFCURVE",
"275 60 CURVE SMOOTH",
"219 60 OFFCURVE",
"164 63 OFFCURVE",
"164 93 CURVE",
"164 117 OFFCURVE",
"193 131 OFFCURVE",
"210 131 CURVE",
"165 153 LINE",
"139 146 OFFCURVE",
"117 124 OFFCURVE",
"117 93 CURVE"
);
}
);
width = 500;
}
);
unicode = 0123;
},
{
glyphname = h;
lastChange = "2018-05-10 09:28:15 +0000";
layers = (
{
layerId = "85099F7B-7F46-42FC-B840-CDE30C82BCDD";
paths = (
{
closed = 1;
nodes = (
"423 206 LINE",
"423 314 OFFCURVE",
"407 391 OFFCURVE",
"294 391 CURVE SMOOTH",
"207 391 OFFCURVE",
"159 346 OFFCURVE",
"137 271 CURVE",
"132 271 LINE",
"134 545 LINE",
"78 545 LINE",
"78 0 LINE",
"134 0 LINE",
"134 163 LINE",
"134 257 OFFCURVE",
"177 337 OFFCURVE",
"269 337 CURVE SMOOTH",
"321 337 OFFCURVE",
"367 324 OFFCURVE",
"367 228 CURVE",
"367 0 LINE",
"423 0 LINE"
);
}
);
width = 500;
}
);
unicode = 0068;
},
{
glyphname = i;
lastChange = "2018-05-09 10:52:11 +0000";
layers = (
{
layerId = "85099F7B-7F46-42FC-B840-CDE30C82BCDD";
paths = (
{
closed = 1;
nodes = (
"286 330 LINE",
"286 384 LINE",
"167 384 LINE",
"107 330 LINE",
"229 330 LINE",
"229 0 LINE",
"286 0 LINE"
);
},
{
closed = 1;
nodes = (
"229 324 LINE",
"229 330 LINE",
"223 330 LINE"
);
},
{
closed = 1;
nodes = (
"286 459 OFFCURVE",
"309 482 OFFCURVE",
"309 510 CURVE SMOOTH",
"309 536 OFFCURVE",
"286 559 OFFCURVE",
"258 559 CURVE SMOOTH",
"232 559 OFFCURVE",
"209 536 OFFCURVE",
"209 510 CURVE SMOOTH",
"209 482 OFFCURVE",
"232 459 OFFCURVE",
"258 459 CURVE SMOOTH"
);
},
{
closed = 1;
nodes = (
"93 0 LINE",
"422 0 LINE",
"422 54 LINE",
"93 54 LINE"
);
},
{
closed = 1;
nodes = (
"229 54 LINE",
"229 60 LINE",
"223 54 LINE"
);
},
{
closed = 1;
nodes = (
"286 60 LINE",
"286 54 LINE",
"292 54 LINE"
);
}
);
width = 500;
}
);
unicode = 0069;
},
{
glyphname = iacute;
lastChange = "2018-05-01 15:37:04 +0000";
layers = (
{
components = (
{
name = acute;
}
);
layerId = "85099F7B-7F46-42FC-B840-CDE30C82BCDD";
paths = (
{
closed = 1;
nodes = (
"286 384 LINE",
"167 384 LINE",
"107 330 LINE",
"229 330 LINE",
"229 0 LINE",
"286 0 LINE"
);
},
{
closed = 1;
nodes = (
"229 324 LINE",
"229 330 LINE",
"223 330 LINE"
);
}
);
width = 500;
}
);
unicode = 00ED;
},
{
glyphname = icircumflex;
lastChange = "2018-05-03 13:39:19 +0000";
layers = (
{
components = (
{
name = circumflex;
transform = "{1, 0, 0, 1, 0, -26}";
}
);
layerId = "85099F7B-7F46-42FC-B840-CDE30C82BCDD";
paths = (
{
closed = 1;
nodes = (
"286 330 LINE",
"286 384 LINE",
"167 384 LINE",
"107 330 LINE",
"229 330 LINE",
"229 0 LINE",
"286 0 LINE"
);
},
{
closed = 1;
nodes = (
"229 324 LINE",
"229 330 LINE",
"223 330 LINE"
);
}
);
width = 500;
}
);
unicode = 00EE;
},
{
glyphname = idieresis;
lastChange = "2018-05-03 13:39:19 +0000";
layers = (
{
components = (
{
name = dieresis;
transform = "{1, 0, 0, 1, -34, -55}";
}
);
layerId = "85099F7B-7F46-42FC-B840-CDE30C82BCDD";
paths = (
{
closed = 1;
nodes = (
"286 384 LINE",
"167 384 LINE",
"107 330 LINE",
"229 330 LINE",
"229 0 LINE",
"286 0 LINE"
);
},
{
closed = 1;
nodes = (
"229 324 LINE",
"229 330 LINE",
"223 330 LINE"
);
}
);
width = 500;
}
);
unicode = 00EF;
},
{
glyphname = igrave;
lastChange = "2018-05-03 13:39:19 +0000";
layers = (
{
components = (
{
name = grave;
transform = "{1, 0, 0, 1, 0, -24}";
}
);
layerId = "85099F7B-7F46-42FC-B840-CDE30C82BCDD";
paths = (
{
closed = 1;
nodes = (
"286 330 LINE",
"286 384 LINE",
"167 384 LINE",
"107 330 LINE",
"229 330 LINE",
"229 0 LINE",
"286 0 LINE"
);
},
{
closed = 1;
nodes = (
"229 324 LINE",
"229 330 LINE",
"223 330 LINE"
);
}
);
width = 500;
}
);
unicode = 00EC;
},
{
glyphname = imacron;
lastChange = "2018-05-04 18:36:21 +0000";
layers = (
{
components = (
{
name = macron;
transform = "{1, 0, 0, 1, 0, -135}";
}
);
layerId = "85099F7B-7F46-42FC-B840-CDE30C82BCDD";
paths = (
{
closed = 1;
nodes = (
"286 330 LINE",
"286 384 LINE",
"167 384 LINE",
"107 330 LINE",
"229 330 LINE",
"229 0 LINE",
"286 0 LINE"
);
},
{
closed = 1;
nodes = (
"229 324 LINE",
"229 330 LINE",
"223 330 LINE"
);
},
{
closed = 1;
nodes = (
"93 0 LINE",
"422 0 LINE",
"422 54 LINE",
"93 54 LINE"
);
}
);
width = 500;
}
);
unicode = 012B;
},
{
glyphname = j;
lastChange = "2018-05-09 14:01:29 +0000";
layers = (
{
layerId = "85099F7B-7F46-42FC-B840-CDE30C82BCDD";
paths = (
{
closed = 1;
nodes = (
"353 449 OFFCURVE",
"371 474 OFFCURVE",
"371 498 CURVE SMOOTH",
"371 527 OFFCURVE",
"349 549 OFFCURVE",
"322 549 CURVE SMOOTH",
"293 549 OFFCURVE",
"271 527 OFFCURVE",
"271 498 CURVE SMOOTH",
"271 471 OFFCURVE",
"293 449 OFFCURVE",
"322 449 CURVE SMOOTH"
);
},
{
closed = 1;
nodes = (
"355 -19 LINE",
"355 384 LINE",
"298 384 LINE",
"298 -99 LINE"
);
},
{
closed = 1;
nodes = (
"109 331 LINE",
"354 331 LINE",
"354 384 LINE",
"169 384 LINE"
);
},
{
closed = 1;
nodes = (
"298 -25 LINE SMOOTH",
"298 -68 OFFCURVE",
"276 -98 OFFCURVE",
"219 -98 CURVE SMOOTH",
"170 -98 OFFCURVE",
"133 -73 OFFCURVE",
"104 -46 CURVE",
"104 -100 LINE",
"120 -128 OFFCURVE",
"169 -153 OFFCURVE",
"219 -153 CURVE SMOOTH",
"338 -153 OFFCURVE",
"355 -95 OFFCURVE",
"355 -19 CURVE",
"298 -19 LINE"
);
}
);
width = 500;
}
);
unicode = 006A;
},
{
glyphname = k;
lastChange = "2018-05-10 09:29:44 +0000";
layers = (
{
layerId = "85099F7B-7F46-42FC-B840-CDE30C82BCDD";
paths = (
{
closed = 1;
nodes = (
"136 0 LINE",
"192 0 LINE",
"192 545 LINE",
"136 545 LINE"
);
},
{
closed = 1;
nodes = (
"137 256 LINE",
"137 189 LINE",
"227 189 LINE",
"227 256 LINE"
);
},
{
closed = 1;
nodes = (
"477 0 LINE",
"207 256 LINE",
"207 189 LINE",
"410 0 LINE"
);
},
{
closed = 1;
nodes = (
"207 256 LINE",
"207 189 LINE",
"408 384 LINE",
"341 384 LINE"
);
}
);
width = 500;
}
);
unicode = 006B;
},
{
glyphname = l;
lastChange = "2018-05-04 14:02:03 +0000";
layers = (
{
layerId = "85099F7B-7F46-42FC-B840-CDE30C82BCDD";
paths = (
{
closed = 1;
nodes = (
"280 545 LINE",
"143 545 LINE",
"83 491 LINE",
"223 491 LINE",
"223 0 LINE",
"280 0 LINE"
);
},
{
closed = 1;
nodes = (
"223 484 LINE",
"223 491 LINE",
"217 491 LINE"
);
}
);
width = 500;
}
);
unicode = 006C;
},
{
glyphname = lslash;
lastChange = "2018-05-04 18:37:55 +0000";
layers = (
{
components = (
{
name = l;
}
);
layerId = "85099F7B-7F46-42FC-B840-CDE30C82BCDD";
paths = (
{
closed = 1;
nodes = (
"158 256 LINE",
"345 294 LINE",
"345 348 LINE",
"158 310 LINE"
);
}
);
width = 500;
}
);
unicode = 0142;
},
{
glyphname = m;
lastChange = "2018-07-17 13:00:44 +0000";
layers = (
{
layerId = "85099F7B-7F46-42FC-B840-CDE30C82BCDD";
paths = (
{
closed = 1;
nodes = (
"99 1 LINE",
"100 164 LINE",
"100 258 OFFCURVE",
"129 340 OFFCURVE",
"172 340 CURVE SMOOTH",
"198 340 OFFCURVE",
"222 325 OFFCURVE",
"222 229 CURVE SMOOTH",
"222 1 LINE",
"278 1 LINE",
"278 164 LINE SMOOTH",
"278 257 OFFCURVE",
"307 340 OFFCURVE",
"350 340 CURVE SMOOTH",
"376 340 OFFCURVE",
"400 325 OFFCURVE",
"400 229 CURVE SMOOTH",
"400 1 LINE",
"456 1 LINE",
"456 218 LINE SMOOTH",
"456 315 OFFCURVE",
"440 392 OFFCURVE",
"368 392 CURVE SMOOTH",
"305 392 OFFCURVE",
"285 312 OFFCURVE",
"281 291 CURVE",
"276 291 LINE",
"270 362 OFFCURVE",
"248 392 OFFCURVE",
"190 392 CURVE SMOOTH",
"127 392 OFFCURVE",
"108 312 OFFCURVE",
"104 291 CURVE",
"99 291 LINE",
"99 385 LINE",
"43 385 LINE",
"43 1 LINE"
);
}
);
width = 500;
}
);
unicode = 006D;
},
{
glyphname = n;
lastChange = "2018-06-29 11:15:04 +0000";
layers = (
{
layerId = "85099F7B-7F46-42FC-B840-CDE30C82BCDD";
paths = (
{
closed = 1;
nodes = (
"424 226 LINE",
"424 320 OFFCURVE",
"408 389 OFFCURVE",
"295 389 CURVE SMOOTH",
"208 389 OFFCURVE",
"160 344 OFFCURVE",
"138 269 CURVE",
"133 269 LINE",
"135 384 LINE",
"79 384 LINE",
"79 0 LINE",
"135 0 LINE",
"135 161 LINE",
"135 255 OFFCURVE",
"178 335 OFFCURVE",
"270 335 CURVE SMOOTH",
"322 335 OFFCURVE",
"368 322 OFFCURVE",
"368 226 CURVE",
"368 0 LINE",
"424 0 LINE"
);
}
);
width = 500;
}
);
unicode = 006E;
},
{
glyphname = eng;
lastChange = "2018-05-05 17:34:07 +0000";
layers = (
{
components = (
{
name = n;
}
);
layerId = "85099F7B-7F46-42FC-B840-CDE30C82BCDD";
paths = (
{
closed = 1;
nodes = (
"231 -73 LINE",
"250 -85 OFFCURVE",
"273 -93 OFFCURVE",
"303 -93 CURVE SMOOTH",
"375 -93 OFFCURVE",
"424 -58 OFFCURVE",
"424 0 CURVE",
"368 0 LINE",
"368 -27 OFFCURVE",
"358 -39 OFFCURVE",
"303 -39 CURVE SMOOTH",
"271 -39 OFFCURVE",
"249 -30 OFFCURVE",
"231 -18 CURVE"
);
}
);
width = 500;
}
);
unicode = 014B;
},
{
glyphname = o;
lastChange = "2018-07-17 12:38:24 +0000";
layers = (
{
layerId = "85099F7B-7F46-42FC-B840-CDE30C82BCDD";
paths = (
{
closed = 1;
nodes = (
"416 297 OFFCURVE",
"349 392 OFFCURVE",
"233 392 CURVE SMOOTH",
"117 392 OFFCURVE",
"50 302 OFFCURVE",
"50 193 CURVE SMOOTH",
"50 90 OFFCURVE",
"117 -3 OFFCURVE",
"233 -3 CURVE SMOOTH",
"349 -3 OFFCURVE",
"416 88 OFFCURVE",
"416 193 CURVE SMOOTH"
);
},
{
closed = 1;
nodes = (
"359 102 OFFCURVE",
"308 51 OFFCURVE",
"233 51 CURVE SMOOTH",
"158 51 OFFCURVE",
"107 100 OFFCURVE",
"107 193 CURVE SMOOTH",
"107 287 OFFCURVE",
"158 338 OFFCURVE",
"233 338 CURVE SMOOTH",
"308 338 OFFCURVE",
"359 289 OFFCURVE",
"359 193 CURVE SMOOTH"
);
}
);
width = 500;
}
);
unicode = 006F;
},
{
glyphname = oslash;
lastChange = "2018-05-04 18:19:02 +0000";
layers = (
{
components = (
{
name = o;
}
);
layerId = "85099F7B-7F46-42FC-B840-CDE30C82BCDD";
paths = (
{
closed = 1;
nodes = (
"380 384 LINE",
"79 0 LINE",
"136 0 LINE",
"437 384 LINE"
);
}
);
width = 500;
}
);
unicode = 00F8;
},
{
glyphname = oe;
lastChange = "2018-05-09 16:09:25 +0000";
layers = (
{
layerId = "85099F7B-7F46-42FC-B840-CDE30C82BCDD";
paths = (
{
closed = 1;
nodes = (
"488 173 LINE",
"488 220 LINE",
"486 325 OFFCURVE",
"419 393 OFFCURVE",
"309 393 CURVE",
"196 392 LINE",
"80 392 OFFCURVE",
"13 300 OFFCURVE",
"13 191 CURVE",
"13 88 OFFCURVE",
"80 -5 OFFCURVE",
"196 -5 CURVE",
"321 -4 LINE",
"403 -4 OFFCURVE",
"434 27 OFFCURVE",
"457 48 CURVE",
"457 102 LINE",
"429 75 OFFCURVE",
"406 51 OFFCURVE",
"328 50 CURVE",
"326 50 OFFCURVE",
"324 50 OFFCURVE",
"322 50 CURVE",
"300 50 OFFCURVE",
"279 55 OFFCURVE",
"260 64 CURVE",
"217 85 OFFCURVE",
"186 126 OFFCURVE",
"186 173 CURVE",
"321 173 LINE",
"378 173 LINE"
);
},
{
closed = 1;
nodes = (
"70 277 OFFCURVE",
"113 327 OFFCURVE",
"177 335 CURVE",
"147 299 OFFCURVE",
"130 249 OFFCURVE",
"130 195 CURVE",
"130 140 OFFCURVE",
"149 87 OFFCURVE",
"186 49 CURVE",
"116 54 OFFCURVE",
"70 102 OFFCURVE",
"70 191 CURVE"
);
},
{
closed = 1;
nodes = (
"188 280 OFFCURVE",
"215 311 OFFCURVE",
"247 327 CURVE",
"268 337 OFFCURVE",
"290 340 OFFCURVE",
"309 340 CURVE",
"313 340 OFFCURVE",
"318 340 OFFCURVE",
"322 339 CURVE",
"378 336 OFFCURVE",
"431 311 OFFCURVE",
"431 220 CURVE",
"421 220 LINE",
"377 220 LINE",
"320 220 LINE",
"187 220 LINE"
);
}
);
width = 500;
}
);
unicode = 0153;
},
{
glyphname = p;
lastChange = "2018-06-29 11:15:57 +0000";
layers = (
{
layerId = "85099F7B-7F46-42FC-B840-CDE30C82BCDD";
paths = (
{
closed = 1;
nodes = (
"132 197 LINE",
"133 315 LINE",
"139 351 LINE",
"139 384 LINE",
"75 384 LINE",
"75 -149 LINE",
"132 -149 LINE"
);
},
{
closed = 1;
nodes = (
"441 300 OFFCURVE",
"374 395 OFFCURVE",
"258 395 CURVE SMOOTH",
"142 395 OFFCURVE",
"105 306 OFFCURVE",
"105 197 CURVE SMOOTH",
"105 94 OFFCURVE",
"142 1 OFFCURVE",
"258 1 CURVE SMOOTH",
"374 1 OFFCURVE",
"441 91 OFFCURVE",
"441 196 CURVE SMOOTH"
);
},
{
closed = 1;
nodes = (
"384 106 OFFCURVE",
"333 54 OFFCURVE",
"258 54 CURVE SMOOTH",
"183 54 OFFCURVE",
"132 103 OFFCURVE",
"132 197 CURVE SMOOTH",
"132 291 OFFCURVE",
"183 342 OFFCURVE",
"258 342 CURVE SMOOTH",
"333 342 OFFCURVE",
"384 292 OFFCURVE",
"384 196 CURVE SMOOTH"
);
}
);
width = 500;
}
);
unicode = 0070;
},
{
glyphname = thorn;
lastChange = "2018-05-03 13:42:28 +0000";
layers = (
{
layerId = "85099F7B-7F46-42FC-B840-CDE30C82BCDD";
paths = (
{
closed = 1;
nodes = (
"132 197 LINE",
"133 315 LINE",
"123 315 LINE",
"139 351 LINE",
"139 545 LINE",
"75 545 LINE",
"75 -91 LINE",
"132 -91 LINE"
);
},
{
closed = 1;
nodes = (
"441 300 OFFCURVE",
"374 395 OFFCURVE",
"258 395 CURVE SMOOTH",
"142 395 OFFCURVE",
"105 306 OFFCURVE",
"105 197 CURVE SMOOTH",
"105 94 OFFCURVE",
"142 1 OFFCURVE",
"258 1 CURVE SMOOTH",
"374 1 OFFCURVE",
"441 91 OFFCURVE",
"441 196 CURVE SMOOTH"
);
},
{
closed = 1;
nodes = (
"384 106 OFFCURVE",
"333 54 OFFCURVE",
"258 54 CURVE SMOOTH",
"183 54 OFFCURVE",
"132 103 OFFCURVE",
"132 197 CURVE SMOOTH",
"132 291 OFFCURVE",
"183 342 OFFCURVE",
"258 342 CURVE SMOOTH",
"333 342 OFFCURVE",
"384 292 OFFCURVE",
"384 196 CURVE SMOOTH"
);
}
);
width = 500;
}
);
unicode = 00FE;
},
{
glyphname = q;
lastChange = "2017-12-07 11:36:20 +0000";
layers = (
{
layerId = "85099F7B-7F46-42FC-B840-CDE30C82BCDD";
paths = (
{
closed = 1;
nodes = (
"433 -150 LINE",
"433 383 LINE",
"376 383 LINE",
"376 -150 LINE"
);
},
{
closed = 1;
nodes = (
"67 90 OFFCURVE",
"134 0 OFFCURVE",
"250 0 CURVE SMOOTH",
"366 0 OFFCURVE",
"403 93 OFFCURVE",
"403 196 CURVE SMOOTH",
"403 305 OFFCURVE",
"366 394 OFFCURVE",
"250 394 CURVE SMOOTH",
"134 394 OFFCURVE",
"67 299 OFFCURVE",
"67 195 CURVE SMOOTH"
);
},
{
closed = 1;
nodes = (
"124 291 OFFCURVE",
"175 341 OFFCURVE",
"250 341 CURVE SMOOTH",
"325 341 OFFCURVE",
"376 290 OFFCURVE",
"376 196 CURVE SMOOTH",
"376 102 OFFCURVE",
"325 53 OFFCURVE",
"250 53 CURVE SMOOTH",
"175 53 OFFCURVE",
"124 105 OFFCURVE",
"124 195 CURVE SMOOTH"
);
}
);
width = 500;
}
);
unicode = 0071;
},
{
glyphname = r;
lastChange = "2018-05-10 09:27:28 +0000";
layers = (
{
layerId = "85099F7B-7F46-42FC-B840-CDE30C82BCDD";
paths = (
{
closed = 1;
nodes = (
"403 381 LINE",
"387 387 OFFCURVE",
"375 391 OFFCURVE",
"350 391 CURVE SMOOTH",
"263 391 OFFCURVE",
"215 346 OFFCURVE",
"193 271 CURVE",
"188 271 LINE",
"190 384 LINE",
"134 384 LINE",
"134 0 LINE",
"190 0 LINE",
"190 163 LINE",
"190 257 OFFCURVE",
"255 337 OFFCURVE",
"343 337 CURVE SMOOTH",
"369 337 OFFCURVE",
"386 335 OFFCURVE",
"403 324 CURVE"
);
}
);
width = 500;
}
);
unicode = 0072;
},
{
glyphname = s;
lastChange = "2018-05-15 15:20:16 +0000";
layers = (
{
layerId = "85099F7B-7F46-42FC-B840-CDE30C82BCDD";
paths = (
{
closed = 1;
nodes = (
"151 317 OFFCURVE",
"195 333 OFFCURVE",
"250 333 CURVE SMOOTH",
"291 333 OFFCURVE",
"360 319 OFFCURVE",
"375 283 CURVE",
"373 339 LINE",
"353 378 OFFCURVE",
"292 389 OFFCURVE",
"250 389 CURVE SMOOTH",
"145 389 OFFCURVE",
"95 320 OFFCURVE",
"95 270 CURVE SMOOTH",
"95 169 OFFCURVE",
"187 176 OFFCURVE",
"250 169 CURVE SMOOTH",
"304 163 OFFCURVE",
"343 172 OFFCURVE",
"343 116 CURVE",
"343 75 OFFCURVE",
"298 54 OFFCURVE",
"244 54 CURVE SMOOTH",
"187 54 OFFCURVE",
"121 89 OFFCURVE",
"107 114 CURVE",
"107 57 LINE",
"127 32 OFFCURVE",
"174 -2 OFFCURVE",
"244 -2 CURVE SMOOTH",
"349 -2 OFFCURVE",
"399 54 OFFCURVE",
"399 116 CURVE SMOOTH",
"399 220 OFFCURVE",
"321 217 OFFCURVE",
"250 225 CURVE SMOOTH",
"205 230 OFFCURVE",
"151 226 OFFCURVE",
"151 270 CURVE SMOOTH"
);
}
);
width = 500;
}
);
unicode = 0073;
},
{
glyphname = germandbls;
lastChange = "2018-05-04 18:24:22 +0000";
layers = (
{
layerId = "85099F7B-7F46-42FC-B840-CDE30C82BCDD";
paths = (
{
closed = 1;
nodes = (
"251 0 LINE",
"372 0 OFFCURVE",
"450 82 OFFCURVE",
"450 166 CURVE SMOOTH",
"450 274 OFFCURVE",
"362 290 OFFCURVE",
"355 290 CURVE",
"355 292 LINE",
"362 292 OFFCURVE",
"421 316 OFFCURVE",
"421 392 CURVE SMOOTH",
"421 466 OFFCURVE",
"372 545 OFFCURVE",
"251 545 CURVE SMOOTH",
"130 545 OFFCURVE",
"85 466 OFFCURVE",
"85 380 CURVE",
"143 380 LINE",
"143 430 OFFCURVE",
"164 491 OFFCURVE",
"251 491 CURVE SMOOTH",
"343 491 OFFCURVE",
"364 430 OFFCURVE",
"364 392 CURVE SMOOTH",
"364 329 OFFCURVE",
"321 316 OFFCURVE",
"257 316 CURVE",
"257 255 LINE",
"333 255 OFFCURVE",
"392 247 OFFCURVE",
"392 165 CURVE SMOOTH",
"392 125 OFFCURVE",
"365 56 OFFCURVE",
"251 56 CURVE"
);
},
{
closed = 1;
nodes = (
"85 0 LINE",
"143 0 LINE",
"143 380 LINE",
"85 380 LINE"
);
}
);
width = 500;
}
);
unicode = 00DF;
},
{
glyphname = t;
lastChange = "2018-05-10 09:23:41 +0000";
layers = (
{
layerId = "85099F7B-7F46-42FC-B840-CDE30C82BCDD";
paths = (
{
closed = 1;
nodes = (
"165 331 LINE",
"171 325 LINE",
"171 0 LINE",
"227 0 LINE",
"227 325 LINE",
"233 331 LINE",
"346 331 LINE",
"406 384 LINE",
"233 384 LINE",
"227 390 LINE",
"227 523 LINE",
"171 482 LINE",
"171 390 LINE",
"165 384 LINE",
"94 384 LINE",
"94 331 LINE"
);
}
);
width = 500;
}
);
unicode = 0074;
},
{
glyphname = tbar;
lastChange = "2018-05-04 18:17:40 +0000";
layers = (
{
components = (
{
name = t;
}
);
layerId = "85099F7B-7F46-42FC-B840-CDE30C82BCDD";
paths = (
{
closed = 1;
nodes = (
"406 229 LINE",
"346 176 LINE",
"227 176 LINE",
"227 229 LINE"
);
},
{
closed = 1;
nodes = (
"94 229 LINE",
"94 176 LINE",
"171 176 LINE",
"171 229 LINE"
);
},
{
closed = 1;
nodes = (
"171 229 LINE",
"171 235 LINE",
"165 229 LINE"
);
},
{
closed = 1;
nodes = (
"227 235 LINE",
"227 229 LINE",
"233 229 LINE"
);
},
{
closed = 1;
nodes = (
"171 170 LINE",
"171 176 LINE",
"165 176 LINE"
);
},
{
closed = 1;
nodes = (
"227 176 LINE",
"227 170 LINE",
"233 176 LINE"
);
}
);
width = 500;
}
);
unicode = 0167;
},
{
glyphname = u;
lastChange = "2018-05-15 15:22:45 +0000";
layers = (
{
layerId = "85099F7B-7F46-42FC-B840-CDE30C82BCDD";
paths = (
{
closed = 0;
nodes = (
"93 384 LINE"
);
},
{
closed = 1;
nodes = (
"93 53 OFFCURVE",
"158 0 OFFCURVE",
"247 0 CURVE",
"336 0 OFFCURVE",
"406 50 OFFCURVE",
"406 155 CURVE",
"406 384 LINE",
"350 384 LINE",
"350 153 LINE",
"350 99 OFFCURVE",
"320 54 OFFCURVE",
"250 54 CURVE",
"180 58 OFFCURVE",
"149 100 OFFCURVE",
"149 154 CURVE",
"149 384 LINE",
"93 384 LINE",
"93 155 LINE"
);
}
);
width = 500;
}
);
unicode = 0075;
},
{
glyphname = v;
lastChange = "2017-12-07 11:36:20 +0000";
layers = (
{
layerId = "85099F7B-7F46-42FC-B840-CDE30C82BCDD";
paths = (
{
closed = 1;
nodes = (
"279 0 LINE",
"449 384 LINE",
"391 384 LINE",
"222 0 LINE"
);
},
{
closed = 1;
nodes = (
"110 384 LINE",
"52 384 LINE",
"222 0 LINE",
"279 0 LINE"
);
}
);
width = 500;
}
);
unicode = 0076;
},
{
glyphname = w;
lastChange = "2018-05-04 13:22:13 +0000";
layers = (
{
layerId = "85099F7B-7F46-42FC-B840-CDE30C82BCDD";
paths = (
{
closed = 1;
nodes = (
"228 384 LINE",
"124 0 LINE",
"169 0 LINE",
"273 384 LINE"
);
},
{
closed = 1;
nodes = (
"113 0 LINE",
"169 0 LINE",
"85 384 LINE",
"29 384 LINE"
);
},
{
closed = 1;
nodes = (
"332 0 LINE",
"377 0 LINE",
"273 384 LINE",
"228 384 LINE"
);
},
{
closed = 1;
nodes = (
"416 384 LINE",
"332 0 LINE",
"388 0 LINE",
"472 384 LINE"
);
}
);
width = 500;
}
);
unicode = 0077;
},
{
glyphname = x;
lastChange = "2017-12-07 11:36:20 +0000";
layers = (
{
layerId = "85099F7B-7F46-42FC-B840-CDE30C82BCDD";
paths = (
{
closed = 1;
nodes = (
"366 384 LINE",
"67 0 LINE",
"134 0 LINE",
"433 384 LINE"
);
},
{
closed = 1;
nodes = (
"363 0 LINE SMOOTH",
"430 0 LINE",
"149 384 LINE",
"82 384 LINE"
);
}
);
width = 500;
}
);
unicode = 0078;
},
{
glyphname = y;
lastChange = "2017-12-07 11:36:20 +0000";
layers = (
{
layerId = "85099F7B-7F46-42FC-B840-CDE30C82BCDD";
paths = (
{
closed = 1;
nodes = (
"212 -153 LINE",
"449 382 LINE",
"391 382 LINE",
"155 -153 LINE"
);
},
{
closed = 1;
nodes = (
"110 382 LINE",
"52 382 LINE",
"222 -1 LINE",
"279 -1 LINE"
);
}
);
width = 500;
}
);
unicode = 0079;
},
{
glyphname = z;
lastChange = "2017-12-07 11:36:20 +0000";
layers = (
{
layerId = "85099F7B-7F46-42FC-B840-CDE30C82BCDD";
paths = (
{
closed = 1;
nodes = (
"421 54 LINE",
"153 54 LINE",
"423 330 LINE",
"423 384 LINE",
"86 384 LINE",
"86 330 LINE",
"348 330 LINE",
"78 54 LINE",
"78 0 LINE",
"421 0 LINE"
);
}
);
width = 500;
}
);
unicode = 007A;
},
{
glyphname = a.ss01;
lastChange = "2018-05-10 09:11:33 +0000";
layers = (
{
layerId = "85099F7B-7F46-42FC-B840-CDE30C82BCDD";
paths = (
{
closed = 1;
nodes = (
"393 329 LINE",
"393 384 LINE",
"98 384 LINE",
"98 329 LINE"
);
},
{
closed = 1;
nodes = (
"393 1 LINE",
"393 384 LINE",
"337 384 LINE",
"337 1 LINE"
);
},
{
closed = 1;
nodes = (
"393 0 LINE",
"393 55 LINE",
"99 55 LINE",
"99 0 LINE"
);
},
{
closed = 1;
nodes = (
"392 166 LINE",
"392 218 LINE",
"99 218 LINE",
"99 166 LINE"
);
},
{
closed = 1;
nodes = (
"155 0 LINE",
"155 200 LINE",
"99 200 LINE",
"99 0 LINE"
);
},
{
closed = 1;
nodes = (
"155 62 LINE",
"155 55 LINE",
"161 55 LINE"
);
},
{
closed = 1;
nodes = (
"155 166 LINE",
"155 159 LINE",
"161 166 LINE"
);
},
{
closed = 1;
nodes = (
"337 218 LINE",
"337 225 LINE",
"331 218 LINE"
);
},
{
closed = 1;
nodes = (
"338 322 LINE",
"338 329 LINE",
"332 329 LINE"
);
},
{
closed = 1;
nodes = (
"337 55 LINE",
"337 62 LINE",
"331 55 LINE"
);
},
{
closed = 1;
nodes = (
"337 159 LINE",
"337 166 LINE",
"331 166 LINE"
);
}
);
width = 500;
}
);
},
{
glyphname = b.ss01;
lastChange = "2018-05-10 09:26:26 +0000";
layers = (
{
layerId = "85099F7B-7F46-42FC-B840-CDE30C82BCDD";
paths = (
{
closed = 1;
nodes = (
"73 534 LINE",
"73 0 LINE",
"130 0 LINE",
"130 534 LINE"
);
},
{
closed = 1;
nodes = (
"349 384 LINE",
"349 0 LINE",
"405 0 LINE",
"405 384 LINE"
);
},
{
closed = 1;
nodes = (
"73 54 LINE",
"73 0 LINE",
"401 0 LINE",
"401 54 LINE"
);
},
{
closed = 1;
nodes = (
"130 60 LINE",
"130 54 LINE",
"136 54 LINE"
);
},
{
closed = 1;
nodes = (
"349 54 LINE",
"349 60 LINE",
"343 54 LINE"
);
},
{
closed = 1;
nodes = (
"119 384 LINE",
"119 330 LINE",
"404 330 LINE",
"404 384 LINE"
);
},
{
closed = 1;
nodes = (
"349 324 LINE",
"349 330 LINE",
"343 330 LINE"
);
},
{
closed = 1;
nodes = (
"130 330 LINE",
"130 324 LINE",
"136 330 LINE"
);
}
);
width = 500;
}
);
},
{
glyphname = c.ss01;
lastChange = "2018-05-10 09:00:49 +0000";
layers = (
{
layerId = "85099F7B-7F46-42FC-B840-CDE30C82BCDD";
paths = (
{
closed = 1;
nodes = (
"398 384 LINE",
"89 384 LINE",
"89 330 LINE",
"398 330 LINE"
);
},
{
closed = 1;
nodes = (
"145 330 LINE",
"145 324 LINE",
"151 330 LINE"
);
},
{
closed = 1;
nodes = (
"145 60 LINE",
"145 54 LINE",
"151 54 LINE"
);
},
{
closed = 1;
nodes = (
"398 54 LINE",
"89 54 LINE",
"89 0 LINE",
"398 0 LINE"
);
},
{
closed = 1;
nodes = (
"145 384 LINE",
"89 384 LINE",
"89 13 LINE",
"145 13 LINE"
);
}
);
width = 500;
}
);
},
{
glyphname = d.ss01;
lastChange = "2018-05-10 09:26:33 +0000";
layers = (
{
layerId = "85099F7B-7F46-42FC-B840-CDE30C82BCDD";
paths = (
{
closed = 1;
nodes = (
"370 0 LINE",
"427 0 LINE",
"427 534 LINE",
"370 534 LINE"
);
},
{
closed = 1;
nodes = (
"95 0 LINE",
"151 0 LINE",
"151 384 LINE",
"95 384 LINE"
);
},
{
closed = 1;
nodes = (
"99 0 LINE",
"427 0 LINE",
"427 54 LINE",
"99 54 LINE"
);
},
{
closed = 1;
nodes = (
"370 54 LINE",
"370 60 LINE",
"364 54 LINE"
);
},
{
closed = 1;
nodes = (
"151 60 LINE",
"151 54 LINE",
"157 54 LINE"
);
},
{
closed = 1;
nodes = (
"96 330 LINE",
"381 330 LINE",
"381 384 LINE",
"96 384 LINE"
);
},
{
closed = 1;
nodes = (
"151 330 LINE",
"151 324 LINE",
"157 330 LINE"
);
},
{
closed = 1;
nodes = (
"370 324 LINE",
"370 330 LINE",
"364 330 LINE"
);
}
);
width = 500;
}
);
},
{
glyphname = e.ss01;
lastChange = "2018-05-09 18:25:20 +0000";
layers = (
{
layerId = "85099F7B-7F46-42FC-B840-CDE30C82BCDD";
paths = (
{
closed = 1;
nodes = (
"403 384 LINE",
"94 384 LINE",
"94 330 LINE",
"403 330 LINE"
);
},
{
closed = 1;
nodes = (
"150 330 LINE",
"150 324 LINE",
"156 330 LINE"
);
},
{
closed = 1;
nodes = (
"150 60 LINE",
"150 54 LINE",
"156 54 LINE"
);
},
{
closed = 1;
nodes = (
"403 54 LINE",
"94 54 LINE",
"94 0 LINE",
"403 0 LINE"
);
},
{
closed = 1;
nodes = (
"404 235 LINE",
"95 235 LINE",
"95 181 LINE",
"404 181 LINE"
);
},
{
closed = 1;
nodes = (
"404 373 LINE",
"348 373 LINE",
"348 197 LINE",
"404 197 LINE"
);
},
{
closed = 1;
nodes = (
"150 241 LINE",
"150 235 LINE",
"156 235 LINE"
);
},
{
closed = 1;
nodes = (
"348 324 LINE",
"348 330 LINE",
"342 330 LINE"
);
},
{
closed = 1;
nodes = (
"348 235 LINE",
"348 241 LINE",
"342 235 LINE"
);
},
{
closed = 1;
nodes = (
"150 384 LINE",
"94 384 LINE",
"94 13 LINE",
"150 13 LINE"
);
}
);
width = 500;
}
);
},
{
glyphname = f.ss01;
lastChange = "2018-05-09 18:19:59 +0000";
layers = (
{
layerId = "85099F7B-7F46-42FC-B840-CDE30C82BCDD";
paths = (
{
closed = 1;
nodes = (
"410 492 LINE",
"410 545 LINE",
"203 545 LINE",
"203 384 LINE",
"138 384 LINE",
"78 331 LINE",
"203 331 LINE",
"203 0 LINE",
"259 0 LINE",
"259 331 LINE",
"350 331 LINE",
"410 384 LINE",
"259 384 LINE",
"259 492 LINE"
);
},
{
closed = 0;
nodes = (
"259 0 LINE"
);
},
{
closed = 0;
nodes = (
"203 0 LINE"
);
},
{
closed = 0;
nodes = (
"259 384 LINE"
);
},
{
closed = 0;
nodes = (
"203 384 LINE"
);
},
{
closed = 1;
nodes = (
"203 384 LINE",
"203 390 LINE",
"197 384 LINE"
);
},
{
closed = 1;
nodes = (
"259 390 LINE",
"259 384 LINE",
"265 384 LINE"
);
},
{
closed = 0;
nodes = (
"259 331 LINE"
);
},
{
closed = 0;
nodes = (
"203 331 LINE"
);
},
{
closed = 1;
nodes = (
"203 325 LINE",
"203 331 LINE",
"197 331 LINE"
);
},
{
closed = 1;
nodes = (
"259 331 LINE",
"259 325 LINE",
"265 331 LINE"
);
},
{
closed = 1;
nodes = (
"259 492 LINE",
"259 486 LINE",
"265 492 LINE"
);
}
);
width = 500;
}
);
},
{
glyphname = g.ss01;
lastChange = "2017-12-07 11:36:20 +0000";
layers = (
{
layerId = "85099F7B-7F46-42FC-B840-CDE30C82BCDD";
paths = (
{
closed = 1;
nodes = (
"433 300 OFFCURVE",
"366 395 OFFCURVE",
"250 395 CURVE SMOOTH",
"134 395 OFFCURVE",
"67 305 OFFCURVE",
"67 197 CURVE SMOOTH",
"67 94 OFFCURVE",
"134 0 OFFCURVE",
"250 0 CURVE SMOOTH",
"366 0 OFFCURVE",
"433 91 OFFCURVE",
"433 196 CURVE SMOOTH"
);
},
{
closed = 1;
nodes = (
"376 106 OFFCURVE",
"325 54 OFFCURVE",
"250 54 CURVE SMOOTH",
"175 54 OFFCURVE",
"124 103 OFFCURVE",
"124 197 CURVE SMOOTH",
"124 290 OFFCURVE",
"175 342 OFFCURVE",
"250 342 CURVE SMOOTH",
"325 342 OFFCURVE",
"376 292 OFFCURVE",
"376 196 CURVE SMOOTH"
);
},
{
closed = 1;
nodes = (
"376 384 LINE",
"376 -150 LINE",
"433 -150 LINE",
"433 384 LINE"
);
},
{
closed = 1;
nodes = (
"123 -97 LINE",
"123 -150 LINE",
"433 -150 LINE",
"433 -97 LINE"
);
}
);
width = 500;
}
);
},
{
glyphname = h.ss01;
lastChange = "2018-05-10 09:28:19 +0000";
layers = (
{
layerId = "85099F7B-7F46-42FC-B840-CDE30C82BCDD";
paths = (
{
closed = 1;
nodes = (
"134 545 LINE",
"78 545 LINE",
"78 0 LINE",
"134 0 LINE"
);
},
{
closed = 1;
nodes = (
"411 384 LINE",
"355 384 LINE",
"355 0 LINE",
"411 0 LINE"
);
},
{
closed = 1;
nodes = (
"407 384 LINE",
"78 384 LINE",
"78 330 LINE",
"407 330 LINE"
);
},
{
closed = 1;
nodes = (
"134 330 LINE",
"134 324 LINE",
"140 330 LINE"
);
},
{
closed = 1;
nodes = (
"355 324 LINE",
"355 330 LINE",
"349 330 LINE"
);
},
{
closed = 1;
nodes = (
"133 390 LINE",
"133 384 LINE",
"139 384 LINE"
);
}
);
width = 500;
}
);
},
{
glyphname = i.ss01;
lastChange = "2018-05-09 18:20:27 +0000";
layers = (
{
layerId = "85099F7B-7F46-42FC-B840-CDE30C82BCDD";
paths = (
{
closed = 1;
nodes = (
"286 384 LINE",
"167 384 LINE",
"107 330 LINE",
"229 330 LINE",
"229 0 LINE",
"286 0 LINE"
);
},
{
closed = 1;
nodes = (
"229 324 LINE",
"229 330 LINE",
"223 330 LINE"
);
},
{
closed = 1;
nodes = (
"279 445 OFFCURVE",
"302 467 OFFCURVE",
"302 494 CURVE SMOOTH",
"302 523 OFFCURVE",
"279 545 OFFCURVE",
"253 545 CURVE SMOOTH",
"225 545 OFFCURVE",
"202 523 OFFCURVE",
"202 494 CURVE SMOOTH",
"202 467 OFFCURVE",
"225 445 OFFCURVE",
"253 445 CURVE SMOOTH"
);
}
);
width = 500;
}
);
},
{
glyphname = j.ss01;
lastChange = "2018-05-09 14:05:54 +0000";
layers = (
{
layerId = "85099F7B-7F46-42FC-B840-CDE30C82BCDD";
paths = (
{
closed = 1;
nodes = (
"353 449 OFFCURVE",
"371 474 OFFCURVE",
"371 498 CURVE SMOOTH",
"371 527 OFFCURVE",
"349 549 OFFCURVE",
"322 549 CURVE SMOOTH",
"293 549 OFFCURVE",
"271 527 OFFCURVE",
"271 498 CURVE SMOOTH",
"271 471 OFFCURVE",
"293 449 OFFCURVE",
"322 449 CURVE SMOOTH"
);
},
{
closed = 1;
nodes = (
"355 -153 LINE",
"355 384 LINE",
"298 384 LINE",
"298 -153 LINE"
);
},
{
closed = 1;
nodes = (
"109 331 LINE",
"354 331 LINE",
"354 384 LINE",
"169 384 LINE"
);
},
{
closed = 1;
nodes = (
"109 -153 LINE",
"354 -153 LINE",
"354 -100 LINE",
"169 -100 LINE"
);
},
{
closed = 1;
nodes = (
"298 324 LINE",
"298 331 LINE",
"292 331 LINE"
);
},
{
closed = 1;
nodes = (
"298 -100 LINE",
"298 -93 LINE",
"292 -100 LINE"
);
}
);
width = 500;
}
);
},
{
glyphname = k.ss01;
lastChange = "2018-05-10 09:29:47 +0000";
layers = (
{
layerId = "85099F7B-7F46-42FC-B840-CDE30C82BCDD";
paths = (
{
closed = 1;
nodes = (
"193 545 LINE",
"99 545 LINE",
"99 492 LINE",
"136 492 LINE",
"136 0 LINE",
"193 0 LINE"
);
},
{
closed = 1;
nodes = (
"136 485 LINE",
"136 492 LINE",
"130 492 LINE"
);
},
{
closed = 1;
nodes = (
"450 259 LINE",
"394 259 LINE",
"375 0 LINE",
"431 0 LINE"
);
},
{
closed = 1;
nodes = (
"446 259 LINE",
"137 259 LINE",
"137 205 LINE",
"446 205 LINE"
);
},
{
closed = 1;
nodes = (
"193 205 LINE",
"193 199 LINE",
"199 205 LINE"
);
},
{
closed = 1;
nodes = (
"394 199 LINE",
"394 205 LINE",
"388 205 LINE"
);
},
{
closed = 1;
nodes = (
"450 384 LINE",
"383 384 LINE",
"302 250 LINE",
"369 250 LINE"
);
}
);
width = 500;
}
);
},
{
glyphname = l.ss01;
lastChange = "2017-12-07 11:36:20 +0000";
layers = (
{
layerId = "85099F7B-7F46-42FC-B840-CDE30C82BCDD";
paths = (
{
closed = 1;
nodes = (
"278 492 LINE",
"278 545 LINE",
"81 545 LINE",
"81 492 LINE",
"221 492 LINE",
"221 50 LINE",
"49 50 LINE",
"49 0 LINE",
"450 0 LINE",
"450 50 LINE",
"278 50 LINE"
);
},
{
closed = 1;
nodes = (
"221 50 LINE",
"221 56 LINE",
"215 50 LINE"
);
},
{
closed = 1;
nodes = (
"278 56 LINE",
"278 50 LINE",
"284 50 LINE"
);
},
{
closed = 1;
nodes = (
"221 485 LINE",
"221 492 LINE",
"215 492 LINE"
);
}
);
width = 500;
}
);
},
{
glyphname = m.ss01;
lastChange = "2018-05-09 15:23:01 +0000";
layers = (
{
layerId = "85099F7B-7F46-42FC-B840-CDE30C82BCDD";
paths = (
{
closed = 1;
nodes = (
"135 128 OFFCURVE",
"135 256 OFFCURVE",
"135 384 CURVE",
"79 384 LINE",
"79 0 LINE",
"135 0 LINE"
);
},
{
closed = 0;
nodes = (
"79 384 LINE",
"79 0 LINE"
);
},
{
closed = 1;
nodes = (
"279 384 LINE",
"222 384 LINE",
"222 0 LINE",
"279 0 LINE"
);
},
{
closed = 1;
nodes = (
"422 384 LINE",
"79 384 LINE",
"79 329 LINE",
"422 329 LINE"
);
},
{
closed = 1;
nodes = (
"422 384 LINE",
"366 384 LINE",
"366 0 LINE",
"422 0 LINE"
);
},
{
closed = 1;
nodes = (
"135 329 LINE",
"135 323 LINE",
"141 329 LINE"
);
},
{
closed = 1;
nodes = (
"222 323 LINE",
"222 329 LINE",
"216 329 LINE"
);
},
{
closed = 1;
nodes = (
"279 329 LINE",
"279 323 LINE",
"285 329 LINE"
);
},
{
closed = 1;
nodes = (
"366 323 LINE",
"366 329 LINE",
"360 329 LINE"
);
},
{
closed = 1;
nodes = (
"135 384 LINE",
"79 384 LINE",
"79 0 LINE",
"135 0 LINE"
);
}
);
width = 500;
}
);
},
{
glyphname = n.ss01;
lastChange = "2018-05-10 09:27:53 +0000";
layers = (
{
layerId = "85099F7B-7F46-42FC-B840-CDE30C82BCDD";
paths = (
{
closed = 1;
nodes = (
"135 384 LINE",
"79 384 LINE",
"79 0 LINE",
"135 0 LINE"
);
},
{
closed = 1;
nodes = (
"392 384 LINE",
"336 384 LINE",
"336 0 LINE",
"392 0 LINE"
);
},
{
closed = 1;
nodes = (
"388 384 LINE",
"79 384 LINE",
"79 330 LINE",
"388 330 LINE"
);
},
{
closed = 1;
nodes = (
"135 330 LINE",
"135 324 LINE",
"141 330 LINE"
);
},
{
closed = 1;
nodes = (
"336 324 LINE",
"336 330 LINE",
"330 330 LINE"
);
}
);
width = 500;
}
);
},
{
glyphname = o.ss01;
lastChange = "2018-05-09 18:24:58 +0000";
layers = (
{
layerId = "85099F7B-7F46-42FC-B840-CDE30C82BCDD";
paths = (
{
closed = 1;
nodes = (
"403 384 LINE",
"94 384 LINE",
"94 330 LINE",
"403 330 LINE"
);
},
{
closed = 1;
nodes = (
"150 330 LINE",
"150 324 LINE",
"156 330 LINE"
);
},
{
closed = 1;
nodes = (
"351 324 LINE",
"351 330 LINE",
"345 330 LINE"
);
},
{
closed = 1;
nodes = (
"94 54 LINE",
"94 0 LINE",
"403 0 LINE",
"403 54 LINE"
);
},
{
closed = 1;
nodes = (
"150 60 LINE",
"150 54 LINE",
"156 54 LINE"
);
},
{
closed = 1;
nodes = (
"351 54 LINE",
"351 60 LINE",
"345 54 LINE"
);
},
{
closed = 1;
nodes = (
"403 384 LINE",
"347 384 LINE",
"347 0 LINE",
"403 0 LINE"
);
},
{
closed = 1;
nodes = (
"403 384 LINE",
"94 384 LINE",
"94 330 LINE",
"403 330 LINE"
);
},
{
closed = 1;
nodes = (
"150 330 LINE",
"150 324 LINE",
"156 330 LINE"
);
},
{
closed = 1;
nodes = (
"351 324 LINE",
"351 330 LINE",
"345 330 LINE"
);
},
{
closed = 1;
nodes = (
"150 384 LINE",
"94 384 LINE",
"94 0 LINE",
"150 0 LINE"
);
}
);
width = 500;
}
);
},
{
glyphname = p.ss01;
lastChange = "2018-05-09 14:10:54 +0000";
layers = (
{
layerId = "85099F7B-7F46-42FC-B840-CDE30C82BCDD";
paths = (
{
closed = 1;
nodes = (
"131 384 LINE",
"75 384 LINE",
"76 -153 LINE",
"132 -153 LINE"
);
},
{
closed = 1;
nodes = (
"410 384 LINE",
"354 384 LINE",
"354 0 LINE",
"410 0 LINE"
);
},
{
closed = 1;
nodes = (
"406 384 LINE",
"76 384 LINE",
"76 330 LINE",
"406 330 LINE"
);
},
{
closed = 1;
nodes = (
"131 330 LINE",
"131 324 LINE",
"137 330 LINE"
);
},
{
closed = 1;
nodes = (
"354 324 LINE",
"354 330 LINE",
"348 330 LINE"
);
},
{
closed = 1;
nodes = (
"409 54 LINE",
"168 54 LINE",
"168 0 LINE",
"409 0 LINE"
);
},
{
closed = 1;
nodes = (
"354 54 LINE",
"354 60 LINE",
"348 54 LINE"
);
}
);
width = 500;
}
);
},
{
glyphname = q.ss01;
lastChange = "2018-05-09 14:10:33 +0000";
layers = (
{
layerId = "85099F7B-7F46-42FC-B840-CDE30C82BCDD";
paths = (
{
closed = 1;
nodes = (
"426 -153 LINE",
"427 384 LINE",
"371 384 LINE",
"370 -153 LINE"
);
},
{
closed = 1;
nodes = (
"146 0 LINE",
"146 384 LINE",
"90 384 LINE",
"90 0 LINE"
);
},
{
closed = 1;
nodes = (
"426 330 LINE",
"426 384 LINE",
"94 384 LINE",
"94 330 LINE"
);
},
{
closed = 1;
nodes = (
"370 324 LINE",
"370 330 LINE",
"364 330 LINE"
);
},
{
closed = 1;
nodes = (
"146 330 LINE",
"146 324 LINE",
"152 330 LINE"
);
},
{
closed = 1;
nodes = (
"334 0 LINE",
"334 54 LINE",
"91 54 LINE",
"91 0 LINE"
);
},
{
closed = 1;
nodes = (
"146 60 LINE",
"146 54 LINE",
"152 54 LINE"
);
}
);
width = 500;
}
);
},
{
glyphname = r.ss01;
lastChange = "2018-05-10 09:27:24 +0000";
layers = (
{
layerId = "85099F7B-7F46-42FC-B840-CDE30C82BCDD";
paths = (
{
closed = 1;
nodes = (
"392 384 LINE",
"134 384 LINE",
"134 329 LINE",
"392 329 LINE"
);
},
{
closed = 1;
nodes = (
"190 329 LINE",
"190 322 LINE",
"196 329 LINE"
);
},
{
closed = 1;
nodes = (
"190 384 LINE",
"134 384 LINE",
"134 0 LINE",
"190 0 LINE"
);
}
);
width = 500;
}
);
},
{
glyphname = s.ss01;
lastChange = "2018-05-09 14:04:41 +0000";
layers = (
{
layerId = "85099F7B-7F46-42FC-B840-CDE30C82BCDD";
paths = (
{
closed = 1;
nodes = (
"397 384 LINE",
"102 384 LINE",
"102 329 LINE",
"397 329 LINE"
);
},
{
closed = 1;
nodes = (
"158 384 LINE",
"102 384 LINE",
"102 186 LINE",
"158 186 LINE"
);
},
{
closed = 1;
nodes = (
"397 55 LINE",
"103 55 LINE",
"103 0 LINE",
"397 0 LINE"
);
},
{
closed = 1;
nodes = (
"397 218 LINE",
"102 218 LINE",
"102 166 LINE",
"397 166 LINE"
);
},
{
closed = 1;
nodes = (
"397 200 LINE",
"341 200 LINE",
"341 0 LINE",
"397 0 LINE"
);
},
{
closed = 1;
nodes = (
"341 55 LINE",
"341 62 LINE",
"335 55 LINE"
);
},
{
closed = 1;
nodes = (
"341 159 LINE",
"341 166 LINE",
"335 166 LINE"
);
},
{
closed = 1;
nodes = (
"158 225 LINE",
"158 218 LINE",
"164 218 LINE"
);
},
{
closed = 1;
nodes = (
"158 329 LINE",
"158 322 LINE",
"164 329 LINE"
);
}
);
width = 500;
}
);
},
{
glyphname = t.ss01;
lastChange = "2018-05-10 09:23:42 +0000";
layers = (
{
layerId = "85099F7B-7F46-42FC-B840-CDE30C82BCDD";
paths = (
{
closed = 1;
nodes = (
"227 54 LINE",
"227 331 LINE",
"406 331 LINE",
"406 384 LINE",
"227 384 LINE",
"227 523 LINE",
"171 523 LINE",
"171 384 LINE",
"106 384 LINE",
"106 331 LINE",
"171 331 LINE",
"171 0 LINE",
"406 0 LINE",
"406 54 LINE"
);
},
{
closed = 0;
nodes = (
"227 384 LINE"
);
},
{
closed = 0;
nodes = (
"171 384 LINE"
);
},
{
closed = 1;
nodes = (
"171 384 LINE",
"171 390 LINE",
"165 384 LINE"
);
},
{
closed = 1;
nodes = (
"227 390 LINE",
"227 384 LINE",
"233 384 LINE"
);
},
{
closed = 0;
nodes = (
"227 331 LINE"
);
},
{
closed = 0;
nodes = (
"171 331 LINE"
);
},
{
closed = 1;
nodes = (
"171 325 LINE",
"171 331 LINE",
"165 331 LINE"
);
},
{
closed = 1;
nodes = (
"227 331 LINE",
"227 325 LINE",
"233 331 LINE"
);
},
{
closed = 1;
nodes = (
"227 61 LINE",
"227 54 LINE",
"233 54 LINE"
);
}
);
width = 500;
}
);
},
{
glyphname = u.ss01;
lastChange = "2018-05-09 14:03:32 +0000";
layers = (
{
layerId = "85099F7B-7F46-42FC-B840-CDE30C82BCDD";
paths = (
{
closed = 1;
nodes = (
"406 0 LINE",
"406 384 LINE",
"350 384 LINE",
"350 54 LINE",
"149 54 LINE",
"149 384 LINE",
"93 384 LINE",
"93 0 LINE"
);
},
{
closed = 1;
nodes = (
"149 61 LINE",
"149 54 LINE",
"155 54 LINE"
);
},
{
closed = 1;
nodes = (
"350 54 LINE",
"350 61 LINE",
"344 54 LINE"
);
}
);
width = 500;
}
);
},
{
glyphname = v.ss01;
lastChange = "2018-05-09 18:30:21 +0000";
layers = (
{
layerId = "85099F7B-7F46-42FC-B840-CDE30C82BCDD";
paths = (
{
closed = 1;
nodes = (
"298 0 LINE",
"420 384 LINE",
"355 384 LINE",
"252 54 LINE",
"247 54 LINE",
"145 384 LINE",
"80 384 LINE",
"201 0 LINE"
);
}
);
width = 500;
}
);
},
{
glyphname = w.ss01;
lastChange = "2018-05-09 15:23:11 +0000";
layers = (
{
layerId = "85099F7B-7F46-42FC-B840-CDE30C82BCDD";
paths = (
{
closed = 1;
nodes = (
"79 384 LINE",
"79 0 LINE",
"135 0 LINE",
"135 128 OFFCURVE",
"135 256 OFFCURVE",
"135 384 CURVE"
);
},
{
closed = 0;
nodes = (
"79 384 LINE",
"79 0 LINE"
);
},
{
closed = 1;
nodes = (
"222 384 LINE",
"222 0 LINE",
"279 0 LINE",
"279 384 LINE"
);
},
{
closed = 1;
nodes = (
"79 55 LINE",
"79 0 LINE",
"422 0 LINE",
"422 55 LINE"
);
},
{
closed = 1;
nodes = (
"366 384 LINE",
"366 0 LINE",
"422 0 LINE",
"422 384 LINE"
);
},
{
closed = 1;
nodes = (
"135 61 LINE",
"135 55 LINE",
"141 55 LINE"
);
},
{
closed = 1;
nodes = (
"222 55 LINE",
"222 61 LINE",
"216 55 LINE"
);
},
{
closed = 1;
nodes = (
"279 61 LINE",
"279 55 LINE",
"285 55 LINE"
);
},
{
closed = 1;
nodes = (
"366 55 LINE",
"366 61 LINE",
"360 55 LINE"
);
},
{
closed = 1;
nodes = (
"79 384 LINE",
"79 0 LINE",
"135 0 LINE",
"135 384 LINE"
);
}
);
width = 500;
}
);
},
{
glyphname = y.ss01;
lastChange = "2018-05-09 14:05:16 +0000";
layers = (
{
layerId = "85099F7B-7F46-42FC-B840-CDE30C82BCDD";
paths = (
{
closed = 1;
nodes = (
"279 -1 LINE",
"449 382 LINE",
"391 382 LINE",
"222 -1 LINE"
);
},
{
closed = 1;
nodes = (
"222 -152 LINE",
"279 -152 LINE",
"279 6 LINE",
"222 6 LINE"
);
},
{
closed = 1;
nodes = (
"99 -152 LINE",
"279 -152 LINE",
"279 -98 LINE",
"99 -98 LINE"
);
},
{
closed = 1;
nodes = (
"110 382 LINE",
"52 382 LINE",
"222 -1 LINE",
"279 -1 LINE"
);
},
{
closed = 1;
nodes = (
"222 -98 LINE",
"222 -91 LINE",
"216 -98 LINE"
);
}
);
width = 500;
}
);
},
{
glyphname = z.ss01;
lastChange = "2018-05-10 08:10:20 +0000";
layers = (
{
layerId = "85099F7B-7F46-42FC-B840-CDE30C82BCDD";
paths = (
{
closed = 1;
nodes = (
"421 54 LINE",
"153 54 LINE",
"423 330 LINE",
"423 384 LINE",
"86 384 LINE",
"86 330 LINE",
"348 330 LINE",
"78 54 LINE",
"78 0 LINE",
"421 0 LINE"
);
}
);
width = 500;
}
);
},
{
glyphname = a.ss02;
lastChange = "2018-05-10 08:06:23 +0000";
layers = (
{
layerId = "85099F7B-7F46-42FC-B840-CDE30C82BCDD";
paths = (
{
closed = 1;
nodes = (
"370 192 LINE",
"375 72 LINE",
"379 72 LINE",
"370 47 LINE",
"385 0 LINE",
"427 0 LINE",
"427 384 LINE",
"370 384 LINE"
);
},
{
closed = 1;
nodes = (
"61 88 OFFCURVE",
"128 -7 OFFCURVE",
"244 -7 CURVE SMOOTH",
"360 -7 OFFCURVE",
"397 83 OFFCURVE",
"397 192 CURVE SMOOTH",
"397 295 OFFCURVE",
"360 388 OFFCURVE",
"244 388 CURVE SMOOTH",
"128 388 OFFCURVE",
"61 297 OFFCURVE",
"61 193 CURVE SMOOTH"
);
},
{
closed = 1;
nodes = (
"118 283 OFFCURVE",
"169 334 OFFCURVE",
"244 334 CURVE SMOOTH",
"319 334 OFFCURVE",
"370 285 OFFCURVE",
"370 192 CURVE SMOOTH",
"370 98 OFFCURVE",
"319 47 OFFCURVE",
"244 47 CURVE SMOOTH",
"169 47 OFFCURVE",
"118 96 OFFCURVE",
"118 193 CURVE SMOOTH"
);
}
);
width = 500;
}
);
},
{
glyphname = m.ss02;
lastChange = "2018-07-17 13:00:25 +0000";
layers = (
{
layerId = "85099F7B-7F46-42FC-B840-CDE30C82BCDD";
paths = (
{
closed = 1;
nodes = (
"56 0 LINE",
"57 163 LINE",
"57 257 OFFCURVE",
"81 335 OFFCURVE",
"155 335 CURVE SMOOTH",
"190 335 OFFCURVE",
"222 322 OFFCURVE",
"222 228 CURVE SMOOTH",
"222 0 LINE",
"278 0 LINE",
"278 163 LINE SMOOTH",
"278 256 OFFCURVE",
"303 335 OFFCURVE",
"376 335 CURVE SMOOTH",
"412 335 OFFCURVE",
"444 322 OFFCURVE",
"444 228 CURVE SMOOTH",
"444 0 LINE",
"500 0 LINE",
"500 240 LINE SMOOTH",
"500 314 OFFCURVE",
"483 389 OFFCURVE",
"393 389 CURVE SMOOTH",
"306 389 OFFCURVE",
"281 311 OFFCURVE",
"277 290 CURVE",
"272 290 LINE",
"272 347 OFFCURVE",
"233 389 OFFCURVE",
"171 389 CURVE SMOOTH",
"84 389 OFFCURVE",
"65 311 OFFCURVE",
"61 290 CURVE",
"56 290 LINE",
"56 384 LINE",
"0 384 LINE",
"0 0 LINE"
);
}
);
width = 500;
}
);
},
{
glyphname = "Be-cy";
lastChange = "2018-05-09 12:16:17 +0000";
layers = (
{
layerId = "85099F7B-7F46-42FC-B840-CDE30C82BCDD";
paths = (
{
closed = 1;
nodes = (
"76 489 LINE",
"413 489 LINE",
"413 545 LINE",
"76 545 LINE"
);
},
{
closed = 1;
nodes = (
"132 20 LINE",
"132 545 LINE",
"76 545 LINE",
"76 20 LINE"
);
},
{
closed = 1;
nodes = (
"407 0 OFFCURVE",
"464 75 OFFCURVE",
"464 160 CURVE",
"464 247 OFFCURVE",
"410 318 OFFCURVE",
"305 318 CURVE",
"76 318 LINE",
"76 262 LINE",
"304 262 LINE",
"360 262 OFFCURVE",
"408 216 OFFCURVE",
"408 159 CURVE",
"408 102 OFFCURVE",
"360 56 OFFCURVE",
"304 56 CURVE",
"76 56 LINE",
"76 0 LINE",
"305 0 LINE"
);
},
{
closed = 1;
nodes = (
"138 262 LINE",
"132 262 LINE",
"132 256 LINE"
);
},
{
closed = 1;
nodes = (
"132 318 LINE",
"138 318 LINE",
"132 324 LINE"
);
},
{
closed = 1;
nodes = (
"138 489 LINE",
"132 489 LINE",
"132 483 LINE"
);
},
{
closed = 1;
nodes = (
"132 56 LINE",
"138 56 LINE",
"132 62 LINE"
);
}
);
width = 500;
}
);
unicode = 0411;
},
{
glyphname = "Ge-cy";
lastChange = "2018-05-09 12:16:34 +0000";
layers = (
{
layerId = "85099F7B-7F46-42FC-B840-CDE30C82BCDD";
paths = (
{
closed = 1;
nodes = (
"132 0 LINE",
"132 545 LINE",
"76 545 LINE",
"76 0 LINE"
);
},
{
closed = 1;
nodes = (
"76 489 LINE",
"413 489 LINE",
"413 545 LINE",
"76 545 LINE"
);
},
{
closed = 1;
nodes = (
"138 489 LINE",
"132 489 LINE",
"132 483 LINE"
);
}
);
width = 500;
}
);
unicode = 0413;
},
{
glyphname = "De-cy";
lastChange = "2018-05-09 12:19:40 +0000";
layers = (
{
layerId = "85099F7B-7F46-42FC-B840-CDE30C82BCDD";
paths = (
{
closed = 1;
nodes = (
"84 488 LINE",
"454 489 LINE",
"454 545 LINE",
"84 544 LINE"
);
},
{
closed = 1;
nodes = (
"455 31 LINE",
"455 545 LINE",
"399 545 LINE",
"399 31 LINE"
);
},
{
closed = 1;
nodes = (
"80 7 LINE",
"106 7 OFFCURVE",
"132 35 OFFCURVE",
"132 86 CURVE",
"136 192 OFFCURVE",
"139 438 OFFCURVE",
"140 544 CURVE",
"84 544 LINE",
"84 438 OFFCURVE",
"80 182 OFFCURVE",
"76 76 CURVE",
"76 64 OFFCURVE",
"67 55 OFFCURVE",
"55 55 CURVE"
);
},
{
closed = 1;
nodes = (
"20 -1 LINE",
"480 0 LINE",
"480 56 LINE",
"20 55 LINE"
);
},
{
closed = 1;
nodes = (
"20 -75 LINE",
"78 -75 LINE",
"78 55 LINE",
"20 55 LINE"
);
},
{
closed = 1;
nodes = (
"422 -74 LINE",
"480 -74 LINE",
"480 56 LINE",
"422 56 LINE"
);
},
{
closed = 1;
nodes = (
"145 488 LINE",
"139 488 LINE",
"139 482 LINE"
);
},
{
closed = 1;
nodes = (
"399 489 LINE",
"393 489 LINE",
"399 483 LINE"
);
},
{
closed = 1;
nodes = (
"393 56 LINE",
"399 56 LINE",
"399 62 LINE"
);
},
{
closed = 1;
nodes = (
"422 0 LINE",
"416 0 LINE",
"422 -6 LINE"
);
},
{
closed = 1;
nodes = (
"84 -1 LINE",
"78 -1 LINE",
"78 -7 LINE"
);
},
{
closed = 1;
nodes = (
"455 56 LINE",
"461 56 LINE",
"455 62 LINE"
);
}
);
width = 500;
}
);
unicode = 0414;
},
{
glyphname = "Zhe-cy";
lastChange = "2018-05-01 17:47:49 +0000";
layers = (
{
layerId = "85099F7B-7F46-42FC-B840-CDE30C82BCDD";
paths = (
{
closed = 1;
nodes = (
"222 0 LINE",
"278 0 LINE",
"278 545 LINE",
"222 545 LINE"
);
},
{
closed = 1;
nodes = (
"273 284 LINE",
"340 284 LINE",
"493 545 LINE",
"426 545 LINE"
);
},
{
closed = 1;
nodes = (
"493 0 LINE",
"340 284 LINE",
"273 284 LINE",
"426 0 LINE"
);
},
{
closed = 1;
nodes = (
"7 545 LINE",
"160 284 LINE",
"227 284 LINE",
"74 545 LINE"
);
},
{
closed = 1;
nodes = (
"227 284 LINE",
"160 284 LINE",
"7 0 LINE",
"74 0 LINE"
);
}
);
width = 500;
}
);
unicode = 0416;
},
{
glyphname = "Ze-cy";
lastChange = "2018-05-15 15:44:17 +0000";
layers = (
{
layerId = "85099F7B-7F46-42FC-B840-CDE30C82BCDD";
paths = (
{
closed = 1;
nodes = (
"67 82 OFFCURVE",
"145 0 OFFCURVE",
"266 0 CURVE SMOOTH",
"387 0 OFFCURVE",
"465 58 OFFCURVE",
"465 166 CURVE SMOOTH",
"465 274 OFFCURVE",
"377 290 OFFCURVE",
"370 290 CURVE",
"370 292 LINE",
"377 292 OFFCURVE",
"436 316 OFFCURVE",
"436 392 CURVE SMOOTH",
"436 466 OFFCURVE",
"387 545 OFFCURVE",
"266 545 CURVE SMOOTH",
"145 545 OFFCURVE",
"100 466 OFFCURVE",
"100 380 CURVE",
"158 380 LINE",
"158 430 OFFCURVE",
"179 491 OFFCURVE",
"266 491 CURVE SMOOTH",
"358 491 OFFCURVE",
"379 430 OFFCURVE",
"379 392 CURVE SMOOTH",
"379 329 OFFCURVE",
"336 316 OFFCURVE",
"272 316 CURVE",
"272 255 LINE",
"348 255 OFFCURVE",
"407 247 OFFCURVE",
"407 165 CURVE SMOOTH",
"407 125 OFFCURVE",
"380 56 OFFCURVE",
"266 56 CURVE SMOOTH",
"173 56 OFFCURVE",
"125 126 OFFCURVE",
"125 186 CURVE",
"67 186 LINE"
);
}
);
width = 500;
}
);
unicode = 0417;
},
{
glyphname = "Ii-cy";
lastChange = "2018-05-01 16:52:53 +0000";
layers = (
{
layerId = "85099F7B-7F46-42FC-B840-CDE30C82BCDD";
paths = (
{
closed = 1;
nodes = (
"114 545 LINE",
"58 545 LINE",
"58 0 LINE",
"114 0 LINE"
);
},
{
closed = 1;
nodes = (
"440 545 LINE",
"384 545 LINE",
"58 0 LINE",
"114 0 LINE"
);
},
{
closed = 1;
nodes = (
"440 545 LINE",
"384 545 LINE",
"384 0 LINE",
"440 0 LINE"
);
}
);
width = 500;
}
);
unicode = 0418;
},
{
glyphname = "Ka-cy";
lastChange = "2018-05-02 10:52:48 +0000";
layers = (
{
layerId = "85099F7B-7F46-42FC-B840-CDE30C82BCDD";
paths = (
{
closed = 1;
nodes = (
"70 0 LINE",
"126 0 LINE",
"126 545 LINE",
"70 545 LINE"
);
},
{
closed = 1;
nodes = (
"119 278 LINE",
"186 278 LINE",
"401 545 LINE",
"334 545 LINE"
);
},
{
closed = 1;
nodes = (
"427 0 LINE",
"186 278 LINE",
"119 278 LINE",
"360 0 LINE"
);
}
);
width = 500;
}
);
unicode = 041A;
},
{
glyphname = "El-cy";
lastChange = "2018-05-09 12:20:46 +0000";
layers = (
{
layerId = "85099F7B-7F46-42FC-B840-CDE30C82BCDD";
paths = (
{
closed = 1;
nodes = (
"87 489 LINE",
"450 489 LINE",
"450 545 LINE",
"87 545 LINE"
);
},
{
closed = 1;
nodes = (
"451 0 LINE",
"451 545 LINE",
"395 545 LINE",
"395 0 LINE"
);
},
{
closed = 1;
nodes = (
"33 0 OFFCURVE",
"51 0 OFFCURVE",
"74 0 CURVE",
"109 0 OFFCURVE",
"135 29 OFFCURVE",
"135 66 CURVE",
"138 172 OFFCURVE",
"140 439 OFFCURVE",
"143 545 CURVE",
"87 545 LINE",
"84 437 OFFCURVE",
"82 169 OFFCURVE",
"79 61 CURVE",
"79 52 OFFCURVE",
"72 43 OFFCURVE",
"58 43 CURVE",
"46 43 OFFCURVE",
"32 43 OFFCURVE",
"23 43 CURVE",
"23 0 LINE"
);
},
{
closed = 1;
nodes = (
"395 489 LINE",
"389 489 LINE",
"395 483 LINE"
);
},
{
closed = 1;
nodes = (
"148 489 LINE",
"141 489 LINE",
"141 483 LINE"
);
}
);
width = 500;
}
);
unicode = 041B;
},
{
glyphname = "Pe-cy";
lastChange = "2018-05-09 12:21:24 +0000";
layers = (
{
layerId = "85099F7B-7F46-42FC-B840-CDE30C82BCDD";
paths = (
{
closed = 1;
nodes = (
"69 489 LINE",
"432 489 LINE",
"432 545 LINE",
"69 545 LINE"
);
},
{
closed = 1;
nodes = (
"433 0 LINE",
"433 545 LINE",
"377 545 LINE",
"377 0 LINE"
);
},
{
closed = 1;
nodes = (
"377 489 LINE",
"371 489 LINE",
"377 483 LINE"
);
},
{
closed = 1;
nodes = (
"130 489 LINE",
"123 489 LINE",
"123 483 LINE"
);
},
{
closed = 1;
nodes = (
"123 -1 LINE",
"123 544 LINE",
"67 544 LINE",
"67 -1 LINE"
);
}
);
width = 500;
}
);
unicode = 041F;
},
{
glyphname = "U-cy";
lastChange = "2018-05-03 11:33:02 +0000";
layers = (
{
layerId = "85099F7B-7F46-42FC-B840-CDE30C82BCDD";
paths = (
{
closed = 1;
nodes = (
"208 0 LINE",
"449 545 LINE",
"391 545 LINE",
"311 363 OFFCURVE",
"231 182 OFFCURVE",
"151 0 CURVE"
);
},
{
closed = 1;
nodes = (
"110 545 LINE",
"52 545 LINE",
"222 162 LINE",
"279 162 LINE"
);
}
);
width = 500;
}
);
unicode = 0423;
},
{
glyphname = "Ef-cy";
lastChange = "2018-05-09 09:08:57 +0000";
layers = (
{
layerId = "85099F7B-7F46-42FC-B840-CDE30C82BCDD";
paths = (
{
closed = 1;
nodes = (
"371 98 OFFCURVE",
"452 170 OFFCURVE",
"452 295 CURVE SMOOTH",
"452 420 OFFCURVE",
"371 493 OFFCURVE",
"254 493 CURVE SMOOTH",
"137 493 OFFCURVE",
"52 420 OFFCURVE",
"52 295 CURVE SMOOTH",
"52 170 OFFCURVE",
"137 96 OFFCURVE",
"254 97 CURVE SMOOTH"
);
},
{
closed = 1;
nodes = (
"142 144 OFFCURVE",
"106 215 OFFCURVE",
"106 295 CURVE SMOOTH",
"106 375 OFFCURVE",
"142 446 OFFCURVE",
"254 446 CURVE SMOOTH",
"366 446 OFFCURVE",
"398 375 OFFCURVE",
"398 295 CURVE SMOOTH",
"398 215 OFFCURVE",
"366 144 OFFCURVE",
"254 144 CURVE SMOOTH"
);
},
{
closed = 1;
nodes = (
"224 0 LINE",
"280 0 LINE",
"280 545 LINE",
"224 545 LINE"
);
}
);
width = 500;
}
);
unicode = 0424;
},
{
glyphname = "Che-cy";
lastChange = "2018-05-02 11:15:57 +0000";
layers = (
{
layerId = "85099F7B-7F46-42FC-B840-CDE30C82BCDD";
paths = (
{
closed = 1;
nodes = (
"78 371 LINE",
"78 263 OFFCURVE",
"94 186 OFFCURVE",
"207 186 CURVE SMOOTH",
"294 186 OFFCURVE",
"345 231 OFFCURVE",
"367 306 CURVE",
"369 306 LINE",
"367 0 LINE",
"423 0 LINE",
"423 545 LINE",
"367 545 LINE",
"367 414 LINE",
"367 320 OFFCURVE",
"324 240 OFFCURVE",
"232 240 CURVE SMOOTH",
"173 240 OFFCURVE",
"134 253 OFFCURVE",
"134 349 CURVE",
"134 545 LINE",
"78 545 LINE"
);
}
);
width = 500;
}
);
unicode = 0427;
},
{
glyphname = "Tse-cy";
lastChange = "2018-05-09 12:23:39 +0000";
layers = (
{
layerId = "85099F7B-7F46-42FC-B840-CDE30C82BCDD";
paths = (
{
closed = 1;
nodes = (
"57 0 LINE",
"113 0 LINE",
"113 545 LINE",
"57 545 LINE"
);
},
{
closed = 1;
nodes = (
"424 0 LINE",
"424 56 LINE",
"57 56 LINE",
"57 0 LINE"
);
},
{
closed = 1;
nodes = (
"368 0 LINE",
"424 0 LINE",
"424 545 LINE",
"368 545 LINE"
);
},
{
closed = 1;
nodes = (
"376 0 LINE",
"491 0 LINE",
"491 56 LINE",
"376 56 LINE"
);
},
{
closed = 1;
nodes = (
"433 -85 LINE",
"491 -85 LINE",
"491 55 LINE",
"433 55 LINE"
);
},
{
closed = 1;
nodes = (
"362 56 LINE",
"368 56 LINE",
"368 62 LINE"
);
},
{
closed = 1;
nodes = (
"113 56 LINE",
"120 56 LINE",
"113 62 LINE"
);
},
{
closed = 1;
nodes = (
"424 56 LINE",
"431 56 LINE",
"424 62 LINE"
);
},
{
closed = 1;
nodes = (
"433 0 LINE",
"426 0 LINE",
"433 -6 LINE"
);
}
);
width = 500;
}
);
unicode = 0426;
},
{
glyphname = "Sha-cy";
lastChange = "2018-05-09 12:25:49 +0000";
layers = (
{
layerId = "85099F7B-7F46-42FC-B840-CDE30C82BCDD";
paths = (
{
closed = 1;
nodes = (
"57 0 LINE",
"113 0 LINE",
"113 545 LINE",
"57 545 LINE"
);
},
{
closed = 1;
nodes = (
"451 0 LINE",
"451 56 LINE",
"57 56 LINE",
"57 0 LINE"
);
},
{
closed = 1;
nodes = (
"395 0 LINE",
"451 0 LINE",
"451 545 LINE",
"395 545 LINE"
);
},
{
closed = 1;
nodes = (
"226 0 LINE",
"282 0 LINE",
"282 545 LINE",
"226 545 LINE"
);
},
{
closed = 1;
nodes = (
"220 56 LINE",
"226 56 LINE",
"226 62 LINE"
);
},
{
closed = 1;
nodes = (
"113 56 LINE",
"120 56 LINE",
"113 62 LINE"
);
},
{
closed = 1;
nodes = (
"282 56 LINE",
"288 56 LINE",
"282 62 LINE"
);
},
{
closed = 1;
nodes = (
"389 56 LINE",
"395 56 LINE",
"395 62 LINE"
);
}
);
width = 500;
}
);
unicode = 0428;
},
{
glyphname = "Shcha-cy";
lastChange = "2018-05-09 12:26:24 +0000";
layers = (
{
layerId = "85099F7B-7F46-42FC-B840-CDE30C82BCDD";
paths = (
{
closed = 1;
nodes = (
"30 0 LINE",
"86 0 LINE",
"86 545 LINE",
"30 545 LINE"
);
},
{
closed = 1;
nodes = (
"424 0 LINE",
"424 56 LINE",
"293 56 OFFCURVE",
"161 56 OFFCURVE",
"30 56 CURVE",
"30 0 LINE"
);
},
{
closed = 1;
nodes = (
"368 0 LINE",
"424 0 LINE",
"424 545 LINE",
"368 545 LINE"
);
},
{
closed = 1;
nodes = (
"199 0 LINE",
"255 0 LINE",
"255 545 LINE",
"199 545 LINE"
);
},
{
closed = 1;
nodes = (
"376 0 LINE",
"491 0 LINE",
"491 55 LINE",
"376 55 LINE"
);
},
{
closed = 1;
nodes = (
"433 -85 LINE",
"491 -85 LINE",
"491 55 LINE",
"433 55 LINE"
);
},
{
closed = 1;
nodes = (
"193 56 LINE",
"199 56 LINE",
"199 62 LINE"
);
},
{
closed = 1;
nodes = (
"86 56 LINE",
"93 56 LINE",
"86 62 LINE"
);
},
{
closed = 1;
nodes = (
"255 56 LINE",
"261 56 LINE",
"255 62 LINE"
);
},
{
closed = 1;
nodes = (
"362 56 LINE",
"368 56 LINE",
"368 62 LINE"
);
},
{
closed = 1;
nodes = (
"424 55 LINE",
"430 55 LINE",
"424 61 LINE"
);
},
{
closed = 1;
nodes = (
"433 0 LINE",
"427 0 LINE",
"433 -6 LINE"
);
}
);
width = 500;
}
);
unicode = 0429;
},
{
glyphname = "Softsign-cy";
lastChange = "2018-05-09 12:27:04 +0000";
layers = (
{
layerId = "85099F7B-7F46-42FC-B840-CDE30C82BCDD";
paths = (
{
closed = 1;
nodes = (
"132 20 LINE",
"132 545 LINE",
"76 545 LINE",
"76 20 LINE"
);
},
{
closed = 1;
nodes = (
"377 0 OFFCURVE",
"434 75 OFFCURVE",
"434 160 CURVE",
"434 247 OFFCURVE",
"380 318 OFFCURVE",
"275 318 CURVE",
"76 318 LINE",
"76 262 LINE",
"274 262 LINE",
"330 262 OFFCURVE",
"378 216 OFFCURVE",
"378 159 CURVE",
"378 102 OFFCURVE",
"330 56 OFFCURVE",
"274 56 CURVE",
"76 56 LINE",
"76 0 LINE",
"275 0 LINE"
);
},
{
closed = 1;
nodes = (
"139 262 LINE",
"132 262 LINE",
"132 256 LINE"
);
},
{
closed = 1;
nodes = (
"132 56 LINE",
"138 56 LINE",
"132 62 LINE"
);
},
{
closed = 1;
nodes = (
"132 318 LINE",
"139 318 LINE",
"132 324 LINE"
);
}
);
width = 500;
}
);
unicode = 042C;
},
{
glyphname = "Hardsign-cy";
lastChange = "2018-05-09 12:27:25 +0000";
layers = (
{
layerId = "85099F7B-7F46-42FC-B840-CDE30C82BCDD";
paths = (
{
closed = 1;
nodes = (
"160 20 LINE",
"160 545 LINE",
"104 545 LINE",
"104 20 LINE"
);
},
{
closed = 1;
nodes = (
"405 0 OFFCURVE",
"462 75 OFFCURVE",
"462 160 CURVE",
"462 247 OFFCURVE",
"408 318 OFFCURVE",
"303 318 CURVE",
"104 318 LINE",
"104 262 LINE",
"299 262 LINE",
"358 262 OFFCURVE",
"406 216 OFFCURVE",
"406 159 CURVE",
"406 102 OFFCURVE",
"358 56 OFFCURVE",
"302 56 CURVE",
"104 56 LINE",
"104 0 LINE",
"303 0 LINE"
);
},
{
closed = 1;
nodes = (
"9 489 LINE",
"160 489 LINE",
"160 545 LINE",
"9 545 LINE"
);
},
{
closed = 1;
nodes = (
"167 262 LINE",
"160 262 LINE",
"160 256 LINE"
);
},
{
closed = 1;
nodes = (
"160 56 LINE",
"166 56 LINE",
"160 62 LINE"
);
},
{
closed = 1;
nodes = (
"160 318 LINE",
"167 318 LINE",
"160 324 LINE"
);
},
{
closed = 1;
nodes = (
"104 489 LINE",
"97 489 LINE",
"104 483 LINE"
);
}
);
width = 500;
}
);
unicode = 042A;
},
{
glyphname = "Yeru-cy";
lastChange = "2018-05-09 12:27:36 +0000";
layers = (
{
layerId = "85099F7B-7F46-42FC-B840-CDE30C82BCDD";
paths = (
{
closed = 1;
nodes = (
"71 20 LINE",
"71 545 LINE",
"15 545 LINE",
"15 20 LINE"
);
},
{
closed = 1;
nodes = (
"316 0 OFFCURVE",
"373 75 OFFCURVE",
"373 160 CURVE",
"373 247 OFFCURVE",
"319 318 OFFCURVE",
"214 318 CURVE",
"15 318 LINE",
"15 262 LINE",
"213 262 LINE",
"269 262 OFFCURVE",
"317 216 OFFCURVE",
"317 159 CURVE",
"317 102 OFFCURVE",
"269 56 OFFCURVE",
"213 56 CURVE",
"15 56 LINE",
"15 0 LINE",
"214 0 LINE"
);
},
{
closed = 1;
nodes = (
"492 0 LINE",
"492 545 LINE",
"436 545 LINE",
"436 0 LINE"
);
},
{
closed = 1;
nodes = (
"78 262 LINE",
"71 262 LINE",
"71 256 LINE"
);
},
{
closed = 1;
nodes = (
"71 56 LINE",
"77 56 LINE",
"71 62 LINE"
);
},
{
closed = 1;
nodes = (
"71 318 LINE",
"78 318 LINE",
"71 324 LINE"
);
}
);
width = 500;
}
);
unicode = 042B;
},
{
glyphname = "Ereversed-cy";
lastChange = "2018-05-01 17:08:22 +0000";
layers = (
{
layerId = "85099F7B-7F46-42FC-B840-CDE30C82BCDD";
paths = (
{
closed = 1;
nodes = (
"70 64 OFFCURVE",
"144 -3 OFFCURVE",
"250 -3 CURVE SMOOTH",
"394 -3 OFFCURVE",
"478 120 OFFCURVE",
"477 275 CURVE SMOOTH",
"476 430 OFFCURVE",
"394 549 OFFCURVE",
"250 549 CURVE SMOOTH",
"144 549 OFFCURVE",
"71 484 OFFCURVE",
"40 388 CURVE",
"98 388 LINE",
"125 460 OFFCURVE",
"180 495 OFFCURVE",
"250 495 CURVE SMOOTH",
"349 495 OFFCURVE",
"420 425 OFFCURVE",
"420 275 CURVE SMOOTH",
"420 125 OFFCURVE",
"349 51 OFFCURVE",
"250 51 CURVE SMOOTH",
"180 51 OFFCURVE",
"124 88 OFFCURVE",
"97 162 CURVE",
"40 162 LINE"
);
},
{
closed = 1;
nodes = (
"194 248 LINE",
"462 248 LINE",
"462 304 LINE",
"194 304 LINE"
);
}
);
width = 500;
}
);
unicode = 042D;
},
{
glyphname = "Iu-cy";
lastChange = "2018-05-01 17:17:12 +0000";
layers = (
{
layerId = "85099F7B-7F46-42FC-B840-CDE30C82BCDD";
paths = (
{
closed = 1;
nodes = (
"497 430 OFFCURVE",
"415 549 OFFCURVE",
"290 549 CURVE SMOOTH",
"165 549 OFFCURVE",
"82 430 OFFCURVE",
"82 275 CURVE SMOOTH",
"82 120 OFFCURVE",
"165 -3 OFFCURVE",
"290 -3 CURVE SMOOTH",
"415 -3 OFFCURVE",
"499 120 OFFCURVE",
"498 275 CURVE SMOOTH"
);
},
{
closed = 1;
nodes = (
"436 125 OFFCURVE",
"365 51 OFFCURVE",
"285 51 CURVE SMOOTH",
"205 51 OFFCURVE",
"134 125 OFFCURVE",
"134 275 CURVE SMOOTH",
"134 425 OFFCURVE",
"205 495 OFFCURVE",
"285 495 CURVE SMOOTH",
"365 495 OFFCURVE",
"436 425 OFFCURVE",
"436 275 CURVE SMOOTH"
);
},
{
closed = 1;
nodes = (
"-6 0 LINE",
"52 0 LINE",
"52 545 LINE",
"-6 545 LINE"
);
},
{
closed = 1;
nodes = (
"0 247 LINE",
"125 247 LINE",
"125 303 LINE",
"0 303 LINE"
);
}
);
width = 500;
}
);
unicode = 042E;
},
{
glyphname = "Ia-cy";
lastChange = "2018-05-09 12:24:06 +0000";
layers = (
{
layerId = "85099F7B-7F46-42FC-B840-CDE30C82BCDD";
paths = (
{
closed = 1;
nodes = (
"383 525 LINE",
"383 0 LINE",
"439 0 LINE",
"439 525 LINE"
);
},
{
closed = 1;
nodes = (
"114 545 OFFCURVE",
"61 475 OFFCURVE",
"61 391 CURVE",
"61 302 OFFCURVE",
"111 232 OFFCURVE",
"216 232 CURVE",
"439 232 LINE",
"439 288 LINE",
"214 288 LINE",
"160 288 OFFCURVE",
"115 333 OFFCURVE",
"115 388 CURVE",
"115 444 OFFCURVE",
"161 489 OFFCURVE",
"215 489 CURVE",
"439 489 LINE",
"439 545 LINE",
"216 545 LINE"
);
},
{
closed = 1;
nodes = (
"216 276 LINE",
"75 0 LINE",
"134 0 LINE",
"275 276 LINE"
);
},
{
closed = 1;
nodes = (
"383 232 LINE",
"377 232 LINE",
"383 226 LINE"
);
},
{
closed = 1;
nodes = (
"377 288 LINE",
"383 288 LINE",
"383 294 LINE"
);
},
{
closed = 1;
nodes = (
"383 489 LINE",
"377 489 LINE",
"383 483 LINE"
);
}
);
width = 500;
}
);
unicode = 042F;
},
{
glyphname = "be-cy";
lastChange = "2018-05-02 11:59:05 +0000";
layers = (
{
layerId = "85099F7B-7F46-42FC-B840-CDE30C82BCDD";
paths = (
{
closed = 1;
nodes = (
"77 80 OFFCURVE",
"135 0 OFFCURVE",
"242 0 CURVE SMOOTH",
"352 0 OFFCURVE",
"410 80 OFFCURVE",
"410 188 CURVE SMOOTH",
"410 299 OFFCURVE",
"338 358 OFFCURVE",
"251 358 CURVE SMOOTH",
"211 358 OFFCURVE",
"175 343 OFFCURVE",
"143 319 CURVE",
"141 319 LINE",
"146 436 OFFCURVE",
"171 492 OFFCURVE",
"275 492 CURVE SMOOTH",
"322 492 OFFCURVE",
"349 478 OFFCURVE",
"396 502 CURVE",
"396 550 LINE",
"349 526 OFFCURVE",
"322 540 OFFCURVE",
"275 540 CURVE SMOOTH",
"100 540 OFFCURVE",
"77 404 OFFCURVE",
"77 228 CURVE SMOOTH"
);
},
{
closed = 1;
nodes = (
"134 268 OFFCURVE",
"155 312 OFFCURVE",
"245 312 CURVE SMOOTH",
"315 312 OFFCURVE",
"353 268 OFFCURVE",
"353 187 CURVE SMOOTH",
"353 106 OFFCURVE",
"316 54 OFFCURVE",
"242 54 CURVE SMOOTH",
"171 54 OFFCURVE",
"134 106 OFFCURVE",
"134 187 CURVE SMOOTH"
);
}
);
width = 500;
}
);
unicode = 0431;
},
{
glyphname = "ve-cy";
lastChange = "2018-05-09 09:23:41 +0000";
layers = (
{
layerId = "85099F7B-7F46-42FC-B840-CDE30C82BCDD";
paths = (
{
closed = 1;
nodes = (
"152 20 LINE",
"152 384 LINE",
"96 384 LINE",
"96 20 LINE"
);
},
{
closed = 1;
nodes = (
"371 0 OFFCURVE",
"420 49 OFFCURVE",
"420 110 CURVE",
"420 170 OFFCURVE",
"371 219 OFFCURVE",
"311 219 CURVE",
"96 219 LINE",
"96 173 LINE",
"308 173 LINE",
"340 173 OFFCURVE",
"366 146 OFFCURVE",
"366 115 CURVE",
"366 82 OFFCURVE",
"340 56 OFFCURVE",
"308 56 CURVE",
"96 56 LINE",
"96 0 LINE",
"313 0 LINE"
);
},
{
closed = 1;
nodes = (
"340 174 OFFCURVE",
"389 214 OFFCURVE",
"389 275 CURVE",
"389 335 OFFCURVE",
"340 384 OFFCURVE",
"280 384 CURVE",
"106 384 LINE",
"106 338 LINE",
"277 338 LINE",
"309 338 OFFCURVE",
"335 311 OFFCURVE",
"335 280 CURVE",
"335 247 OFFCURVE",
"309 219 OFFCURVE",
"277 219 CURVE",
"106 219 LINE",
"106 174 LINE",
"282 174 LINE"
);
},
{
closed = 1;
nodes = (
"158 173 LINE",
"152 173 LINE",
"152 167 LINE"
);
},
{
closed = 1;
nodes = (
"152 219 LINE",
"158 219 LINE",
"152 225 LINE"
);
},
{
closed = 1;
nodes = (
"158 338 LINE",
"152 338 LINE",
"152 332 LINE"
);
},
{
closed = 1;
nodes = (
"152 56 LINE",
"158 56 LINE",
"152 62 LINE"
);
}
);
width = 500;
}
);
unicode = 0432;
},
{
glyphname = "ge-cy";
lastChange = "2018-05-09 09:24:09 +0000";
layers = (
{
layerId = "85099F7B-7F46-42FC-B840-CDE30C82BCDD";
paths = (
{
closed = 1;
nodes = (
"186 0 LINE",
"186 384 LINE",
"130 384 LINE",
"130 0 LINE"
);
},
{
closed = 1;
nodes = (
"149 328 LINE",
"386 328 LINE",
"386 384 LINE",
"149 384 LINE"
);
},
{
closed = 1;
nodes = (
"192 328 LINE",
"186 328 LINE",
"186 322 LINE"
);
}
);
width = 500;
}
);
unicode = 0433;
},
{
glyphname = "de-cy";
lastChange = "2018-05-09 09:19:53 +0000";
layers = (
{
layerId = "85099F7B-7F46-42FC-B840-CDE30C82BCDD";
paths = (
{
closed = 1;
nodes = (
"112 328 LINE",
"425 328 LINE",
"425 384 LINE",
"112 384 LINE"
);
},
{
closed = 1;
nodes = (
"426 0 LINE",
"426 384 LINE",
"370 384 LINE",
"370 0 LINE"
);
},
{
closed = 1;
nodes = (
"108 -23 LINE",
"134 -23 OFFCURVE",
"160 5 OFFCURVE",
"160 56 CURVE",
"164 162 OFFCURVE",
"167 278 OFFCURVE",
"168 384 CURVE",
"112 384 LINE",
"112 278 OFFCURVE",
"108 152 OFFCURVE",
"104 46 CURVE",
"104 34 OFFCURVE",
"95 25 OFFCURVE",
"83 25 CURVE"
);
},
{
closed = 1;
nodes = (
"34 -31 LINE",
"460 -31 LINE",
"460 25 LINE",
"34 25 LINE"
);
},
{
closed = 1;
nodes = (
"34 -90 LINE",
"92 -90 LINE",
"92 25 LINE",
"34 25 LINE"
);
},
{
closed = 1;
nodes = (
"402 -90 LINE",
"460 -90 LINE",
"460 25 LINE",
"402 25 LINE"
);
},
{
closed = 1;
nodes = (
"370 25 LINE",
"370 31 LINE",
"364 25 LINE"
);
},
{
closed = 1;
nodes = (
"426 31 LINE",
"426 25 LINE",
"432 25 LINE"
);
},
{
closed = 1;
nodes = (
"402 -37 LINE",
"402 -31 LINE",
"396 -31 LINE"
);
},
{
closed = 1;
nodes = (
"92 -31 LINE",
"92 -37 LINE",
"98 -31 LINE"
);
},
{
closed = 1;
nodes = (
"370 322 LINE",
"370 328 LINE",
"364 328 LINE"
);
},
{
closed = 1;
nodes = (
"167 328 LINE",
"167 322 LINE",
"173 328 LINE"
);
}
);
width = 500;
}
);
unicode = 0434;
},
{
glyphname = "zhe-cy";
lastChange = "2018-05-03 11:23:06 +0000";
layers = (
{
layerId = "85099F7B-7F46-42FC-B840-CDE30C82BCDD";
paths = (
{
closed = 1;
nodes = (
"222 0 LINE",
"278 0 LINE",
"278 384 LINE",
"222 384 LINE"
);
},
{
closed = 1;
nodes = (
"18 384 LINE",
"161 202 LINE",
"228 202 LINE",
"85 384 LINE"
);
},
{
closed = 1;
nodes = (
"228 202 LINE",
"161 202 LINE",
"18 0 LINE",
"85 0 LINE"
);
},
{
closed = 1;
nodes = (
"272 202 LINE",
"339 202 LINE",
"482 384 LINE",
"415 384 LINE"
);
},
{
closed = 1;
nodes = (
"482 0 LINE",
"339 202 LINE",
"272 202 LINE",
"415 0 LINE"
);
}
);
width = 500;
}
);
unicode = 0436;
},
{
glyphname = "ze-cy";
lastChange = "2018-05-04 16:38:22 +0000";
layers = (
{
layerId = "85099F7B-7F46-42FC-B840-CDE30C82BCDD";
paths = (
{
closed = 1;
nodes = (
"170 24 OFFCURVE",
"205 0 OFFCURVE",
"262 0 CURVE SMOOTH",
"348 0 OFFCURVE",
"406 49 OFFCURVE",
"406 122 CURVE SMOOTH",
"406 184 OFFCURVE",
"344 204 OFFCURVE",
"339 204 CURVE",
"339 206 LINE",
"344 206 OFFCURVE",
"386 232 OFFCURVE",
"386 277 CURVE SMOOTH",
"386 337 OFFCURVE",
"348 384 OFFCURVE",
"262 384 CURVE SMOOTH",
"215 384 OFFCURVE",
"184 370 OFFCURVE",
"161 349 CURVE",
"161 284 LINE",
"190 311 OFFCURVE",
"215 330 OFFCURVE",
"260 330 CURVE SMOOTH",
"313 330 OFFCURVE",
"336 303 OFFCURVE",
"336 275 CURVE SMOOTH",
"336 232 OFFCURVE",
"291 223 OFFCURVE",
"246 223 CURVE",
"246 180 LINE",
"300 180 OFFCURVE",
"354 174 OFFCURVE",
"354 122 CURVE",
"354 88 OFFCURVE",
"322 54 OFFCURVE",
"260 54 CURVE SMOOTH",
"206 54 OFFCURVE",
"176 83 OFFCURVE",
"147 110 CURVE",
"147 45 LINE"
);
}
);
width = 500;
}
);
unicode = 0437;
},
{
glyphname = "ii-cy";
lastChange = "2018-05-02 09:02:09 +0000";
layers = (
{
layerId = "85099F7B-7F46-42FC-B840-CDE30C82BCDD";
paths = (
{
closed = 1;
nodes = (
"155 384 LINE",
"99 384 LINE",
"99 0 LINE",
"155 0 LINE"
);
},
{
closed = 1;
nodes = (
"406 384 LINE",
"350 384 LINE",
"99 0 LINE",
"155 0 LINE"
);
},
{
closed = 1;
nodes = (
"406 384 LINE",
"350 384 LINE",
"350 0 LINE",
"406 0 LINE"
);
}
);
width = 500;
}
);
unicode = 0438;
},
{
glyphname = "ka-cy";
lastChange = "2018-05-02 09:06:49 +0000";
layers = (
{
layerId = "85099F7B-7F46-42FC-B840-CDE30C82BCDD";
paths = (
{
closed = 1;
nodes = (
"104 0 LINE",
"160 0 LINE",
"160 384 LINE",
"104 384 LINE"
);
},
{
closed = 1;
nodes = (
"153 202 LINE",
"220 202 LINE",
"397 384 LINE",
"330 384 LINE"
);
},
{
closed = 1;
nodes = (
"397 0 LINE",
"220 202 LINE",
"153 202 LINE",
"330 0 LINE"
);
}
);
width = 500;
}
);
unicode = 043A;
},
{
glyphname = "el-cy";
lastChange = "2018-05-09 09:27:03 +0000";
layers = (
{
layerId = "85099F7B-7F46-42FC-B840-CDE30C82BCDD";
paths = (
{
closed = 1;
nodes = (
"112 328 LINE",
"425 328 LINE",
"425 384 LINE",
"112 384 LINE"
);
},
{
closed = 1;
nodes = (
"426 0 LINE",
"426 384 LINE",
"370 384 LINE",
"370 0 LINE"
);
},
{
closed = 1;
nodes = (
"58 0 OFFCURVE",
"76 0 OFFCURVE",
"99 0 CURVE",
"134 0 OFFCURVE",
"160 29 OFFCURVE",
"160 66 CURVE",
"163 172 OFFCURVE",
"165 278 OFFCURVE",
"168 384 CURVE",
"112 384 LINE",
"109 276 OFFCURVE",
"107 169 OFFCURVE",
"104 61 CURVE",
"104 52 OFFCURVE",
"97 43 OFFCURVE",
"83 43 CURVE",
"71 43 OFFCURVE",
"57 43 OFFCURVE",
"48 43 CURVE",
"48 0 LINE"
);
},
{
closed = 1;
nodes = (
"370 328 LINE",
"364 328 LINE",
"370 322 LINE"
);
},
{
closed = 1;
nodes = (
"173 328 LINE",
"166 328 LINE",
"166 322 LINE"
);
}
);
width = 500;
}
);
unicode = 043B;
},
{
glyphname = "em-cy";
lastChange = "2018-05-01 17:58:54 +0000";
layers = (
{
layerId = "85099F7B-7F46-42FC-B840-CDE30C82BCDD";
paths = (
{
closed = 1;
nodes = (
"149 0 LINE",
"149 384 LINE",
"93 384 LINE",
"93 0 LINE"
);
},
{
closed = 1;
nodes = (
"275 65 LINE",
"150 384 LINE",
"100 384 LINE",
"225 65 LINE"
);
},
{
closed = 1;
nodes = (
"407 384 LINE",
"351 384 LINE",
"351 0 LINE",
"407 0 LINE"
);
},
{
closed = 1;
nodes = (
"400 384 LINE",
"350 384 LINE",
"225 65 LINE",
"275 65 LINE"
);
}
);
width = 500;
}
);
unicode = 043C;
},
{
glyphname = "en-cy";
lastChange = "2018-05-09 09:22:44 +0000";
layers = (
{
layerId = "85099F7B-7F46-42FC-B840-CDE30C82BCDD";
paths = (
{
closed = 1;
nodes = (
"407 0 LINE",
"407 384 LINE",
"351 384 LINE",
"351 0 LINE"
);
},
{
closed = 1;
nodes = (
"403 227 LINE",
"95 227 LINE",
"95 173 LINE",
"403 173 LINE"
);
},
{
closed = 1;
nodes = (
"151 0 LINE",
"151 384 LINE",
"95 384 LINE",
"95 0 LINE"
);
},
{
closed = 1;
nodes = (
"157 173 LINE",
"151 173 LINE",
"151 167 LINE"
);
},
{
closed = 1;
nodes = (
"151 227 LINE",
"157 227 LINE",
"151 233 LINE"
);
},
{
closed = 1;
nodes = (
"351 173 LINE",
"345 173 LINE",
"351 167 LINE"
);
},
{
closed = 1;
nodes = (
"345 227 LINE",
"351 227 LINE",
"351 233 LINE"
);
}
);
width = 500;
}
);
unicode = 043D;
},
{
glyphname = "pe-cy";
lastChange = "2018-05-09 09:25:08 +0000";
layers = (
{
layerId = "85099F7B-7F46-42FC-B840-CDE30C82BCDD";
paths = (
{
closed = 1;
nodes = (
"150 0 LINE",
"150 384 LINE",
"94 384 LINE",
"94 0 LINE"
);
},
{
closed = 1;
nodes = (
"94 328 LINE",
"407 328 LINE",
"407 384 LINE",
"94 384 LINE"
);
},
{
closed = 1;
nodes = (
"408 0 LINE",
"408 384 LINE",
"352 384 LINE",
"352 0 LINE"
);
},
{
closed = 1;
nodes = (
"352 322 LINE",
"352 328 LINE",
"346 328 LINE"
);
},
{
closed = 1;
nodes = (
"150 328 LINE",
"150 322 LINE",
"156 328 LINE"
);
}
);
width = 500;
}
);
unicode = 043F;
},
{
glyphname = "te-cy";
lastChange = "2018-05-09 09:12:28 +0000";
layers = (
{
layerId = "85099F7B-7F46-42FC-B840-CDE30C82BCDD";
paths = (
{
closed = 1;
nodes = (
"415 384 LINE",
"85 384 LINE",
"85 330 LINE",
"415 330 LINE"
);
},
{
closed = 1;
nodes = (
"278 0 LINE",
"278 373 LINE",
"222 373 LINE",
"222 0 LINE"
);
},
{
closed = 1;
nodes = (
"222 324 LINE",
"222 330 LINE",
"216 330 LINE"
);
},
{
closed = 1;
nodes = (
"278 330 LINE",
"278 324 LINE",
"284 330 LINE"
);
}
);
width = 500;
}
);
unicode = 0442;
},
{
glyphname = "ef-cy";
lastChange = "2018-05-05 14:09:15 +0000";
layers = (
{
layerId = "85099F7B-7F46-42FC-B840-CDE30C82BCDD";
paths = (
{
closed = 1;
nodes = (
"223 -153 LINE",
"282 -153 LINE",
"282 545 LINE",
"223 545 LINE"
);
},
{
closed = 1;
nodes = (
"145 385 OFFCURVE",
"45 315 OFFCURVE",
"45 192 CURVE SMOOTH",
"45 71 OFFCURVE",
"140 1 OFFCURVE",
"254 0 CURVE SMOOTH",
"362 -1 OFFCURVE",
"460 71 OFFCURVE",
"460 192 CURVE SMOOTH",
"460 315 OFFCURVE",
"364 385 OFFCURVE",
"254 385 CURVE SMOOTH"
);
},
{
closed = 1;
nodes = (
"354 330 OFFCURVE",
"408 276 OFFCURVE",
"408 192 CURVE SMOOTH",
"408 110 OFFCURVE",
"357 54 OFFCURVE",
"254 54 CURVE SMOOTH",
"151 54 OFFCURVE",
"97 110 OFFCURVE",
"97 192 CURVE SMOOTH",
"97 276 OFFCURVE",
"148 332 OFFCURVE",
"254 331 CURVE SMOOTH"
);
}
);
width = 500;
}
);
unicode = 0444;
},
{
glyphname = "che-cy";
lastChange = "2018-05-09 09:25:30 +0000";
layers = (
{
layerId = "85099F7B-7F46-42FC-B840-CDE30C82BCDD";
paths = (
{
closed = 1;
nodes = (
"80 250 LINE",
"80 142 OFFCURVE",
"96 65 OFFCURVE",
"209 65 CURVE SMOOTH",
"296 65 OFFCURVE",
"347 110 OFFCURVE",
"369 185 CURVE",
"371 185 LINE",
"367 0 LINE",
"423 0 LINE",
"423 384 LINE",
"367 384 LINE",
"369 293 LINE",
"369 199 OFFCURVE",
"326 119 OFFCURVE",
"234 119 CURVE SMOOTH",
"175 119 OFFCURVE",
"136 132 OFFCURVE",
"136 228 CURVE",
"134 384 LINE",
"78 384 LINE"
);
}
);
width = 500;
}
);
unicode = 0447;
},
{
glyphname = "tse-cy";
lastChange = "2018-05-09 09:22:19 +0000";
layers = (
{
layerId = "85099F7B-7F46-42FC-B840-CDE30C82BCDD";
paths = (
{
closed = 1;
nodes = (
"69 0 LINE",
"125 0 LINE",
"125 384 LINE",
"69 384 LINE"
);
},
{
closed = 1;
nodes = (
"383 0 LINE",
"383 56 LINE",
"69 56 LINE",
"69 0 LINE"
);
},
{
closed = 1;
nodes = (
"327 0 LINE",
"383 0 LINE",
"383 384 LINE",
"327 384 LINE"
);
},
{
closed = 1;
nodes = (
"335 0 LINE",
"450 0 LINE",
"450 55 LINE",
"335 55 LINE"
);
},
{
closed = 1;
nodes = (
"392 -85 LINE",
"450 -85 LINE",
"450 55 LINE",
"392 55 LINE"
);
},
{
closed = 1;
nodes = (
"125 62 LINE",
"125 56 LINE",
"131 56 LINE"
);
},
{
closed = 1;
nodes = (
"327 56 LINE",
"327 62 LINE",
"321 56 LINE"
);
},
{
closed = 1;
nodes = (
"392 -6 LINE",
"392 0 LINE",
"386 0 LINE"
);
},
{
closed = 1;
nodes = (
"383 61 LINE",
"383 55 LINE",
"389 55 LINE"
);
}
);
width = 500;
}
);
unicode = 0446;
},
{
glyphname = "sha-cy";
lastChange = "2018-05-09 09:25:51 +0000";
layers = (
{
layerId = "85099F7B-7F46-42FC-B840-CDE30C82BCDD";
paths = (
{
closed = 1;
nodes = (
"92 0 LINE",
"148 0 LINE",
"148 384 LINE",
"92 384 LINE"
);
},
{
closed = 1;
nodes = (
"406 0 LINE",
"406 56 LINE",
"92 56 LINE",
"92 0 LINE"
);
},
{
closed = 1;
nodes = (
"350 0 LINE",
"406 0 LINE",
"406 384 LINE",
"350 384 LINE"
);
},
{
closed = 1;
nodes = (
"221 0 LINE",
"277 0 LINE",
"277 384 LINE",
"221 384 LINE"
);
},
{
closed = 1;
nodes = (
"221 56 LINE",
"221 62 LINE",
"215 56 LINE"
);
},
{
closed = 1;
nodes = (
"277 62 LINE",
"277 56 LINE",
"283 56 LINE"
);
},
{
closed = 1;
nodes = (
"148 62 LINE",
"148 56 LINE",
"154 56 LINE"
);
},
{
closed = 1;
nodes = (
"350 56 LINE",
"350 62 LINE",
"344 56 LINE"
);
}
);
width = 500;
}
);
unicode = 0448;
},
{
glyphname = "shcha-cy";
lastChange = "2018-05-09 09:26:26 +0000";
layers = (
{
layerId = "85099F7B-7F46-42FC-B840-CDE30C82BCDD";
paths = (
{
closed = 1;
nodes = (
"92 0 LINE",
"148 0 LINE",
"148 384 LINE",
"92 384 LINE"
);
},
{
closed = 1;
nodes = (
"406 0 LINE",
"406 56 LINE",
"92 56 LINE",
"92 0 LINE"
);
},
{
closed = 1;
nodes = (
"350 0 LINE",
"406 0 LINE",
"406 384 LINE",
"350 384 LINE"
);
},
{
closed = 1;
nodes = (
"221 0 LINE",
"277 0 LINE",
"277 384 LINE",
"221 384 LINE"
);
},
{
closed = 1;
nodes = (
"335 0 LINE",
"450 0 LINE",
"450 55 LINE",
"335 55 LINE"
);
},
{
closed = 1;
nodes = (
"392 -85 LINE",
"450 -85 LINE",
"450 55 LINE",
"392 55 LINE"
);
},
{
closed = 1;
nodes = (
"221 56 LINE",
"221 62 LINE",
"215 56 LINE"
);
},
{
closed = 1;
nodes = (
"277 62 LINE",
"277 56 LINE",
"283 56 LINE"
);
},
{
closed = 1;
nodes = (
"148 62 LINE",
"148 56 LINE",
"154 56 LINE"
);
},
{
closed = 1;
nodes = (
"350 56 LINE",
"350 62 LINE",
"344 56 LINE"
);
},
{
closed = 1;
nodes = (
"392 -6 LINE",
"392 0 LINE",
"386 0 LINE"
);
},
{
closed = 1;
nodes = (
"406 61 LINE",
"406 55 LINE",
"412 55 LINE"
);
}
);
width = 500;
}
);
unicode = 0449;
},
{
glyphname = "softsign-cy";
lastChange = "2018-05-09 09:27:34 +0000";
layers = (
{
layerId = "85099F7B-7F46-42FC-B840-CDE30C82BCDD";
paths = (
{
closed = 1;
nodes = (
"171 0 LINE",
"171 384 LINE",
"115 384 LINE",
"115 0 LINE"
);
},
{
closed = 1;
nodes = (
"368 -1 OFFCURVE",
"420 51 OFFCURVE",
"420 114 CURVE",
"420 177 OFFCURVE",
"368 229 OFFCURVE",
"305 229 CURVE",
"115 229 LINE",
"115 173 LINE",
"308 173 LINE",
"340 173 OFFCURVE",
"366 146 OFFCURVE",
"366 115 CURVE",
"366 82 OFFCURVE",
"340 56 OFFCURVE",
"308 56 CURVE",
"115 56 LINE",
"115 0 LINE",
"305 -1 LINE"
);
},
{
closed = 1;
nodes = (
"171 62 LINE",
"171 56 LINE",
"177 56 LINE"
);
},
{
closed = 1;
nodes = (
"171 173 LINE",
"171 167 LINE",
"177 173 LINE"
);
},
{
closed = 1;
nodes = (
"171 235 LINE",
"171 229 LINE",
"177 229 LINE"
);
}
);
width = 500;
}
);
unicode = 044C;
},
{
glyphname = "hardsign-cy";
lastChange = "2018-05-09 09:27:58 +0000";
layers = (
{
layerId = "85099F7B-7F46-42FC-B840-CDE30C82BCDD";
paths = (
{
closed = 1;
nodes = (
"156 0 LINE",
"156 384 LINE",
"100 384 LINE",
"100 0 LINE"
);
},
{
closed = 1;
nodes = (
"353 -1 OFFCURVE",
"405 51 OFFCURVE",
"405 114 CURVE",
"405 177 OFFCURVE",
"353 229 OFFCURVE",
"290 229 CURVE",
"100 229 LINE",
"100 173 LINE",
"293 173 LINE",
"325 173 OFFCURVE",
"351 146 OFFCURVE",
"351 115 CURVE",
"351 82 OFFCURVE",
"325 56 OFFCURVE",
"293 56 CURVE",
"100 56 LINE",
"100 0 LINE",
"290 -1 LINE"
);
},
{
closed = 1;
nodes = (
"44 328 LINE",
"135 328 LINE",
"135 384 LINE",
"44 384 LINE"
);
},
{
closed = 1;
nodes = (
"156 62 LINE",
"156 56 LINE",
"162 56 LINE"
);
},
{
closed = 1;
nodes = (
"156 173 LINE",
"156 167 LINE",
"162 173 LINE"
);
},
{
closed = 1;
nodes = (
"156 235 LINE",
"156 229 LINE",
"162 229 LINE"
);
}
);
width = 500;
}
);
unicode = 044A;
},
{
glyphname = "yeru-cy";
lastChange = "2018-05-09 09:28:11 +0000";
layers = (
{
layerId = "85099F7B-7F46-42FC-B840-CDE30C82BCDD";
paths = (
{
closed = 1;
nodes = (
"89 0 LINE",
"89 384 LINE",
"33 384 LINE",
"33 0 LINE"
);
},
{
closed = 1;
nodes = (
"286 -1 OFFCURVE",
"338 51 OFFCURVE",
"338 114 CURVE",
"338 177 OFFCURVE",
"286 229 OFFCURVE",
"223 229 CURVE",
"33 229 LINE",
"33 173 LINE",
"226 173 LINE",
"258 173 OFFCURVE",
"284 146 OFFCURVE",
"284 115 CURVE",
"284 82 OFFCURVE",
"258 56 OFFCURVE",
"226 56 CURVE",
"33 56 LINE",
"33 0 LINE",
"223 -1 LINE"
);
},
{
closed = 1;
nodes = (
"450 0 LINE",
"450 384 LINE",
"394 384 LINE",
"394 0 LINE"
);
},
{
closed = 1;
nodes = (
"89 62 LINE",
"89 56 LINE",
"95 56 LINE"
);
},
{
closed = 1;
nodes = (
"89 173 LINE",
"89 167 LINE",
"95 173 LINE"
);
},
{
closed = 1;
nodes = (
"89 235 LINE",
"89 229 LINE",
"95 229 LINE"
);
}
);
width = 500;
}
);
unicode = 044B;
},
{
glyphname = "ereversed-cy";
lastChange = "2018-05-02 09:05:11 +0000";
layers = (
{
layerId = "85099F7B-7F46-42FC-B840-CDE30C82BCDD";
paths = (
{
closed = 1;
nodes = (
"79 117 LINE",
"103 48 OFFCURVE",
"162 -3 OFFCURVE",
"248 -3 CURVE SMOOTH",
"364 -3 OFFCURVE",
"431 88 OFFCURVE",
"431 193 CURVE SMOOTH",
"431 297 OFFCURVE",
"364 392 OFFCURVE",
"248 392 CURVE SMOOTH",
"166 392 OFFCURVE",
"108 347 OFFCURVE",
"82 281 CURVE",
"143 281 LINE",
"164 319 OFFCURVE",
"202 338 OFFCURVE",
"248 338 CURVE SMOOTH",
"323 338 OFFCURVE",
"374 289 OFFCURVE",
"374 193 CURVE SMOOTH",
"374 102 OFFCURVE",
"323 51 OFFCURVE",
"248 51 CURVE SMOOTH",
"198 51 OFFCURVE",
"158 73 OFFCURVE",
"137 117 CURVE"
);
},
{
closed = 1;
nodes = (
"240 165 LINE",
"426 165 LINE",
"426 221 LINE",
"240 221 LINE"
);
}
);
width = 500;
}
);
unicode = 044D;
},
{
glyphname = "iu-cy";
lastChange = "2018-05-09 09:13:02 +0000";
layers = (
{
layerId = "85099F7B-7F46-42FC-B840-CDE30C82BCDD";
paths = (
{
closed = 1;
nodes = (
"486 297 OFFCURVE",
"419 392 OFFCURVE",
"303 392 CURVE SMOOTH",
"187 392 OFFCURVE",
"120 302 OFFCURVE",
"120 193 CURVE SMOOTH",
"120 90 OFFCURVE",
"187 -3 OFFCURVE",
"303 -3 CURVE SMOOTH",
"419 -3 OFFCURVE",
"486 88 OFFCURVE",
"486 193 CURVE SMOOTH"
);
},
{
closed = 1;
nodes = (
"429 102 OFFCURVE",
"378 51 OFFCURVE",
"303 51 CURVE SMOOTH",
"228 51 OFFCURVE",
"177 100 OFFCURVE",
"177 193 CURVE SMOOTH",
"177 287 OFFCURVE",
"228 338 OFFCURVE",
"303 338 CURVE SMOOTH",
"378 338 OFFCURVE",
"429 289 OFFCURVE",
"429 193 CURVE SMOOTH"
);
},
{
closed = 1;
nodes = (
"17 0 LINE",
"75 0 LINE",
"75 384 LINE",
"17 384 LINE"
);
},
{
closed = 1;
nodes = (
"43 165 LINE",
"162 165 LINE",
"162 221 LINE",
"43 221 LINE"
);
},
{
closed = 1;
nodes = (
"81 165 LINE",
"75 165 LINE",
"75 159 LINE"
);
},
{
closed = 1;
nodes = (
"75 221 LINE",
"81 221 LINE",
"75 227 LINE"
);
}
);
width = 500;
}
);
unicode = 044E;
},
{
glyphname = "ia-cy";
lastChange = "2018-05-09 09:20:36 +0000";
layers = (
{
layerId = "85099F7B-7F46-42FC-B840-CDE30C82BCDD";
paths = (
{
closed = 1;
nodes = (
"346 364 LINE",
"346 0 LINE",
"402 0 LINE",
"402 364 LINE"
);
},
{
closed = 1;
nodes = (
"214 170 LINE",
"111 0 LINE",
"173 0 LINE",
"276 170 LINE"
);
},
{
closed = 1;
nodes = (
"402 155 LINE",
"402 211 LINE",
"209 211 LINE",
"177 211 OFFCURVE",
"151 237 OFFCURVE",
"151 270 CURVE",
"151 301 OFFCURVE",
"177 328 OFFCURVE",
"209 328 CURVE",
"402 328 LINE",
"402 384 LINE",
"212 384 LINE",
"149 384 OFFCURVE",
"97 332 OFFCURVE",
"97 269 CURVE",
"97 206 OFFCURVE",
"149 155 OFFCURVE",
"212 155 CURVE"
);
},
{
closed = 1;
nodes = (
"346 155 LINE",
"340 155 LINE",
"346 149 LINE"
);
},
{
closed = 1;
nodes = (
"340 211 LINE",
"346 211 LINE",
"346 217 LINE"
);
},
{
closed = 1;
nodes = (
"346 328 LINE",
"340 328 LINE",
"346 322 LINE"
);
}
);
width = 500;
}
);
unicode = 044F;
},
{
glyphname = Delta;
lastChange = "2018-05-02 12:17:05 +0000";
layers = (
{
layerId = "85099F7B-7F46-42FC-B840-CDE30C82BCDD";
paths = (
{
closed = 1;
nodes = (
"89 56 LINE",
"280 545 LINE",
"221 545 LINE",
"30 56 LINE"
);
},
{
closed = 1;
nodes = (
"30 0 LINE",
"470 0 LINE",
"470 56 LINE",
"30 56 LINE"
);
},
{
closed = 1;
nodes = (
"89 56 LINE",
"280 545 LINE",
"221 545 LINE",
"30 56 LINE"
);
},
{
closed = 1;
nodes = (
"279 545 LINE",
"220 545 LINE",
"411 56 LINE",
"470 56 LINE"
);
}
);
width = 500;
}
);
unicode = 0394;
},
{
glyphname = Kappa;
lastChange = "2018-05-04 16:43:13 +0000";
layers = (
{
layerId = "85099F7B-7F46-42FC-B840-CDE30C82BCDD";
paths = (
{
closed = 1;
nodes = (
"70 0 LINE",
"126 0 LINE",
"126 545 LINE",
"70 545 LINE"
);
},
{
closed = 1;
nodes = (
"119 278 LINE",
"186 278 LINE",
"401 545 LINE",
"334 545 LINE"
);
},
{
closed = 1;
nodes = (
"427 0 LINE",
"186 278 LINE",
"119 278 LINE",
"360 0 LINE"
);
}
);
width = 500;
},
{
associatedMasterId = "85099F7B-7F46-42FC-B840-CDE30C82BCDD";
components = (
{
name = K;
}
);
layerId = "A57B65AC-103B-45D1-B59A-567672CFF11F";
name = "May 2 18, 16:17";
width = 500;
}
);
unicode = 039A;
},
{
glyphname = Lambda;
lastChange = "2018-05-02 14:17:48 +0000";
layers = (
{
layerId = "85099F7B-7F46-42FC-B840-CDE30C82BCDD";
paths = (
{
closed = 1;
nodes = (
"67 0 LINE",
"280 545 LINE",
"221 545 LINE",
"8 0 LINE"
);
},
{
closed = 1;
nodes = (
"67 0 LINE",
"280 545 LINE",
"221 545 LINE",
"8 0 LINE"
);
},
{
closed = 1;
nodes = (
"279 545 LINE",
"220 545 LINE",
"433 0 LINE",
"492 0 LINE"
);
}
);
width = 500;
},
{
associatedMasterId = "85099F7B-7F46-42FC-B840-CDE30C82BCDD";
layerId = "2217B295-99A7-4041-9181-B2895806F745";
name = "May 2 18, 16:17";
paths = (
{
closed = 1;
nodes = (
"67 0 LINE",
"280 545 LINE",
"221 545 LINE",
"8 0 LINE"
);
},
{
closed = 1;
nodes = (
"67 0 LINE",
"280 545 LINE",
"221 545 LINE",
"8 0 LINE"
);
},
{
closed = 1;
nodes = (
"279 545 LINE",
"220 545 LINE",
"433 0 LINE",
"492 0 LINE"
);
}
);
width = 500;
}
);
unicode = 039B;
},
{
glyphname = Xi;
lastChange = "2018-05-02 14:17:48 +0000";
layers = (
{
layerId = "85099F7B-7F46-42FC-B840-CDE30C82BCDD";
paths = (
{
closed = 1;
nodes = (
"424 54 LINE",
"78 54 LINE",
"78 0 LINE",
"424 0 LINE"
);
},
{
closed = 1;
nodes = (
"424 545 LINE",
"78 545 LINE",
"78 491 LINE",
"424 491 LINE"
);
},
{
closed = 1;
nodes = (
"354 303 LINE",
"148 303 LINE",
"148 249 LINE",
"354 249 LINE"
);
}
);
width = 500;
},
{
associatedMasterId = "85099F7B-7F46-42FC-B840-CDE30C82BCDD";
layerId = "1DDD7BFF-D91E-44BD-852E-10F1825A6095";
name = "May 2 18, 16:17";
paths = (
{
closed = 1;
nodes = (
"424 54 LINE",
"78 54 LINE",
"78 0 LINE",
"424 0 LINE"
);
},
{
closed = 1;
nodes = (
"424 545 LINE",
"78 545 LINE",
"78 491 LINE",
"424 491 LINE"
);
},
{
closed = 1;
nodes = (
"354 303 LINE",
"148 303 LINE",
"148 249 LINE",
"354 249 LINE"
);
}
);
width = 500;
}
);
unicode = 039E;
},
{
glyphname = Pi;
lastChange = "2018-05-09 12:31:18 +0000";
layers = (
{
layerId = "85099F7B-7F46-42FC-B840-CDE30C82BCDD";
paths = (
{
closed = 1;
nodes = (
"69 489 LINE",
"432 489 LINE",
"432 545 LINE",
"69 545 LINE"
);
},
{
closed = 1;
nodes = (
"433 0 LINE",
"433 545 LINE",
"377 545 LINE",
"377 0 LINE"
);
},
{
closed = 1;
nodes = (
"377 489 LINE",
"371 489 LINE",
"377 483 LINE"
);
},
{
closed = 1;
nodes = (
"130 489 LINE",
"123 489 LINE",
"123 483 LINE"
);
},
{
closed = 1;
nodes = (
"123 -1 LINE",
"123 544 LINE",
"67 544 LINE",
"67 -1 LINE"
);
}
);
width = 500;
},
{
associatedMasterId = "85099F7B-7F46-42FC-B840-CDE30C82BCDD";
layerId = "31696874-EC60-4CB1-B734-59ACE473446A";
name = "May 2 18, 16:17";
paths = (
{
closed = 1;
nodes = (
"113 0 LINE",
"113 545 LINE",
"57 545 LINE",
"57 0 LINE"
);
},
{
closed = 1;
nodes = (
"57 489 LINE",
"438 489 LINE",
"438 545 LINE",
"57 545 LINE"
);
},
{
closed = 1;
nodes = (
"438 0 LINE",
"438 545 LINE",
"382 545 LINE",
"382 0 LINE"
);
}
);
width = 500;
}
);
unicode = 03A0;
},
{
glyphname = Sigma;
lastChange = "2018-05-02 14:17:48 +0000";
layers = (
{
layerId = "85099F7B-7F46-42FC-B840-CDE30C82BCDD";
paths = (
{
closed = 1;
nodes = (
"57 0 LINE",
"438 0 LINE",
"438 56 LINE",
"57 56 LINE"
);
},
{
closed = 1;
nodes = (
"57 488 LINE",
"438 488 LINE",
"438 544 LINE",
"57 544 LINE"
);
},
{
closed = 1;
nodes = (
"240 272 LINE",
"317 272 LINE",
"134 488 LINE",
"57 488 LINE"
);
},
{
closed = 1;
nodes = (
"240 272 LINE",
"57 56 LINE",
"134 56 LINE",
"317 272 LINE"
);
}
);
width = 500;
},
{
associatedMasterId = "85099F7B-7F46-42FC-B840-CDE30C82BCDD";
layerId = "2608E916-1FAF-4E55-83AE-1523941F9565";
name = "May 2 18, 16:17";
paths = (
{
closed = 1;
nodes = (
"57 0 LINE",
"438 0 LINE",
"438 56 LINE",
"57 56 LINE"
);
},
{
closed = 1;
nodes = (
"57 488 LINE",
"438 488 LINE",
"438 544 LINE",
"57 544 LINE"
);
},
{
closed = 1;
nodes = (
"240 272 LINE",
"317 272 LINE",
"134 488 LINE",
"57 488 LINE"
);
},
{
closed = 1;
nodes = (
"240 272 LINE",
"57 56 LINE",
"134 56 LINE",
"317 272 LINE"
);
}
);
width = 500;
}
);
unicode = 03A3;
},
{
glyphname = Upsilon;
lastChange = "2018-05-02 14:17:48 +0000";
layers = (
{
layerId = "85099F7B-7F46-42FC-B840-CDE30C82BCDD";
paths = (
{
closed = 1;
nodes = (
"222 214 LINE",
"222 0 LINE",
"278 0 LINE",
"278 214 LINE",
"450 545 LINE",
"394 545 LINE",
"250 260 LINE",
"106 545 LINE",
"50 545 LINE"
);
}
);
width = 500;
},
{
associatedMasterId = "85099F7B-7F46-42FC-B840-CDE30C82BCDD";
layerId = "5B8404F3-ED2F-4B46-9166-8B074235DBE3";
name = "May 2 18, 16:17";
paths = (
{
closed = 1;
nodes = (
"222 214 LINE",
"222 0 LINE",
"278 0 LINE",
"278 214 LINE",
"450 545 LINE",
"394 545 LINE",
"250 260 LINE",
"106 545 LINE",
"50 545 LINE"
);
}
);
width = 500;
}
);
unicode = 03A5;
},
{
glyphname = Phi;
lastChange = "2018-05-02 14:17:48 +0000";
layers = (
{
layerId = "85099F7B-7F46-42FC-B840-CDE30C82BCDD";
paths = (
{
closed = 1;
nodes = (
"366 130 OFFCURVE",
"485 212 OFFCURVE",
"485 337 CURVE SMOOTH",
"485 462 OFFCURVE",
"366 545 OFFCURVE",
"252 545 CURVE SMOOTH",
"138 545 OFFCURVE",
"15 462 OFFCURVE",
"15 337 CURVE SMOOTH",
"15 212 OFFCURVE",
"138 128 OFFCURVE",
"252 129 CURVE SMOOTH"
);
},
{
closed = 1;
nodes = (
"143 186 OFFCURVE",
"69 257 OFFCURVE",
"69 337 CURVE SMOOTH",
"69 417 OFFCURVE",
"143 488 OFFCURVE",
"252 488 CURVE SMOOTH",
"361 488 OFFCURVE",
"431 417 OFFCURVE",
"431 337 CURVE SMOOTH",
"431 257 OFFCURVE",
"361 186 OFFCURVE",
"252 186 CURVE SMOOTH"
);
},
{
closed = 1;
nodes = (
"222 0 LINE",
"280 0 LINE",
"281 543 LINE",
"223 543 LINE"
);
}
);
width = 500;
},
{
associatedMasterId = "85099F7B-7F46-42FC-B840-CDE30C82BCDD";
layerId = "43BEE2F8-593B-4181-8E64-2CF7385AEDEC";
name = "May 2 18, 16:17";
paths = (
{
closed = 1;
nodes = (
"366 130 OFFCURVE",
"485 212 OFFCURVE",
"485 337 CURVE SMOOTH",
"485 462 OFFCURVE",
"366 545 OFFCURVE",
"252 545 CURVE SMOOTH",
"138 545 OFFCURVE",
"15 462 OFFCURVE",
"15 337 CURVE SMOOTH",
"15 212 OFFCURVE",
"138 128 OFFCURVE",
"252 129 CURVE SMOOTH"
);
},
{
closed = 1;
nodes = (
"143 186 OFFCURVE",
"69 257 OFFCURVE",
"69 337 CURVE SMOOTH",
"69 417 OFFCURVE",
"143 488 OFFCURVE",
"252 488 CURVE SMOOTH",
"361 488 OFFCURVE",
"431 417 OFFCURVE",
"431 337 CURVE SMOOTH",
"431 257 OFFCURVE",
"361 186 OFFCURVE",
"252 186 CURVE SMOOTH"
);
},
{
closed = 1;
nodes = (
"222 0 LINE",
"280 0 LINE",
"281 543 LINE",
"223 543 LINE"
);
}
);
width = 500;
}
);
unicode = 03A6;
},
{
glyphname = Psi;
lastChange = "2018-05-02 14:18:56 +0000";
layers = (
{
layerId = "85099F7B-7F46-42FC-B840-CDE30C82BCDD";
paths = (
{
closed = 1;
nodes = (
"222 0 LINE",
"280 0 LINE",
"281 545 LINE",
"223 545 LINE"
);
},
{
closed = 1;
nodes = (
"431 337 LINE",
"431 257 OFFCURVE",
"361 186 OFFCURVE",
"252 186 CURVE SMOOTH",
"143 186 OFFCURVE",
"69 257 OFFCURVE",
"69 337 CURVE",
"15 337 LINE",
"15 212 OFFCURVE",
"138 128 OFFCURVE",
"252 129 CURVE SMOOTH",
"366 130 OFFCURVE",
"485 212 OFFCURVE",
"485 337 CURVE"
);
},
{
closed = 1;
nodes = (
"15 337 LINE",
"69 337 LINE",
"69 545 LINE",
"15 545 LINE"
);
},
{
closed = 1;
nodes = (
"431 337 LINE",
"485 337 LINE",
"485 545 LINE",
"431 545 LINE"
);
}
);
width = 500;
}
);
unicode = 03A8;
},
{
glyphname = Omega;
lastChange = "2018-05-04 16:36:23 +0000";
layers = (
{
layerId = "85099F7B-7F46-42FC-B840-CDE30C82BCDD";
paths = (
{
closed = 1;
nodes = (
"20 0 LINE",
"178 0 LINE",
"178 56 LINE",
"20 56 LINE"
);
},
{
closed = 1;
nodes = (
"320 0 LINE",
"480 0 LINE",
"480 56 LINE",
"320 56 LINE"
);
},
{
closed = 1;
nodes = (
"376 56 LINE",
"434 95 OFFCURVE",
"485 195 OFFCURVE",
"485 295 CURVE SMOOTH",
"485 450 OFFCURVE",
"382 549 OFFCURVE",
"250 549 CURVE SMOOTH",
"118 549 OFFCURVE",
"15 450 OFFCURVE",
"15 295 CURVE SMOOTH",
"15 195 OFFCURVE",
"64 95 OFFCURVE",
"122 56 CURVE",
"178 56 LINE",
"134 100 OFFCURVE",
"72 173 OFFCURVE",
"72 295 CURVE SMOOTH",
"72 425 OFFCURVE",
"148 495 OFFCURVE",
"250 495 CURVE SMOOTH",
"337 495 OFFCURVE",
"428 425 OFFCURVE",
"428 295 CURVE SMOOTH",
"428 173 OFFCURVE",
"364 100 OFFCURVE",
"320 56 CURVE"
);
}
);
width = 500;
}
);
unicode = 03A9;
},
{
glyphname = KaiSymbol;
lastChange = "2018-05-04 16:40:54 +0000";
layers = (
{
layerId = "85099F7B-7F46-42FC-B840-CDE30C82BCDD";
paths = (
{
closed = 1;
nodes = (
"70 0 LINE",
"126 0 LINE",
"126 545 LINE",
"70 545 LINE"
);
},
{
closed = 1;
nodes = (
"119 278 LINE",
"186 278 LINE",
"401 545 LINE",
"334 545 LINE"
);
},
{
closed = 1;
nodes = (
"427 0 LINE",
"186 278 LINE",
"119 278 LINE",
"360 0 LINE"
);
},
{
closed = 1;
nodes = (
"285 -110 LINE",
"305 -110 LINE",
"427 0 LINE",
"360 0 LINE"
);
}
);
width = 500;
}
);
unicode = 03CF;
},
{
glyphname = alpha;
lastChange = "2018-05-05 16:26:58 +0000";
layers = (
{
layerId = "85099F7B-7F46-42FC-B840-CDE30C82BCDD";
paths = (
{
closed = 1;
nodes = (
"346 285 OFFCURVE",
"366 176 OFFCURVE",
"368 72 CURVE",
"372 72 LINE",
"363 48 LINE",
"420 77 LINE",
"420 179 OFFCURVE",
"407 282 OFFCURVE",
"420 384 CURVE",
"363 384 LINE"
);
},
{
closed = 1;
nodes = (
"54 88 OFFCURVE",
"121 -7 OFFCURVE",
"237 -7 CURVE SMOOTH",
"353 -7 OFFCURVE",
"390 83 OFFCURVE",
"390 192 CURVE SMOOTH",
"390 295 OFFCURVE",
"353 388 OFFCURVE",
"237 388 CURVE SMOOTH",
"121 388 OFFCURVE",
"54 297 OFFCURVE",
"54 186 CURVE SMOOTH"
);
},
{
closed = 1;
nodes = (
"111 283 OFFCURVE",
"162 334 OFFCURVE",
"237 334 CURVE SMOOTH",
"312 334 OFFCURVE",
"361 285 OFFCURVE",
"361 192 CURVE SMOOTH",
"361 98 OFFCURVE",
"312 47 OFFCURVE",
"237 47 CURVE SMOOTH",
"162 47 OFFCURVE",
"111 96 OFFCURVE",
"111 186 CURVE SMOOTH"
);
},
{
closed = 1;
nodes = (
"455 54 LINE",
"440 54 OFFCURVE",
"420 59 OFFCURVE",
"420 77 CURVE",
"363 48 LINE",
"363 27 OFFCURVE",
"396 0 OFFCURVE",
"440 0 CURVE"
);
}
);
width = 500;
}
);
unicode = 03B1;
},
{
glyphname = beta;
lastChange = "2018-05-05 14:56:10 +0000";
layers = (
{
layerId = "85099F7B-7F46-42FC-B840-CDE30C82BCDD";
paths = (
{
closed = 1;
nodes = (
"85 -153 LINE",
"143 -153 LINE",
"143 45 LINE",
"173 14 OFFCURVE",
"209 0 OFFCURVE",
"251 0 CURVE SMOOTH",
"372 0 OFFCURVE",
"450 82 OFFCURVE",
"450 166 CURVE SMOOTH",
"450 274 OFFCURVE",
"362 290 OFFCURVE",
"355 290 CURVE",
"355 292 LINE",
"362 292 OFFCURVE",
"421 316 OFFCURVE",
"421 392 CURVE SMOOTH",
"421 466 OFFCURVE",
"372 545 OFFCURVE",
"251 545 CURVE SMOOTH",
"130 545 OFFCURVE",
"85 466 OFFCURVE",
"85 380 CURVE"
);
},
{
closed = 1;
nodes = (
"143 430 OFFCURVE",
"164 491 OFFCURVE",
"251 491 CURVE SMOOTH",
"343 491 OFFCURVE",
"364 430 OFFCURVE",
"364 392 CURVE SMOOTH",
"364 329 OFFCURVE",
"321 316 OFFCURVE",
"257 316 CURVE",
"257 255 LINE",
"333 255 OFFCURVE",
"392 247 OFFCURVE",
"392 165 CURVE SMOOTH",
"392 125 OFFCURVE",
"365 56 OFFCURVE",
"251 56 CURVE SMOOTH",
"199 56 OFFCURVE",
"164 71 OFFCURVE",
"143 90 CURVE",
"143 380 LINE"
);
}
);
width = 500;
}
);
unicode = 03B2;
},
{
glyphname = gamma;
lastChange = "2018-05-05 14:50:06 +0000";
layers = (
{
layerId = "85099F7B-7F46-42FC-B840-CDE30C82BCDD";
paths = (
{
closed = 1;
nodes = (
"279 0 LINE",
"439 384 LINE",
"381 384 LINE",
"222 0 LINE"
);
},
{
closed = 1;
nodes = (
"120 384 LINE",
"62 384 LINE",
"222 0 LINE",
"279 0 LINE"
);
},
{
closed = 1;
nodes = (
"222 -153 LINE",
"279 -153 LINE",
"279 0 LINE",
"222 0 LINE"
);
}
);
width = 500;
}
);
unicode = 03B3;
},
{
glyphname = delta;
lastChange = "2018-05-09 09:55:24 +0000";
layers = (
{
layerId = "85099F7B-7F46-42FC-B840-CDE30C82BCDD";
paths = (
{
closed = 1;
nodes = (
"68 90 OFFCURVE",
"135 -3 OFFCURVE",
"254 -3 CURVE SMOOTH",
"373 -3 OFFCURVE",
"440 88 OFFCURVE",
"440 193 CURVE SMOOTH",
"440 260 OFFCURVE",
"412 324 OFFCURVE",
"359 361 CURVE",
"306 404 OFFCURVE",
"157 407 OFFCURVE",
"157 458 CURVE SMOOTH",
"157 485 OFFCURVE",
"196 497 OFFCURVE",
"267 497 CURVE SMOOTH",
"332 497 OFFCURVE",
"384 475 OFFCURVE",
"405 465 CURVE",
"405 517 LINE",
"384 527 OFFCURVE",
"342 550 OFFCURVE",
"267 550 CURVE SMOOTH",
"155 550 OFFCURVE",
"103 508 OFFCURVE",
"103 458 CURVE SMOOTH",
"103 410 OFFCURVE",
"145 395 OFFCURVE",
"190 382 CURVE",
"190 382 OFFCURVE",
"190 380 OFFCURVE",
"190 380 CURVE SMOOTH",
"111 353 OFFCURVE",
"68 280 OFFCURVE",
"68 193 CURVE SMOOTH"
);
},
{
closed = 1;
nodes = (
"125 287 OFFCURVE",
"176 338 OFFCURVE",
"254 338 CURVE SMOOTH",
"332 338 OFFCURVE",
"383 289 OFFCURVE",
"383 193 CURVE SMOOTH",
"383 102 OFFCURVE",
"332 51 OFFCURVE",
"254 51 CURVE SMOOTH",
"176 51 OFFCURVE",
"125 100 OFFCURVE",
"125 193 CURVE SMOOTH"
);
}
);
width = 500;
}
);
unicode = 03B4;
},
{
glyphname = epsilon;
lastChange = "2018-05-05 15:11:25 +0000";
layers = (
{
layerId = "85099F7B-7F46-42FC-B840-CDE30C82BCDD";
paths = (
{
closed = 1;
nodes = (
"385 110 LINE",
"356 83 OFFCURVE",
"308 54 OFFCURVE",
"254 54 CURVE SMOOTH",
"192 54 OFFCURVE",
"160 88 OFFCURVE",
"160 122 CURVE",
"160 174 OFFCURVE",
"214 180 OFFCURVE",
"268 180 CURVE",
"268 223 LINE",
"223 223 OFFCURVE",
"178 232 OFFCURVE",
"178 275 CURVE SMOOTH",
"178 303 OFFCURVE",
"201 330 OFFCURVE",
"254 330 CURVE SMOOTH",
"299 330 OFFCURVE",
"342 311 OFFCURVE",
"371 284 CURVE",
"371 349 LINE",
"348 370 OFFCURVE",
"299 384 OFFCURVE",
"252 384 CURVE SMOOTH",
"166 384 OFFCURVE",
"128 337 OFFCURVE",
"128 277 CURVE SMOOTH",
"128 232 OFFCURVE",
"170 206 OFFCURVE",
"175 206 CURVE",
"175 204 LINE",
"170 204 OFFCURVE",
"108 184 OFFCURVE",
"108 122 CURVE SMOOTH",
"108 49 OFFCURVE",
"166 0 OFFCURVE",
"252 0 CURVE SMOOTH",
"309 0 OFFCURVE",
"362 24 OFFCURVE",
"385 45 CURVE"
);
},
{
closed = 1;
nodes = (
"268 180 LINE",
"328 180 LINE",
"328 223 LINE",
"268 223 LINE"
);
}
);
width = 500;
}
);
unicode = 03B5;
},
{
glyphname = zeta;
lastChange = "2018-05-09 09:54:16 +0000";
layers = (
{
layerId = "85099F7B-7F46-42FC-B840-CDE30C82BCDD";
paths = (
{
closed = 1;
nodes = (
"330 491 LINE",
"330 487 LINE",
"273 443 OFFCURVE",
"95 349 OFFCURVE",
"95 187 CURVE SMOOTH",
"95 91 OFFCURVE",
"156 11 OFFCURVE",
"266 0 CURVE SMOOTH",
"325 -6 OFFCURVE",
"369 -5 OFFCURVE",
"369 -44 CURVE SMOOTH",
"369 -82 OFFCURVE",
"325 -100 OFFCURVE",
"262 -100 CURVE",
"254 -154 LINE",
"340 -154 OFFCURVE",
"425 -128 OFFCURVE",
"425 -35 CURVE SMOOTH",
"425 37 OFFCURVE",
"369 43 OFFCURVE",
"275 54 CURVE SMOOTH",
"192 64 OFFCURVE",
"151 123 OFFCURVE",
"151 187 CURVE SMOOTH",
"151 354 OFFCURVE",
"357 448 OFFCURVE",
"410 491 CURVE",
"410 545 LINE",
"142 545 LINE",
"142 491 LINE"
);
}
);
width = 500;
}
);
unicode = 03B6;
},
{
glyphname = eta;
lastChange = "2018-05-05 14:18:45 +0000";
layers = (
{
layerId = "85099F7B-7F46-42FC-B840-CDE30C82BCDD";
paths = (
{
closed = 1;
nodes = (
"424 213 LINE",
"424 310 OFFCURVE",
"408 387 OFFCURVE",
"295 387 CURVE SMOOTH",
"208 387 OFFCURVE",
"160 342 OFFCURVE",
"138 267 CURVE",
"133 267 LINE",
"135 382 LINE",
"79 382 LINE",
"79 -4 LINE",
"135 -4 LINE",
"135 159 LINE",
"135 253 OFFCURVE",
"178 333 OFFCURVE",
"270 333 CURVE SMOOTH",
"322 333 OFFCURVE",
"368 320 OFFCURVE",
"368 224 CURVE",
"368 -153 LINE",
"424 -153 LINE"
);
}
);
width = 500;
}
);
unicode = 03B7;
},
{
glyphname = theta;
lastChange = "2018-05-05 19:06:13 +0000";
layers = (
{
layerId = "85099F7B-7F46-42FC-B840-CDE30C82BCDD";
paths = (
{
closed = 1;
nodes = (
"445 420 OFFCURVE",
"378 545 OFFCURVE",
"259 545 CURVE SMOOTH",
"140 545 OFFCURVE",
"73 425 OFFCURVE",
"73 272 CURVE SMOOTH",
"73 122 OFFCURVE",
"140 -3 OFFCURVE",
"259 -3 CURVE SMOOTH",
"378 -3 OFFCURVE",
"445 120 OFFCURVE",
"445 272 CURVE SMOOTH"
);
},
{
closed = 1;
nodes = (
"388 134 OFFCURVE",
"337 49 OFFCURVE",
"259 49 CURVE SMOOTH",
"181 49 OFFCURVE",
"130 132 OFFCURVE",
"130 272 CURVE SMOOTH",
"130 410 OFFCURVE",
"181 493 OFFCURVE",
"259 493 CURVE SMOOTH",
"337 493 OFFCURVE",
"388 412 OFFCURVE",
"388 272 CURVE SMOOTH"
);
},
{
closed = 1;
nodes = (
"101 259 LINE",
"429 259 LINE",
"429 309 LINE",
"101 309 LINE"
);
}
);
width = 500;
}
);
unicode = 03B8;
},
{
glyphname = iota;
lastChange = "2018-05-05 14:38:21 +0000";
layers = (
{
layerId = "85099F7B-7F46-42FC-B840-CDE30C82BCDD";
paths = (
{
closed = 1;
nodes = (
"280 384 LINE",
"223 384 LINE",
"223 0 LINE",
"280 0 LINE"
);
}
);
width = 500;
}
);
unicode = 03B9;
},
{
glyphname = kappa;
lastChange = "2018-05-05 17:29:09 +0000";
layers = (
{
layerId = "85099F7B-7F46-42FC-B840-CDE30C82BCDD";
paths = (
{
closed = 1;
nodes = (
"104 0 LINE",
"160 0 LINE",
"160 384 LINE",
"104 384 LINE"
);
},
{
closed = 1;
nodes = (
"153 202 LINE",
"228 202 LINE",
"430 384 LINE",
"355 384 LINE"
);
},
{
closed = 1;
nodes = (
"430 0 LINE",
"228 202 LINE",
"153 202 LINE",
"355 0 LINE"
);
}
);
width = 500;
}
);
unicode = 03BA;
},
{
glyphname = lambda;
lastChange = "2018-05-05 15:14:56 +0000";
layers = (
{
layerId = "85099F7B-7F46-42FC-B840-CDE30C82BCDD";
paths = (
{
closed = 1;
nodes = (
"391 0 LINE",
"449 0 LINE",
"207 545 LINE",
"150 545 LINE"
);
},
{
closed = 1;
nodes = (
"222 383 LINE",
"52 0 LINE",
"110 0 LINE",
"279 383 LINE"
);
}
);
width = 500;
}
);
unicode = 03BB;
},
{
glyphname = mu;
lastChange = "2018-05-05 15:15:14 +0000";
layers = (
{
layerId = "85099F7B-7F46-42FC-B840-CDE30C82BCDD";
paths = (
{
closed = 1;
nodes = (
"78 167 LINE",
"78 70 OFFCURVE",
"129 -7 OFFCURVE",
"221 -7 CURVE SMOOTH",
"308 -7 OFFCURVE",
"342 38 OFFCURVE",
"364 113 CURVE",
"369 113 LINE",
"367 0 LINE",
"423 0 LINE",
"423 384 LINE",
"367 384 LINE",
"367 221 LINE",
"367 127 OFFCURVE",
"324 47 OFFCURVE",
"232 47 CURVE SMOOTH",
"184 47 OFFCURVE",
"134 60 OFFCURVE",
"134 156 CURVE",
"134 384 LINE",
"78 384 LINE"
);
},
{
closed = 1;
nodes = (
"78 -153 LINE",
"134 -153 LINE",
"134 384 LINE",
"78 384 LINE"
);
}
);
width = 500;
}
);
unicode = 03BC;
},
{
glyphname = nu;
lastChange = "2018-05-05 17:58:26 +0000";
layers = (
{
layerId = "85099F7B-7F46-42FC-B840-CDE30C82BCDD";
paths = (
{
closed = 1;
nodes = (
"279 0 LINE",
"449 341 LINE",
"449 384 LINE",
"391 384 LINE",
"390 348 LINE",
"222 0 LINE"
);
},
{
closed = 1;
nodes = (
"110 384 LINE",
"52 384 LINE",
"222 0 LINE",
"279 0 LINE"
);
}
);
width = 500;
}
);
unicode = 03BD;
},
{
glyphname = xi;
lastChange = "2018-05-16 09:48:29 +0000";
layers = (
{
layerId = "85099F7B-7F46-42FC-B840-CDE30C82BCDD";
paths = (
{
closed = 1;
nodes = (
"284 214 LINE",
"373 214 LINE",
"373 260 LINE",
"284 260 LINE"
);
},
{
closed = 1;
nodes = (
"76 -6 OFFCURVE",
"372 14 OFFCURVE",
"372 -57 CURVE SMOOTH",
"372 -86 OFFCURVE",
"326 -100 OFFCURVE",
"263 -100 CURVE",
"255 -154 LINE",
"341 -154 OFFCURVE",
"425 -141 OFFCURVE",
"425 -57 CURVE SMOOTH",
"425 60 OFFCURVE",
"131 43 OFFCURVE",
"131 138 CURVE SMOOTH",
"131 198 OFFCURVE",
"201 214 OFFCURVE",
"284 214 CURVE",
"284 260 LINE",
"201 260 OFFCURVE",
"135 290 OFFCURVE",
"135 350 CURVE SMOOTH",
"135 454 OFFCURVE",
"293 502 OFFCURVE",
"419 502 CURVE",
"419 545 LINE",
"75 545 LINE",
"75 502 LINE",
"293 502 LINE",
"293 500 LINE",
"187 497 OFFCURVE",
"79 445 OFFCURVE",
"79 350 CURVE SMOOTH",
"79 294 OFFCURVE",
"110 265 OFFCURVE",
"168 242 CURVE",
"168 241 LINE",
"110 223 OFFCURVE",
"76 190 OFFCURVE",
"76 134 CURVE SMOOTH"
);
}
);
width = 500;
}
);
unicode = 03BE;
},
{
glyphname = omicron;
lastChange = "2018-05-05 14:42:19 +0000";
layers = (
{
layerId = "85099F7B-7F46-42FC-B840-CDE30C82BCDD";
paths = (
{
closed = 1;
nodes = (
"440 297 OFFCURVE",
"373 392 OFFCURVE",
"254 392 CURVE SMOOTH",
"135 392 OFFCURVE",
"68 302 OFFCURVE",
"68 193 CURVE SMOOTH",
"68 90 OFFCURVE",
"135 -3 OFFCURVE",
"254 -3 CURVE SMOOTH",
"373 -3 OFFCURVE",
"440 88 OFFCURVE",
"440 193 CURVE SMOOTH"
);
},
{
closed = 1;
nodes = (
"383 102 OFFCURVE",
"332 51 OFFCURVE",
"254 51 CURVE SMOOTH",
"176 51 OFFCURVE",
"125 100 OFFCURVE",
"125 193 CURVE SMOOTH",
"125 287 OFFCURVE",
"176 338 OFFCURVE",
"254 338 CURVE SMOOTH",
"332 338 OFFCURVE",
"383 289 OFFCURVE",
"383 193 CURVE SMOOTH"
);
}
);
width = 500;
}
);
unicode = 03BF;
},
{
glyphname = pi;
lastChange = "2018-05-05 16:33:05 +0000";
layers = (
{
layerId = "85099F7B-7F46-42FC-B840-CDE30C82BCDD";
paths = (
{
closed = 1;
nodes = (
"105 331 LINE",
"111 325 LINE",
"111 0 LINE",
"167 0 LINE",
"167 325 LINE",
"173 331 LINE",
"284 331 LINE",
"284 384 LINE",
"32 384 LINE",
"32 331 LINE"
);
},
{
closed = 1;
nodes = (
"327 331 LINE",
"333 325 LINE",
"333 0 LINE",
"389 0 LINE",
"389 325 LINE",
"395 331 LINE",
"468 331 LINE",
"468 384 LINE",
"216 384 LINE",
"216 331 LINE"
);
}
);
width = 500;
}
);
unicode = 03C0;
},
{
glyphname = rho;
lastChange = "2018-05-05 14:37:30 +0000";
layers = (
{
layerId = "85099F7B-7F46-42FC-B840-CDE30C82BCDD";
paths = (
{
closed = 1;
nodes = (
"132 197 LINE",
"75 197 LINE",
"75 -149 LINE",
"132 -149 LINE"
);
},
{
closed = 1;
nodes = (
"441 300 OFFCURVE",
"374 395 OFFCURVE",
"258 395 CURVE SMOOTH",
"142 395 OFFCURVE",
"75 306 OFFCURVE",
"75 197 CURVE SMOOTH",
"75 94 OFFCURVE",
"142 1 OFFCURVE",
"258 1 CURVE SMOOTH",
"374 1 OFFCURVE",
"441 91 OFFCURVE",
"441 196 CURVE SMOOTH"
);
},
{
closed = 1;
nodes = (
"384 106 OFFCURVE",
"333 54 OFFCURVE",
"258 54 CURVE SMOOTH",
"183 54 OFFCURVE",
"132 103 OFFCURVE",
"132 197 CURVE SMOOTH",
"132 291 OFFCURVE",
"183 342 OFFCURVE",
"258 342 CURVE SMOOTH",
"333 342 OFFCURVE",
"384 292 OFFCURVE",
"384 196 CURVE SMOOTH"
);
}
);
width = 500;
}
);
unicode = 03C1;
},
{
glyphname = sigmafinal;
lastChange = "2018-05-09 09:03:36 +0000";
layers = (
{
layerId = "85099F7B-7F46-42FC-B840-CDE30C82BCDD";
paths = (
{
closed = 1;
nodes = (
"177 59 OFFCURVE",
"126 103 OFFCURVE",
"126 196 CURVE",
"126 290 OFFCURVE",
"179 341 OFFCURVE",
"257 341 CURVE",
"330 341 OFFCURVE",
"364 316 OFFCURVE",
"393 289 CURVE",
"393 343 LINE",
"361 377 OFFCURVE",
"310 395 OFFCURVE",
"257 395 CURVE",
"138 395 OFFCURVE",
"69 305 OFFCURVE",
"69 196 CURVE",
"69 93 OFFCURVE",
"137 5 OFFCURVE",
"256 0 CURVE SMOOTH",
"315 -2 OFFCURVE",
"359 -5 OFFCURVE",
"359 -44 CURVE",
"359 -82 OFFCURVE",
"307 -100 OFFCURVE",
"244 -100 CURVE",
"244 -154 LINE",
"330 -154 OFFCURVE",
"414 -128 OFFCURVE",
"414 -35 CURVE",
"414 37 OFFCURVE",
"351 48 OFFCURVE",
"257 54 CURVE SMOOTH"
);
}
);
width = 500;
}
);
unicode = 03C2;
},
{
glyphname = sigma;
lastChange = "2018-05-05 14:43:20 +0000";
layers = (
{
layerId = "85099F7B-7F46-42FC-B840-CDE30C82BCDD";
paths = (
{
closed = 1;
nodes = (
"420 294 OFFCURVE",
"353 389 OFFCURVE",
"234 389 CURVE SMOOTH",
"115 389 OFFCURVE",
"48 299 OFFCURVE",
"48 190 CURVE SMOOTH",
"48 87 OFFCURVE",
"115 -6 OFFCURVE",
"234 -6 CURVE SMOOTH",
"353 -6 OFFCURVE",
"420 85 OFFCURVE",
"420 190 CURVE SMOOTH"
);
},
{
closed = 1;
nodes = (
"363 99 OFFCURVE",
"312 48 OFFCURVE",
"234 48 CURVE SMOOTH",
"156 48 OFFCURVE",
"105 97 OFFCURVE",
"105 190 CURVE SMOOTH",
"105 284 OFFCURVE",
"156 335 OFFCURVE",
"234 335 CURVE SMOOTH",
"312 335 OFFCURVE",
"363 286 OFFCURVE",
"363 190 CURVE SMOOTH"
);
},
{
closed = 1;
nodes = (
"233 335 LINE",
"460 335 LINE",
"460 389 LINE",
"233 389 LINE"
);
}
);
width = 500;
}
);
unicode = 03C3;
},
{
glyphname = tau;
lastChange = "2018-05-05 14:24:31 +0000";
layers = (
{
layerId = "85099F7B-7F46-42FC-B840-CDE30C82BCDD";
paths = (
{
closed = 1;
nodes = (
"216 331 LINE",
"222 325 LINE",
"222 0 LINE",
"278 0 LINE",
"278 325 LINE",
"284 331 LINE",
"376 331 LINE",
"376 384 LINE",
"124 384 LINE",
"124 331 LINE"
);
}
);
width = 500;
}
);
unicode = 03C4;
},
{
glyphname = upsilon;
lastChange = "2018-05-05 14:31:20 +0000";
layers = (
{
layerId = "85099F7B-7F46-42FC-B840-CDE30C82BCDD";
paths = (
{
closed = 0;
nodes = (
"93 384 LINE"
);
},
{
closed = 1;
nodes = (
"93 53 OFFCURVE",
"163 0 OFFCURVE",
"247 0 CURVE",
"336 0 OFFCURVE",
"406 50 OFFCURVE",
"406 155 CURVE",
"406 384 LINE",
"350 384 LINE",
"350 153 LINE",
"350 99 OFFCURVE",
"305 54 OFFCURVE",
"250 54 CURVE",
"194 54 OFFCURVE",
"149 100 OFFCURVE",
"149 154 CURVE",
"149 384 LINE",
"93 384 LINE",
"93 155 LINE"
);
}
);
width = 500;
}
);
unicode = 03C5;
},
{
glyphname = phi;
lastChange = "2018-05-16 10:02:41 +0000";
layers = (
{
layerId = "85099F7B-7F46-42FC-B840-CDE30C82BCDD";
paths = (
{
closed = 1;
nodes = (
"45 81 OFFCURVE",
"143 1 OFFCURVE",
"223 1 CURVE",
"223 -153 LINE",
"282 -153 LINE",
"282 0 LINE",
"362 0 OFFCURVE",
"460 81 OFFCURVE",
"460 191 CURVE SMOOTH",
"460 306 OFFCURVE",
"383 384 OFFCURVE",
"300 384 CURVE",
"234 384 OFFCURVE",
"223 359 OFFCURVE",
"223 320 CURVE",
"223 55 LINE",
"163 55 OFFCURVE",
"99 118 OFFCURVE",
"99 191 CURVE SMOOTH",
"99 274 OFFCURVE",
"125 297 OFFCURVE",
"151 325 CURVE",
"93 325 LINE",
"72 303 OFFCURVE",
"45 272 OFFCURVE",
"45 191 CURVE SMOOTH"
);
},
{
closed = 1;
nodes = (
"282 297 LINE",
"282 317 OFFCURVE",
"284 325 OFFCURVE",
"300 325 CURVE SMOOTH",
"368 325 OFFCURVE",
"408 266 OFFCURVE",
"408 191 CURVE SMOOTH",
"408 117 OFFCURVE",
"342 54 OFFCURVE",
"282 54 CURVE"
);
}
);
width = 500;
}
);
unicode = 03C6;
},
{
glyphname = chi;
lastChange = "2018-05-05 17:31:18 +0000";
layers = (
{
layerId = "85099F7B-7F46-42FC-B840-CDE30C82BCDD";
paths = (
{
closed = 1;
nodes = (
"366 384 LINE",
"49 -153 LINE",
"111 -153 LINE",
"428 384 LINE"
);
},
{
closed = 1;
nodes = (
"371 -153 LINE",
"433 -153 LINE",
"116 384 LINE",
"54 384 LINE"
);
}
);
width = 500;
}
);
unicode = 03C7;
},
{
glyphname = psi;
lastChange = "2018-05-05 14:32:52 +0000";
layers = (
{
layerId = "85099F7B-7F46-42FC-B840-CDE30C82BCDD";
paths = (
{
closed = 1;
nodes = (
"222 0 LINE",
"280 0 LINE",
"281 384 LINE",
"223 384 LINE"
);
},
{
closed = 1;
nodes = (
"388 264 LINE",
"388 184 OFFCURVE",
"342 113 OFFCURVE",
"252 113 CURVE SMOOTH",
"162 113 OFFCURVE",
"115 184 OFFCURVE",
"115 264 CURVE",
"61 264 LINE",
"61 139 OFFCURVE",
"138 55 OFFCURVE",
"252 56 CURVE SMOOTH",
"366 57 OFFCURVE",
"442 139 OFFCURVE",
"442 264 CURVE"
);
},
{
closed = 1;
nodes = (
"61 264 LINE",
"115 264 LINE",
"115 384 LINE",
"61 384 LINE"
);
},
{
closed = 1;
nodes = (
"388 264 LINE",
"442 264 LINE",
"442 384 LINE",
"388 384 LINE"
);
}
);
width = 500;
}
);
unicode = 03C8;
},
{
glyphname = omega;
lastChange = "2018-05-05 14:57:38 +0000";
layers = (
{
layerId = "85099F7B-7F46-42FC-B840-CDE30C82BCDD";
paths = (
{
closed = 1;
nodes = (
"363 384 LINE",
"392 344 OFFCURVE",
"418 277 OFFCURVE",
"418 202 CURVE SMOOTH",
"418 116 OFFCURVE",
"390 54 OFFCURVE",
"338 54 CURVE",
"281 54 OFFCURVE",
"274 147 OFFCURVE",
"274 222 CURVE",
"227 222 LINE",
"227 147 OFFCURVE",
"238 0 OFFCURVE",
"338 0 CURVE SMOOTH",
"419 0 OFFCURVE",
"473 80 OFFCURVE",
"473 200 CURVE SMOOTH",
"473 279 OFFCURVE",
"446 352 OFFCURVE",
"423 384 CURVE"
);
},
{
closed = 1;
nodes = (
"55 352 OFFCURVE",
"29 279 OFFCURVE",
"29 200 CURVE SMOOTH",
"29 80 OFFCURVE",
"83 0 OFFCURVE",
"164 0 CURVE SMOOTH",
"263 0 OFFCURVE",
"274 147 OFFCURVE",
"274 222 CURVE",
"227 222 LINE",
"227 147 OFFCURVE",
"220 54 OFFCURVE",
"164 54 CURVE",
"112 54 OFFCURVE",
"84 116 OFFCURVE",
"84 202 CURVE SMOOTH",
"84 277 OFFCURVE",
"108 344 OFFCURVE",
"138 384 CURVE",
"78 384 LINE"
);
}
);
width = 500;
}
);
unicode = 03C9;
},
{
glyphname = iotatonos;
lastChange = "2018-05-05 17:35:22 +0000";
layers = (
{
components = (
{
name = acute;
}
);
layerId = "85099F7B-7F46-42FC-B840-CDE30C82BCDD";
paths = (
{
closed = 1;
nodes = (
"286 330 LINE",
"286 384 LINE",
"167 384 LINE",
"107 330 LINE",
"229 330 LINE",
"229 0 LINE",
"286 0 LINE"
);
},
{
closed = 1;
nodes = (
"229 324 LINE",
"229 330 LINE",
"223 330 LINE"
);
}
);
width = 500;
}
);
unicode = 03AF;
},
{
glyphname = "alef-hb";
lastChange = "2018-05-05 17:14:24 +0000";
layers = (
{
layerId = "85099F7B-7F46-42FC-B840-CDE30C82BCDD";
paths = (
{
closed = 1;
nodes = (
"370 0 LINE",
"440 0 LINE",
"130 430 LINE",
"60 430 LINE"
);
},
{
closed = 1;
nodes = (
"96 185 OFFCURVE",
"112 128 OFFCURVE",
"78 0 CURVE",
"134 0 LINE",
"168 128 OFFCURVE",
"151 185 OFFCURVE",
"255 239 CURVE",
"200 239 LINE"
);
},
{
closed = 1;
nodes = (
"390 245 OFFCURVE",
"389 302 OFFCURVE",
"423 430 CURVE",
"367 430 LINE",
"333 302 OFFCURVE",
"335 245 OFFCURVE",
"246 191 CURVE",
"301 191 LINE"
);
}
);
width = 500;
}
);
unicode = 05D0;
},
{
glyphname = "bet-hb";
lastChange = "2018-05-09 12:33:00 +0000";
layers = (
{
layerId = "85099F7B-7F46-42FC-B840-CDE30C82BCDD";
paths = (
{
closed = 1;
nodes = (
"229 378 LINE",
"284 378 OFFCURVE",
"332 333 OFFCURVE",
"332 279 CURVE",
"332 0 LINE",
"388 0 LINE",
"388 277 LINE",
"388 382 OFFCURVE",
"318 432 OFFCURVE",
"229 432 CURVE"
);
},
{
closed = 1;
nodes = (
"89 376 LINE",
"126 378 OFFCURVE",
"192 378 OFFCURVE",
"229 378 CURVE",
"229 432 LINE",
"192 432 OFFCURVE",
"126 432 OFFCURVE",
"89 430 CURVE"
);
},
{
closed = 1;
nodes = (
"40 0 LINE",
"428 0 LINE",
"428 58 LINE",
"40 58 LINE"
);
},
{
closed = 1;
nodes = (
"326 58 LINE",
"332 58 LINE",
"332 64 LINE"
);
},
{
closed = 1;
nodes = (
"388 58 LINE",
"394 58 LINE",
"388 64 LINE"
);
}
);
width = 500;
}
);
unicode = 05D1;
},
{
glyphname = "gimel-hb";
lastChange = "2018-05-05 17:13:43 +0000";
layers = (
{
layerId = "85099F7B-7F46-42FC-B840-CDE30C82BCDD";
paths = (
{
closed = 1;
nodes = (
"337 0 LINE",
"393 0 LINE",
"294 121 LINE",
"238 121 LINE"
);
},
{
closed = 1;
nodes = (
"168 125 OFFCURVE",
"146 40 OFFCURVE",
"107 0 CURVE SMOOTH",
"163 0 LINE SMOOTH",
"202 40 OFFCURVE",
"198 88 OFFCURVE",
"269 84 CURVE SMOOTH",
"239 121 LINE SMOOTH"
);
},
{
closed = 1;
nodes = (
"113 376 LINE",
"204 376 OFFCURVE",
"238 350 OFFCURVE",
"238 277 CURVE",
"238 121 LINE",
"294 121 LINE",
"294 275 LINE",
"294 384 OFFCURVE",
"238 430 OFFCURVE",
"113 430 CURVE"
);
}
);
width = 500;
}
);
unicode = 05D2;
},
{
glyphname = "dalet-hb";
lastChange = "2018-05-09 12:33:18 +0000";
layers = (
{
layerId = "85099F7B-7F46-42FC-B840-CDE30C82BCDD";
paths = (
{
closed = 1;
nodes = (
"336 0 LINE",
"392 0 LINE",
"392 430 LINE",
"336 430 LINE"
);
},
{
closed = 1;
nodes = (
"88 372 LINE",
"449 372 LINE",
"449 430 LINE",
"88 430 LINE"
);
},
{
closed = 1;
nodes = (
"336 372 LINE",
"330 372 LINE",
"336 366 LINE"
);
},
{
closed = 1;
nodes = (
"398 372 LINE",
"392 372 LINE",
"392 366 LINE"
);
}
);
width = 500;
}
);
unicode = 05D3;
},
{
glyphname = "he-hb";
lastChange = "2018-05-05 17:06:33 +0000";
layers = (
{
layerId = "85099F7B-7F46-42FC-B840-CDE30C82BCDD";
paths = (
{
closed = 1;
nodes = (
"268 376 LINE",
"359 376 OFFCURVE",
"393 346 OFFCURVE",
"393 277 CURVE",
"393 0 LINE",
"449 0 LINE",
"449 275 LINE",
"449 384 OFFCURVE",
"393 430 OFFCURVE",
"268 430 CURVE"
);
},
{
closed = 1;
nodes = (
"106 0 LINE",
"162 0 LINE",
"162 271 LINE",
"106 271 LINE"
);
},
{
closed = 1;
nodes = (
"114 353 LINE",
"181 373 OFFCURVE",
"231 376 OFFCURVE",
"268 376 CURVE",
"268 430 LINE",
"231 430 OFFCURVE",
"178 427 OFFCURVE",
"114 407 CURVE"
);
}
);
width = 500;
}
);
unicode = 05D4;
},
{
glyphname = "vav-hb";
lastChange = "2018-05-04 16:21:18 +0000";
layers = (
{
layerId = "85099F7B-7F46-42FC-B840-CDE30C82BCDD";
paths = (
{
closed = 1;
nodes = (
"218 0 LINE",
"274 0 LINE",
"274 430 LINE",
"218 430 LINE"
);
}
);
width = 500;
}
);
unicode = 05D5;
},
{
glyphname = "zayin-hb";
lastChange = "2018-05-05 16:54:23 +0000";
layers = (
{
layerId = "85099F7B-7F46-42FC-B840-CDE30C82BCDD";
paths = (
{
closed = 1;
nodes = (
"151 327 OFFCURVE",
"280 128 OFFCURVE",
"246 0 CURVE",
"302 0 LINE",
"336 128 OFFCURVE",
"207 327 OFFCURVE",
"369 372 CURVE",
"313 372 LINE"
);
},
{
closed = 1;
nodes = (
"112 372 LINE",
"369 372 LINE",
"369 430 LINE",
"112 430 LINE"
);
}
);
width = 500;
}
);
unicode = 05D6;
},
{
glyphname = "het-hb";
lastChange = "2018-05-05 16:54:37 +0000";
layers = (
{
layerId = "85099F7B-7F46-42FC-B840-CDE30C82BCDD";
paths = (
{
closed = 1;
nodes = (
"282 376 LINE",
"337 376 OFFCURVE",
"385 331 OFFCURVE",
"385 277 CURVE",
"385 0 LINE",
"441 0 LINE",
"441 275 LINE",
"441 380 OFFCURVE",
"371 430 OFFCURVE",
"282 430 CURVE"
);
},
{
closed = 1;
nodes = (
"98 0 LINE",
"154 0 LINE",
"154 402 LINE",
"98 402 LINE"
);
},
{
closed = 1;
nodes = (
"98 376 LINE",
"282 376 LINE",
"282 430 LINE",
"98 430 LINE"
);
},
{
closed = 1;
nodes = (
"154 376 LINE",
"154 370 LINE",
"160 376 LINE"
);
}
);
width = 500;
}
);
unicode = 05D7;
},
{
glyphname = "tet-hb";
lastChange = "2018-05-05 16:59:49 +0000";
layers = (
{
layerId = "85099F7B-7F46-42FC-B840-CDE30C82BCDD";
paths = (
{
closed = 0;
nodes = (
"63 430 LINE"
);
},
{
closed = 1;
nodes = (
"63 53 OFFCURVE",
"133 0 OFFCURVE",
"233 0 CURVE",
"336 0 OFFCURVE",
"406 50 OFFCURVE",
"406 155 CURVE",
"406 285 LINE",
"350 285 LINE",
"350 153 LINE",
"350 99 OFFCURVE",
"305 54 OFFCURVE",
"236 54 CURVE",
"164 54 OFFCURVE",
"119 100 OFFCURVE",
"119 154 CURVE",
"119 430 LINE",
"63 430 LINE",
"63 155 LINE"
);
},
{
closed = 1;
nodes = (
"247 376 LINE",
"302 376 OFFCURVE",
"350 331 OFFCURVE",
"350 277 CURVE",
"350 168 LINE",
"406 168 LINE",
"406 275 LINE",
"406 380 OFFCURVE",
"336 430 OFFCURVE",
"247 430 CURVE"
);
}
);
width = 500;
}
);
unicode = 05D8;
},
{
glyphname = "yod-hb";
lastChange = "2018-05-04 16:21:52 +0000";
layers = (
{
layerId = "85099F7B-7F46-42FC-B840-CDE30C82BCDD";
paths = (
{
closed = 1;
nodes = (
"218 287 LINE",
"274 287 LINE",
"274 430 LINE",
"218 430 LINE"
);
}
);
width = 500;
}
);
unicode = 05D9;
},
{
glyphname = "finalkaf-hb";
lastChange = "2018-05-05 17:00:31 +0000";
layers = (
{
layerId = "85099F7B-7F46-42FC-B840-CDE30C82BCDD";
paths = (
{
closed = 1;
nodes = (
"268 376 LINE",
"359 376 OFFCURVE",
"393 346 OFFCURVE",
"393 277 CURVE",
"393 -110 LINE",
"449 -110 LINE",
"449 275 LINE",
"449 401 OFFCURVE",
"393 430 OFFCURVE",
"268 430 CURVE"
);
},
{
closed = 1;
nodes = (
"114 353 LINE",
"181 373 OFFCURVE",
"231 376 OFFCURVE",
"268 376 CURVE",
"268 430 LINE",
"231 430 OFFCURVE",
"178 427 OFFCURVE",
"114 407 CURVE"
);
}
);
width = 500;
}
);
unicode = 05DA;
},
{
glyphname = "kaf-hb";
lastChange = "2018-05-05 17:02:01 +0000";
layers = (
{
layerId = "85099F7B-7F46-42FC-B840-CDE30C82BCDD";
paths = (
{
closed = 1;
nodes = (
"113 343 LINE",
"148 374 OFFCURVE",
"202 376 OFFCURVE",
"229 376 CURVE SMOOTH",
"310 376 OFFCURVE",
"376 328 OFFCURVE",
"376 215 CURVE",
"433 215 LINE",
"433 335 OFFCURVE",
"361 430 OFFCURVE",
"229 430 CURVE SMOOTH",
"203 430 OFFCURVE",
"149 430 OFFCURVE",
"113 404 CURVE"
);
},
{
closed = 1;
nodes = (
"149 0 OFFCURVE",
"203 0 OFFCURVE",
"229 0 CURVE SMOOTH",
"361 0 OFFCURVE",
"433 95 OFFCURVE",
"433 215 CURVE",
"376 215 LINE",
"376 102 OFFCURVE",
"310 54 OFFCURVE",
"229 54 CURVE SMOOTH",
"202 54 OFFCURVE",
"148 56 OFFCURVE",
"113 87 CURVE",
"113 26 LINE"
);
}
);
width = 500;
}
);
unicode = 05DB;
},
{
glyphname = "lamed-hb";
lastChange = "2018-05-09 12:33:37 +0000";
layers = (
{
layerId = "85099F7B-7F46-42FC-B840-CDE30C82BCDD";
paths = (
{
closed = 1;
nodes = (
"313 198 OFFCURVE",
"246 246 OFFCURVE",
"246 0 CURVE",
"302 0 LINE",
"302 246 OFFCURVE",
"369 198 OFFCURVE",
"369 372 CURVE",
"313 372 LINE"
);
},
{
closed = 1;
nodes = (
"108 372 LINE",
"369 372 LINE",
"369 430 LINE",
"108 430 LINE"
);
},
{
closed = 1;
nodes = (
"106 372 LINE",
"165 372 LINE",
"165 545 LINE",
"106 545 LINE"
);
},
{
closed = 1;
nodes = (
"165 430 LINE",
"171 430 LINE",
"165 436 LINE"
);
}
);
width = 500;
}
);
unicode = 05DC;
},
{
glyphname = "finalmem-hb";
lastChange = "2018-05-09 12:34:13 +0000";
layers = (
{
layerId = "85099F7B-7F46-42FC-B840-CDE30C82BCDD";
paths = (
{
closed = 1;
nodes = (
"263 376 LINE",
"318 376 OFFCURVE",
"366 331 OFFCURVE",
"366 277 CURVE",
"366 0 LINE",
"422 0 LINE",
"422 275 LINE",
"422 380 OFFCURVE",
"352 430 OFFCURVE",
"263 430 CURVE"
);
},
{
closed = 1;
nodes = (
"79 0 LINE",
"135 0 LINE",
"135 402 LINE",
"79 402 LINE"
);
},
{
closed = 1;
nodes = (
"79 376 LINE",
"263 376 LINE",
"263 430 LINE",
"79 430 LINE"
);
},
{
closed = 1;
nodes = (
"80 0 LINE",
"422 0 LINE",
"422 56 LINE",
"80 56 LINE"
);
},
{
closed = 1;
nodes = (
"360 56 LINE",
"366 56 LINE",
"366 62 LINE"
);
},
{
closed = 1;
nodes = (
"135 56 LINE",
"141 56 LINE",
"135 62 LINE"
);
},
{
closed = 1;
nodes = (
"141 376 LINE",
"135 376 LINE",
"135 370 LINE"
);
}
);
width = 500;
}
);
unicode = 05DD;
},
{
glyphname = "mem-hb";
lastChange = "2018-05-09 12:34:29 +0000";
layers = (
{
layerId = "85099F7B-7F46-42FC-B840-CDE30C82BCDD";
paths = (
{
closed = 0;
nodes = (
"96 0 LINE"
);
},
{
closed = 1;
nodes = (
"169 430 OFFCURVE",
"96 349 OFFCURVE",
"96 0 CURVE",
"152 0 LINE",
"152 300 OFFCURVE",
"210 376 OFFCURVE",
"294 376 CURVE",
"365 376 OFFCURVE",
"383 331 OFFCURVE",
"383 277 CURVE",
"383 0 LINE",
"439 0 LINE",
"439 275 LINE",
"439 380 OFFCURVE",
"376 430 OFFCURVE",
"291 430 CURVE"
);
},
{
closed = 1;
nodes = (
"238 0 LINE",
"439 0 LINE",
"439 56 LINE",
"238 56 LINE"
);
},
{
closed = 1;
nodes = (
"114 430 LINE",
"53 430 LINE",
"130 304 LINE",
"185 304 LINE"
);
},
{
closed = 1;
nodes = (
"377 56 LINE",
"383 56 LINE",
"383 62 LINE"
);
}
);
width = 500;
}
);
unicode = 05DE;
},
{
glyphname = "finalnun-hb";
lastChange = "2018-05-04 16:23:38 +0000";
layers = (
{
layerId = "85099F7B-7F46-42FC-B840-CDE30C82BCDD";
paths = (
{
closed = 1;
nodes = (
"218 -110 LINE",
"274 -110 LINE",
"274 430 LINE",
"218 430 LINE"
);
}
);
width = 500;
}
);
unicode = 05DF;
},
{
glyphname = "nun-hb";
lastChange = "2018-05-09 12:34:48 +0000";
layers = (
{
layerId = "85099F7B-7F46-42FC-B840-CDE30C82BCDD";
paths = (
{
closed = 1;
nodes = (
"140 0 LINE",
"329 0 LINE",
"329 56 LINE",
"140 56 LINE"
);
},
{
closed = 1;
nodes = (
"159 366 LINE",
"177 379 OFFCURVE",
"210 381 OFFCURVE",
"226 381 CURVE SMOOTH",
"261 381 OFFCURVE",
"273 367 OFFCURVE",
"273 333 CURVE",
"273 0 LINE",
"329 0 LINE",
"329 340 LINE",
"329 408 OFFCURVE",
"292 430 OFFCURVE",
"229 430 CURVE SMOOTH",
"203 430 OFFCURVE",
"176 425 OFFCURVE",
"159 415 CURVE"
);
},
{
closed = 1;
nodes = (
"267 56 LINE",
"273 56 LINE",
"273 62 LINE"
);
}
);
width = 500;
}
);
unicode = 05E0;
},
{
glyphname = "samekh-hb";
lastChange = "2018-05-04 16:24:10 +0000";
layers = (
{
layerId = "85099F7B-7F46-42FC-B840-CDE30C82BCDD";
paths = (
{
closed = 1;
nodes = (
"450 327 OFFCURVE",
"376 432 OFFCURVE",
"248 432 CURVE SMOOTH",
"120 432 OFFCURVE",
"46 333 OFFCURVE",
"46 213 CURVE SMOOTH",
"46 99 OFFCURVE",
"120 -3 OFFCURVE",
"248 -3 CURVE SMOOTH",
"376 -3 OFFCURVE",
"450 97 OFFCURVE",
"450 213 CURVE SMOOTH"
);
},
{
closed = 1;
nodes = (
"394 107 OFFCURVE",
"335 48 OFFCURVE",
"248 48 CURVE SMOOTH",
"161 48 OFFCURVE",
"102 105 OFFCURVE",
"102 213 CURVE SMOOTH",
"102 322 OFFCURVE",
"161 381 OFFCURVE",
"248 381 CURVE SMOOTH",
"335 381 OFFCURVE",
"394 324 OFFCURVE",
"394 213 CURVE SMOOTH"
);
}
);
width = 500;
}
);
unicode = 05E1;
},
{
glyphname = "ayin-hb";
lastChange = "2018-05-05 17:20:22 +0000";
layers = (
{
layerId = "85099F7B-7F46-42FC-B840-CDE30C82BCDD";
paths = (
{
closed = 1;
nodes = (
"286 49 LINE",
"133 430 LINE",
"77 430 LINE",
"231 49 LINE"
);
},
{
closed = 1;
nodes = (
"286 9 OFFCURVE",
"420 28 OFFCURVE",
"420 155 CURVE SMOOTH",
"420 430 LINE",
"364 430 LINE",
"364 153 LINE SMOOTH",
"364 76 OFFCURVE",
"237 60 OFFCURVE",
"121 54 CURVE",
"121 0 LINE"
);
}
);
width = 500;
}
);
unicode = 05E2;
},
{
glyphname = "finalpe-hb";
lastChange = "2018-05-05 17:07:16 +0000";
layers = (
{
layerId = "85099F7B-7F46-42FC-B840-CDE30C82BCDD";
paths = (
{
closed = 1;
nodes = (
"222 228 LINE",
"208 216 OFFCURVE",
"183 213 OFFCURVE",
"167 213 CURVE SMOOTH",
"151 213 OFFCURVE",
"138 227 OFFCURVE",
"138 243 CURVE",
"138 394 LINE",
"82 394 LINE",
"82 237 LINE",
"82 197 OFFCURVE",
"116 164 OFFCURVE",
"167 164 CURVE SMOOTH",
"193 164 OFFCURVE",
"208 168 OFFCURVE",
"222 179 CURVE"
);
},
{
closed = 1;
nodes = (
"236 376 LINE",
"327 376 OFFCURVE",
"361 346 OFFCURVE",
"361 277 CURVE",
"361 -110 LINE",
"417 -110 LINE",
"417 275 LINE",
"417 384 OFFCURVE",
"361 430 OFFCURVE",
"236 430 CURVE"
);
},
{
closed = 1;
nodes = (
"82 353 LINE",
"149 373 OFFCURVE",
"199 376 OFFCURVE",
"236 376 CURVE",
"236 430 LINE",
"199 430 OFFCURVE",
"146 427 OFFCURVE",
"82 407 CURVE"
);
}
);
width = 500;
}
);
unicode = 05E3;
},
{
glyphname = "pe-hb";
lastChange = "2018-05-08 18:41:31 +0000";
layers = (
{
layerId = "85099F7B-7F46-42FC-B840-CDE30C82BCDD";
paths = (
{
closed = 1;
nodes = (
"290 377 LINE",
"345 377 OFFCURVE",
"393 330 OFFCURVE",
"393 276 CURVE",
"449 276 LINE",
"449 381 OFFCURVE",
"379 431 OFFCURVE",
"290 431 CURVE"
);
},
{
closed = 1;
nodes = (
"74 361 LINE",
"141 381 OFFCURVE",
"223 377 OFFCURVE",
"290 377 CURVE",
"290 431 LINE",
"223 431 OFFCURVE",
"138 435 OFFCURVE",
"74 415 CURVE"
);
},
{
closed = 1;
nodes = (
"214 272 LINE",
"200 263 OFFCURVE",
"175 261 OFFCURVE",
"165 261 CURVE SMOOTH",
"143 261 OFFCURVE",
"130 275 OFFCURVE",
"130 291 CURVE",
"130 414 LINE",
"74 414 LINE",
"74 285 LINE",
"74 245 OFFCURVE",
"108 212 OFFCURVE",
"159 212 CURVE SMOOTH",
"185 212 OFFCURVE",
"200 215 OFFCURVE",
"214 223 CURVE"
);
},
{
closed = 1;
nodes = (
"134 27 LINE",
"162 8 OFFCURVE",
"226 -3 OFFCURVE",
"266 -3 CURVE SMOOTH",
"382 -3 OFFCURVE",
"449 88 OFFCURVE",
"449 193 CURVE",
"393 193 LINE",
"393 102 OFFCURVE",
"341 51 OFFCURVE",
"266 51 CURVE SMOOTH",
"222 51 OFFCURVE",
"169 62 OFFCURVE",
"134 87 CURVE"
);
},
{
closed = 1;
nodes = (
"393 193 LINE",
"449 193 LINE",
"449 276 LINE",
"393 276 LINE"
);
}
);
width = 500;
}
);
unicode = 05E4;
},
{
glyphname = "finaltsadi-hb";
lastChange = "2018-05-05 17:09:14 +0000";
layers = (
{
layerId = "85099F7B-7F46-42FC-B840-CDE30C82BCDD";
paths = (
{
closed = 1;
nodes = (
"159 430 LINE",
"98 430 LINE",
"255 157 LINE",
"310 157 LINE"
);
},
{
closed = 1;
nodes = (
"399 211 OFFCURVE",
"399 302 OFFCURVE",
"433 430 CURVE",
"373 430 LINE",
"339 302 OFFCURVE",
"344 211 OFFCURVE",
"255 157 CURVE",
"310 157 LINE"
);
},
{
closed = 1;
nodes = (
"254 -110 LINE",
"310 -110 LINE",
"310 157 LINE",
"255 157 LINE"
);
}
);
width = 500;
}
);
unicode = 05E5;
},
{
glyphname = "tsadi-hb";
lastChange = "2018-05-05 17:09:25 +0000";
layers = (
{
layerId = "85099F7B-7F46-42FC-B840-CDE30C82BCDD";
paths = (
{
closed = 1;
nodes = (
"307 56 LINE",
"80 56 LINE",
"80 0 LINE",
"375 0 LINE",
"375 41 LINE"
);
},
{
closed = 1;
nodes = (
"132 430 LINE",
"71 430 LINE",
"307 56 LINE",
"375 41 LINE"
);
},
{
closed = 1;
nodes = (
"399 199 OFFCURVE",
"405 302 OFFCURVE",
"439 430 CURVE SMOOTH",
"379 430 LINE SMOOTH",
"345 302 OFFCURVE",
"344 199 OFFCURVE",
"255 145 CURVE",
"310 145 LINE"
);
}
);
width = 500;
}
);
unicode = 05E6;
},
{
glyphname = "qof-hb";
lastChange = "2018-05-05 17:09:32 +0000";
layers = (
{
layerId = "85099F7B-7F46-42FC-B840-CDE30C82BCDD";
paths = (
{
closed = 1;
nodes = (
"86 -110 LINE",
"142 -110 LINE",
"142 292 LINE",
"86 292 LINE"
);
},
{
closed = 1;
nodes = (
"86 376 LINE",
"431 376 LINE",
"431 430 LINE",
"86 430 LINE"
);
},
{
closed = 1;
nodes = (
"375 202 OFFCURVE",
"306 292 OFFCURVE",
"306 0 CURVE",
"362 0 LINE",
"362 292 OFFCURVE",
"431 202 OFFCURVE",
"431 376 CURVE",
"375 376 LINE"
);
}
);
width = 500;
}
);
unicode = 05E7;
},
{
glyphname = "resh-hb";
lastChange = "2018-05-05 17:09:48 +0000";
layers = (
{
layerId = "85099F7B-7F46-42FC-B840-CDE30C82BCDD";
paths = (
{
closed = 1;
nodes = (
"235 376 LINE",
"326 376 OFFCURVE",
"360 346 OFFCURVE",
"360 277 CURVE",
"360 0 LINE",
"416 0 LINE",
"416 275 LINE",
"416 384 OFFCURVE",
"360 430 OFFCURVE",
"235 430 CURVE"
);
},
{
closed = 1;
nodes = (
"81 353 LINE",
"148 373 OFFCURVE",
"198 376 OFFCURVE",
"235 376 CURVE",
"235 430 LINE",
"198 430 OFFCURVE",
"145 427 OFFCURVE",
"81 407 CURVE"
);
}
);
width = 500;
}
);
unicode = 05E8;
},
{
glyphname = "shin-hb";
lastChange = "2018-05-04 16:27:16 +0000";
layers = (
{
layerId = "85099F7B-7F46-42FC-B840-CDE30C82BCDD";
paths = (
{
closed = 1;
nodes = (
"406 208 LINE",
"406 128 OFFCURVE",
"378 57 OFFCURVE",
"252 57 CURVE SMOOTH",
"126 57 OFFCURVE",
"94 128 OFFCURVE",
"94 208 CURVE",
"40 208 LINE",
"40 83 OFFCURVE",
"121 0 OFFCURVE",
"252 0 CURVE SMOOTH",
"383 0 OFFCURVE",
"460 83 OFFCURVE",
"460 208 CURVE"
);
},
{
closed = 1;
nodes = (
"40 208 LINE",
"94 208 LINE",
"94 430 LINE",
"40 430 LINE"
);
},
{
closed = 1;
nodes = (
"406 208 LINE",
"460 208 LINE",
"460 430 LINE",
"406 430 LINE"
);
},
{
closed = 1;
nodes = (
"180 115 OFFCURVE",
"252 136 OFFCURVE",
"252 208 CURVE",
"252 430 LINE",
"196 430 LINE",
"196 221 LINE",
"196 155 OFFCURVE",
"127 148 OFFCURVE",
"93 155 CURVE",
"93 130 LINE"
);
}
);
width = 500;
}
);
unicode = 05E9;
},
{
glyphname = "tav-hb";
lastChange = "2018-05-09 12:35:28 +0000";
layers = (
{
layerId = "85099F7B-7F46-42FC-B840-CDE30C82BCDD";
paths = (
{
closed = 1;
nodes = (
"58 1 OFFCURVE",
"74 -3 OFFCURVE",
"100 -3 CURVE SMOOTH",
"139 -3 OFFCURVE",
"173 20 OFFCURVE",
"173 73 CURVE",
"173 401 LINE",
"117 401 LINE",
"117 79 LINE",
"117 63 OFFCURVE",
"110 49 OFFCURVE",
"94 49 CURVE SMOOTH",
"78 49 OFFCURVE",
"58 49 OFFCURVE",
"33 64 CURVE",
"33 15 LINE"
);
},
{
closed = 1;
nodes = (
"235 376 LINE",
"326 376 OFFCURVE",
"360 346 OFFCURVE",
"360 277 CURVE",
"360 0 LINE",
"416 0 LINE",
"416 275 LINE",
"416 384 OFFCURVE",
"360 430 OFFCURVE",
"235 430 CURVE"
);
},
{
closed = 1;
nodes = (
"81 353 LINE",
"148 373 OFFCURVE",
"198 376 OFFCURVE",
"235 376 CURVE",
"235 430 LINE",
"198 430 OFFCURVE",
"145 427 OFFCURVE",
"81 407 CURVE"
);
}
);
width = 500;
}
);
unicode = 05EA;
},
{
glyphname = zero;
lastChange = "2017-12-07 11:36:20 +0000";
layers = (
{
layerId = "85099F7B-7F46-42FC-B840-CDE30C82BCDD";
paths = (
{
closed = 1;
nodes = (
"123 552 OFFCURVE",
"47 422 OFFCURVE",
"47 278 CURVE SMOOTH",
"47 123 OFFCURVE",
"130 0 OFFCURVE",
"250 0 CURVE SMOOTH",
"375 0 OFFCURVE",
"453 130 OFFCURVE",
"453 278 CURVE SMOOTH",
"452 433 OFFCURVE",
"370 552 OFFCURVE",
"250 552 CURVE SMOOTH"
);
},
{
closed = 1;
nodes = (
"175 54 OFFCURVE",
"104 128 OFFCURVE",
"104 278 CURVE SMOOTH",
"104 348 OFFCURVE",
"119 401 OFFCURVE",
"144 437 CURVE",
"326 83 LINE",
"303 64 OFFCURVE",
"277 54 OFFCURVE",
"250 54 CURVE SMOOTH"
);
},
{
closed = 1;
nodes = (
"173 470 LINE",
"196 489 OFFCURVE",
"223 498 OFFCURVE",
"250 498 CURVE SMOOTH",
"325 498 OFFCURVE",
"396 428 OFFCURVE",
"396 278 CURVE SMOOTH",
"396 207 OFFCURVE",
"380 154 OFFCURVE",
"356 117 CURVE"
);
}
);
width = 500;
}
);
unicode = 0030;
},
{
glyphname = one;
lastChange = "2018-05-15 14:34:54 +0000";
layers = (
{
layerId = "85099F7B-7F46-42FC-B840-CDE30C82BCDD";
paths = (
{
closed = 1;
nodes = (
"277 0 LINE",
"277 545 LINE",
"252 545 LINE",
"221 478 LINE",
"221 0 LINE"
);
},
{
closed = 1;
nodes = (
"252 545 LINE",
"84 485 LINE",
"84 434 LINE",
"252 491 LINE"
);
},
{
closed = 1;
nodes = (
"422 54 LINE",
"76 54 LINE",
"76 0 LINE",
"422 0 LINE"
);
},
{
closed = 1;
nodes = (
"277 60 LINE",
"277 54 LINE",
"283 54 LINE"
);
},
{
closed = 1;
nodes = (
"221 54 LINE",
"221 60 LINE",
"215 54 LINE"
);
}
);
width = 500;
}
);
unicode = 0031;
},
{
glyphname = two;
lastChange = "2018-05-03 17:22:32 +0000";
layers = (
{
layerId = "85099F7B-7F46-42FC-B840-CDE30C82BCDD";
paths = (
{
closed = 1;
nodes = (
"380 0 LINE",
"423 54 LINE",
"157 54 LINE",
"191 93 OFFCURVE",
"231 131 OFFCURVE",
"269 175 CURVE SMOOTH",
"336 252 OFFCURVE",
"406 333 OFFCURVE",
"406 403 CURVE",
"406 484 OFFCURVE",
"340 550 OFFCURVE",
"235 550 CURVE SMOOTH",
"154 550 OFFCURVE",
"123 519 OFFCURVE",
"100 498 CURVE",
"100 444 LINE",
"129 471 OFFCURVE",
"167 496 OFFCURVE",
"235 496 CURVE SMOOTH",
"308 496 OFFCURVE",
"347 458 OFFCURVE",
"347 402 CURVE",
"347 333 OFFCURVE",
"271 255 OFFCURVE",
"195 175 CURVE SMOOTH",
"156 134 OFFCURVE",
"112 94 OFFCURVE",
"77 54 CURVE",
"77 0 LINE"
);
}
);
width = 500;
}
);
unicode = 0032;
},
{
glyphname = three;
lastChange = "2018-05-04 19:58:22 +0000";
layers = (
{
layerId = "85099F7B-7F46-42FC-B840-CDE30C82BCDD";
paths = (
{
closed = 1;
nodes = (
"422 491 LINE",
"422 545 LINE",
"119 545 LINE",
"76 491 LINE",
"357 491 LINE",
"225 354 LINE",
"262 314 LINE"
);
},
{
closed = 1;
nodes = (
"322 314 OFFCURVE",
"373 260 OFFCURVE",
"373 181 CURVE SMOOTH",
"373 114 OFFCURVE",
"321 52 OFFCURVE",
"237 52 CURVE SMOOTH",
"172 52 OFFCURVE",
"131 81 OFFCURVE",
"102 108 CURVE",
"102 43 LINE",
"125 22 OFFCURVE",
"170 -2 OFFCURVE",
"238 -2 CURVE SMOOTH",
"350 -2 OFFCURVE",
"427 79 OFFCURVE",
"427 187 CURVE SMOOTH",
"427 294 OFFCURVE",
"348 368 OFFCURVE",
"262 368 CURVE",
"262 314 LINE"
);
}
);
width = 500;
}
);
unicode = 0033;
},
{
glyphname = four;
lastChange = "2018-05-04 19:58:05 +0000";
layers = (
{
layerId = "85099F7B-7F46-42FC-B840-CDE30C82BCDD";
paths = (
{
closed = 1;
nodes = (
"382 0 LINE",
"382 545 LINE",
"326 545 LINE",
"326 0 LINE"
);
},
{
closed = 1;
nodes = (
"458 177 LINE",
"82 177 LINE",
"82 123 LINE",
"415 123 LINE"
);
},
{
closed = 1;
nodes = (
"138 177 LINE",
"382 545 LINE",
"326 545 LINE",
"82 177 LINE"
);
},
{
closed = 1;
nodes = (
"382 183 LINE",
"382 177 LINE",
"388 177 LINE"
);
},
{
closed = 1;
nodes = (
"382 123 LINE",
"382 117 LINE",
"384 119 OFFCURVE",
"386 121 OFFCURVE",
"388 123 CURVE"
);
},
{
closed = 1;
nodes = (
"326 117 LINE",
"326 123 LINE",
"320 123 LINE"
);
},
{
closed = 1;
nodes = (
"326 177 LINE",
"326 183 LINE",
"320 177 LINE"
);
}
);
width = 500;
}
);
unicode = 0034;
},
{
glyphname = five;
lastChange = "2018-05-03 17:34:30 +0000";
layers = (
{
layerId = "85099F7B-7F46-42FC-B840-CDE30C82BCDD";
paths = (
{
closed = 1;
nodes = (
"125 22 OFFCURVE",
"175 -2 OFFCURVE",
"238 -2 CURVE SMOOTH",
"350 -2 OFFCURVE",
"427 79 OFFCURVE",
"427 187 CURVE SMOOTH",
"427 294 OFFCURVE",
"370 362 OFFCURVE",
"258 362 CURVE SMOOTH",
"232 362 OFFCURVE",
"191 348 OFFCURVE",
"174 330 CURVE",
"187 491 LINE",
"362 491 LINE",
"405 545 LINE",
"134 545 LINE",
"109 271 LINE",
"163 271 LINE",
"184 299 OFFCURVE",
"218 314 OFFCURVE",
"258 314 CURVE SMOOTH",
"321 314 OFFCURVE",
"370 265 OFFCURVE",
"370 186 CURVE SMOOTH",
"370 104 OFFCURVE",
"321 52 OFFCURVE",
"238 52 CURVE SMOOTH",
"173 52 OFFCURVE",
"131 81 OFFCURVE",
"102 108 CURVE",
"102 43 LINE"
);
}
);
width = 500;
}
);
unicode = 0035;
},
{
glyphname = six;
lastChange = "2018-05-04 20:21:09 +0000";
layers = (
{
layerId = "85099F7B-7F46-42FC-B840-CDE30C82BCDD";
paths = (
{
closed = 1;
nodes = (
"423 295 OFFCURVE",
"351 369 OFFCURVE",
"255 369 CURVE SMOOTH",
"210 369 OFFCURVE",
"169 355 OFFCURVE",
"139 330 CURVE",
"140 365 OFFCURVE",
"142 379 OFFCURVE",
"152 414 CURVE SMOOTH",
"167 465 OFFCURVE",
"201 502 OFFCURVE",
"273 502 CURVE SMOOTH",
"338 502 OFFCURVE",
"358 473 OFFCURVE",
"387 446 CURVE",
"387 511 LINE",
"364 532 OFFCURVE",
"340 556 OFFCURVE",
"272 556 CURVE SMOOTH",
"160 556 OFFCURVE",
"111 480 OFFCURVE",
"94 410 CURVE SMOOTH",
"76 336 OFFCURVE",
"75 297 OFFCURVE",
"75 223 CURVE SMOOTH",
"75 65 OFFCURVE",
"148 0 OFFCURVE",
"255 0 CURVE SMOOTH",
"365 0 OFFCURVE",
"423 80 OFFCURVE",
"423 188 CURVE SMOOTH"
);
},
{
closed = 1;
nodes = (
"366 106 OFFCURVE",
"329 54 OFFCURVE",
"255 54 CURVE SMOOTH",
"184 54 OFFCURVE",
"132 106 OFFCURVE",
"132 187 CURVE SMOOTH",
"132 268 OFFCURVE",
"165 315 OFFCURVE",
"255 315 CURVE SMOOTH",
"325 315 OFFCURVE",
"366 268 OFFCURVE",
"366 187 CURVE SMOOTH"
);
}
);
width = 500;
}
);
unicode = 0036;
},
{
glyphname = seven;
lastChange = "2018-05-03 17:31:34 +0000";
layers = (
{
layerId = "85099F7B-7F46-42FC-B840-CDE30C82BCDD";
paths = (
{
closed = 1;
nodes = (
"423 545 LINE",
"120 545 LINE",
"77 491 LINE",
"423 491 LINE"
);
},
{
closed = 1;
nodes = (
"197 0 LINE",
"423 491 LINE",
"367 491 LINE",
"141 0 LINE"
);
}
);
width = 500;
}
);
unicode = 0037;
},
{
glyphname = eight;
lastChange = "2018-05-09 09:11:20 +0000";
layers = (
{
layerId = "85099F7B-7F46-42FC-B840-CDE30C82BCDD";
paths = (
{
closed = 1;
nodes = (
"87 68 OFFCURVE",
"152 -1 OFFCURVE",
"252 -1 CURVE SMOOTH",
"352 -1 OFFCURVE",
"417 68 OFFCURVE",
"417 160 CURVE SMOOTH",
"417 230 OFFCURVE",
"382 270 OFFCURVE",
"336 295 CURVE",
"336 296 LINE",
"336 297 LINE",
"372 321 OFFCURVE",
"398 361 OFFCURVE",
"398 410 CURVE SMOOTH",
"398 480 OFFCURVE",
"340 550 OFFCURVE",
"252 550 CURVE SMOOTH",
"164 550 OFFCURVE",
"106 480 OFFCURVE",
"106 410 CURVE SMOOTH",
"106 361 OFFCURVE",
"132 321 OFFCURVE",
"168 297 CURVE",
"168 296 LINE",
"168 295 LINE",
"122 270 OFFCURVE",
"87 230 OFFCURVE",
"87 160 CURVE SMOOTH"
);
},
{
closed = 1;
nodes = (
"144 238 OFFCURVE",
"192 271 OFFCURVE",
"252 271 CURVE SMOOTH",
"312 271 OFFCURVE",
"360 238 OFFCURVE",
"360 159 CURVE SMOOTH",
"360 94 OFFCURVE",
"316 53 OFFCURVE",
"252 53 CURVE SMOOTH",
"188 53 OFFCURVE",
"144 94 OFFCURVE",
"144 159 CURVE SMOOTH"
);
},
{
closed = 1;
nodes = (
"159 459 OFFCURVE",
"197 502 OFFCURVE",
"252 502 CURVE SMOOTH",
"307 502 OFFCURVE",
"345 459 OFFCURVE",
"345 414 CURVE SMOOTH",
"345 357 OFFCURVE",
"303 314 OFFCURVE",
"252 314 CURVE SMOOTH",
"201 314 OFFCURVE",
"159 357 OFFCURVE",
"159 414 CURVE SMOOTH"
);
}
);
width = 500;
}
);
unicode = 0038;
},
{
glyphname = nine;
lastChange = "2018-05-04 20:19:50 +0000";
layers = (
{
layerId = "85099F7B-7F46-42FC-B840-CDE30C82BCDD";
paths = (
{
closed = 1;
nodes = (
"75 261 OFFCURVE",
"147 187 OFFCURVE",
"243 187 CURVE SMOOTH",
"288 187 OFFCURVE",
"329 201 OFFCURVE",
"359 226 CURVE",
"358 191 OFFCURVE",
"356 177 OFFCURVE",
"346 142 CURVE SMOOTH",
"331 91 OFFCURVE",
"297 54 OFFCURVE",
"225 54 CURVE SMOOTH",
"160 54 OFFCURVE",
"140 83 OFFCURVE",
"111 110 CURVE",
"111 45 LINE",
"134 24 OFFCURVE",
"158 0 OFFCURVE",
"226 0 CURVE SMOOTH",
"338 0 OFFCURVE",
"387 76 OFFCURVE",
"404 146 CURVE SMOOTH",
"422 220 OFFCURVE",
"423 259 OFFCURVE",
"423 333 CURVE SMOOTH",
"423 491 OFFCURVE",
"350 556 OFFCURVE",
"243 556 CURVE SMOOTH",
"133 556 OFFCURVE",
"75 476 OFFCURVE",
"75 368 CURVE SMOOTH"
);
},
{
closed = 1;
nodes = (
"132 450 OFFCURVE",
"169 502 OFFCURVE",
"243 502 CURVE SMOOTH",
"314 502 OFFCURVE",
"366 450 OFFCURVE",
"366 369 CURVE SMOOTH",
"366 288 OFFCURVE",
"333 241 OFFCURVE",
"243 241 CURVE SMOOTH",
"173 241 OFFCURVE",
"132 288 OFFCURVE",
"132 369 CURVE SMOOTH"
);
}
);
width = 500;
}
);
unicode = 0039;
},
{
glyphname = fraction;
lastChange = "2018-05-09 09:46:20 +0000";
layers = (
{
layerId = "85099F7B-7F46-42FC-B840-CDE30C82BCDD";
paths = (
{
closed = 1;
nodes = (
"40 -153 LINE",
"97 -153 LINE",
"460 550 LINE",
"404 550 LINE"
);
}
);
width = 500;
}
);
unicode = 2044;
},
{
glyphname = period;
lastChange = "2018-05-02 08:53:32 +0000";
layers = (
{
layerId = "85099F7B-7F46-42FC-B840-CDE30C82BCDD";
paths = (
{
closed = 1;
nodes = (
"200 22 OFFCURVE",
"222 0 OFFCURVE",
"250 0 CURVE SMOOTH",
"278 0 OFFCURVE",
"300 22 OFFCURVE",
"300 50 CURVE SMOOTH",
"300 78 OFFCURVE",
"278 100 OFFCURVE",
"250 100 CURVE SMOOTH",
"222 100 OFFCURVE",
"200 78 OFFCURVE",
"200 50 CURVE SMOOTH"
);
}
);
width = 500;
}
);
unicode = 002E;
},
{
glyphname = comma;
lastChange = "2017-12-07 11:36:20 +0000";
layers = (
{
layerId = "85099F7B-7F46-42FC-B840-CDE30C82BCDD";
paths = (
{
closed = 1;
nodes = (
"248 -47 OFFCURVE",
"300 -11 OFFCURVE",
"300 50 CURVE",
"300 82 OFFCURVE",
"264 78 OFFCURVE",
"264 48 CURVE SMOOTH",
"264 18 OFFCURVE",
"218 -40 OFFCURVE",
"197 -65 CURVE",
"203 -80 LINE"
);
},
{
closed = 1;
nodes = (
"278 0 OFFCURVE",
"300 22 OFFCURVE",
"300 50 CURVE SMOOTH",
"300 78 OFFCURVE",
"278 100 OFFCURVE",
"250 100 CURVE SMOOTH",
"222 100 OFFCURVE",
"200 78 OFFCURVE",
"200 50 CURVE SMOOTH",
"200 22 OFFCURVE",
"222 0 OFFCURVE",
"250 0 CURVE SMOOTH"
);
}
);
width = 500;
}
);
unicode = 002C;
},
{
glyphname = colon;
lastChange = "2017-12-07 11:36:20 +0000";
layers = (
{
layerId = "85099F7B-7F46-42FC-B840-CDE30C82BCDD";
paths = (
{
closed = 1;
nodes = (
"278 0 OFFCURVE",
"300 22 OFFCURVE",
"300 50 CURVE SMOOTH",
"300 78 OFFCURVE",
"278 100 OFFCURVE",
"250 100 CURVE SMOOTH",
"222 100 OFFCURVE",
"200 78 OFFCURVE",
"200 50 CURVE SMOOTH",
"200 22 OFFCURVE",
"222 0 OFFCURVE",
"250 0 CURVE SMOOTH"
);
},
{
closed = 1;
nodes = (
"278 286 OFFCURVE",
"300 308 OFFCURVE",
"300 336 CURVE SMOOTH",
"300 364 OFFCURVE",
"278 386 OFFCURVE",
"250 386 CURVE SMOOTH",
"222 386 OFFCURVE",
"200 364 OFFCURVE",
"200 336 CURVE SMOOTH",
"200 308 OFFCURVE",
"222 286 OFFCURVE",
"250 286 CURVE SMOOTH"
);
}
);
width = 500;
}
);
unicode = 003A;
},
{
glyphname = semicolon;
lastChange = "2017-12-07 11:36:20 +0000";
layers = (
{
layerId = "85099F7B-7F46-42FC-B840-CDE30C82BCDD";
paths = (
{
closed = 1;
nodes = (
"248 -47 OFFCURVE",
"300 -11 OFFCURVE",
"300 50 CURVE",
"300 82 OFFCURVE",
"264 78 OFFCURVE",
"264 48 CURVE SMOOTH",
"264 18 OFFCURVE",
"218 -40 OFFCURVE",
"197 -65 CURVE",
"203 -80 LINE"
);
},
{
closed = 1;
nodes = (
"278 0 OFFCURVE",
"300 22 OFFCURVE",
"300 50 CURVE SMOOTH",
"300 78 OFFCURVE",
"278 100 OFFCURVE",
"250 100 CURVE SMOOTH",
"222 100 OFFCURVE",
"200 78 OFFCURVE",
"200 50 CURVE SMOOTH",
"200 22 OFFCURVE",
"222 0 OFFCURVE",
"250 0 CURVE SMOOTH"
);
},
{
closed = 1;
nodes = (
"278 286 OFFCURVE",
"300 308 OFFCURVE",
"300 336 CURVE SMOOTH",
"300 364 OFFCURVE",
"278 386 OFFCURVE",
"250 386 CURVE SMOOTH",
"222 386 OFFCURVE",
"200 364 OFFCURVE",
"200 336 CURVE SMOOTH",
"200 308 OFFCURVE",
"222 286 OFFCURVE",
"250 286 CURVE SMOOTH"
);
}
);
width = 500;
}
);
unicode = 003B;
},
{
glyphname = ellipsis;
lastChange = "2017-12-07 11:36:20 +0000";
layers = (
{
layerId = "85099F7B-7F46-42FC-B840-CDE30C82BCDD";
paths = (
{
closed = 1;
nodes = (
"118 0 OFFCURVE",
"140 22 OFFCURVE",
"140 50 CURVE SMOOTH",
"140 78 OFFCURVE",
"118 100 OFFCURVE",
"90 100 CURVE SMOOTH",
"62 100 OFFCURVE",
"40 78 OFFCURVE",
"40 50 CURVE SMOOTH",
"40 22 OFFCURVE",
"62 0 OFFCURVE",
"90 0 CURVE SMOOTH"
);
},
{
closed = 1;
nodes = (
"278 0 OFFCURVE",
"300 22 OFFCURVE",
"300 50 CURVE SMOOTH",
"300 78 OFFCURVE",
"278 100 OFFCURVE",
"250 100 CURVE SMOOTH",
"222 100 OFFCURVE",
"200 78 OFFCURVE",
"200 50 CURVE SMOOTH",
"200 22 OFFCURVE",
"222 0 OFFCURVE",
"250 0 CURVE SMOOTH"
);
},
{
closed = 1;
nodes = (
"438 -2 OFFCURVE",
"460 20 OFFCURVE",
"460 48 CURVE SMOOTH",
"460 76 OFFCURVE",
"438 98 OFFCURVE",
"410 98 CURVE SMOOTH",
"382 98 OFFCURVE",
"360 76 OFFCURVE",
"360 48 CURVE SMOOTH",
"360 20 OFFCURVE",
"382 -2 OFFCURVE",
"410 -2 CURVE SMOOTH"
);
}
);
width = 500;
}
);
unicode = 2026;
},
{
glyphname = exclam;
lastChange = "2017-12-07 11:36:20 +0000";
layers = (
{
layerId = "85099F7B-7F46-42FC-B840-CDE30C82BCDD";
paths = (
{
closed = 1;
nodes = (
"278 0 OFFCURVE",
"300 22 OFFCURVE",
"300 50 CURVE SMOOTH",
"300 78 OFFCURVE",
"278 100 OFFCURVE",
"250 100 CURVE SMOOTH",
"222 100 OFFCURVE",
"200 78 OFFCURVE",
"200 50 CURVE SMOOTH",
"200 22 OFFCURVE",
"222 0 OFFCURVE",
"250 0 CURVE SMOOTH"
);
},
{
closed = 1;
nodes = (
"220 239 LINE",
"230 132 LINE",
"270 132 LINE",
"280 239 LINE",
"280 545 LINE",
"220 545 LINE"
);
}
);
width = 500;
}
);
unicode = 0021;
},
{
glyphname = exclamdown;
lastChange = "2017-12-07 11:36:20 +0000";
layers = (
{
layerId = "85099F7B-7F46-42FC-B840-CDE30C82BCDD";
paths = (
{
closed = 1;
nodes = (
"222 545 OFFCURVE",
"200 523 OFFCURVE",
"200 495 CURVE SMOOTH",
"200 467 OFFCURVE",
"222 445 OFFCURVE",
"250 445 CURVE SMOOTH",
"278 445 OFFCURVE",
"300 467 OFFCURVE",
"300 495 CURVE SMOOTH",
"300 523 OFFCURVE",
"278 545 OFFCURVE",
"250 545 CURVE SMOOTH"
);
},
{
closed = 1;
nodes = (
"280 306 LINE",
"270 413 LINE",
"230 413 LINE",
"220 306 LINE",
"220 0 LINE",
"280 0 LINE"
);
}
);
width = 500;
}
);
unicode = 00A1;
},
{
glyphname = question;
lastChange = "2017-12-07 11:36:20 +0000";
layers = (
{
layerId = "85099F7B-7F46-42FC-B840-CDE30C82BCDD";
paths = (
{
closed = 1;
nodes = (
"201 549 OFFCURVE",
"156 534 OFFCURVE",
"126 492 CURVE",
"126 418 LINE",
"159 487 OFFCURVE",
"217 495 OFFCURVE",
"249 495 CURVE",
"310 495 OFFCURVE",
"319 447 OFFCURVE",
"319 426 CURVE",
"319 327 OFFCURVE",
"198 329 OFFCURVE",
"198 239 CURVE",
"198 162 LINE",
"254 162 LINE",
"254 239 LINE",
"254 299 OFFCURVE",
"374 313 OFFCURVE",
"374 426 CURVE",
"374 485 OFFCURVE",
"334 549 OFFCURVE",
"249 549 CURVE"
);
},
{
closed = 1;
nodes = (
"197 100 OFFCURVE",
"175 78 OFFCURVE",
"175 50 CURVE",
"175 22 OFFCURVE",
"197 0 OFFCURVE",
"225 0 CURVE",
"253 0 OFFCURVE",
"275 22 OFFCURVE",
"275 50 CURVE",
"275 78 OFFCURVE",
"253 100 OFFCURVE",
"225 100 CURVE"
);
}
);
width = 500;
}
);
unicode = 003F;
},
{
glyphname = questiondown;
lastChange = "2017-12-07 11:36:20 +0000";
layers = (
{
layerId = "85099F7B-7F46-42FC-B840-CDE30C82BCDD";
paths = (
{
closed = 1;
nodes = (
"299 0 OFFCURVE",
"344 15 OFFCURVE",
"374 57 CURVE",
"374 131 LINE",
"341 62 OFFCURVE",
"283 54 OFFCURVE",
"251 54 CURVE",
"190 54 OFFCURVE",
"181 102 OFFCURVE",
"181 123 CURVE",
"181 222 OFFCURVE",
"302 220 OFFCURVE",
"302 310 CURVE",
"302 387 LINE",
"246 387 LINE",
"246 310 LINE",
"246 250 OFFCURVE",
"126 236 OFFCURVE",
"126 123 CURVE",
"126 64 OFFCURVE",
"166 0 OFFCURVE",
"251 0 CURVE"
);
},
{
closed = 1;
nodes = (
"303 449 OFFCURVE",
"325 471 OFFCURVE",
"325 499 CURVE",
"325 527 OFFCURVE",
"303 549 OFFCURVE",
"275 549 CURVE",
"247 549 OFFCURVE",
"225 527 OFFCURVE",
"225 499 CURVE",
"225 471 OFFCURVE",
"247 449 OFFCURVE",
"275 449 CURVE"
);
}
);
width = 500;
}
);
unicode = 00BF;
},
{
glyphname = periodcentered;
lastChange = "2017-12-07 11:36:20 +0000";
layers = (
{
layerId = "85099F7B-7F46-42FC-B840-CDE30C82BCDD";
paths = (
{
closed = 1;
nodes = (
"278 193 OFFCURVE",
"300 215 OFFCURVE",
"300 243 CURVE SMOOTH",
"300 271 OFFCURVE",
"278 293 OFFCURVE",
"250 293 CURVE SMOOTH",
"222 293 OFFCURVE",
"200 271 OFFCURVE",
"200 243 CURVE SMOOTH",
"200 215 OFFCURVE",
"222 193 OFFCURVE",
"250 193 CURVE SMOOTH"
);
}
);
width = 500;
}
);
unicode = 00B7;
},
{
glyphname = bullet;
lastChange = "2017-12-07 11:36:20 +0000";
layers = (
{
layerId = "85099F7B-7F46-42FC-B840-CDE30C82BCDD";
paths = (
{
closed = 1;
nodes = (
"306 143 OFFCURVE",
"350 187 OFFCURVE",
"350 243 CURVE SMOOTH",
"350 299 OFFCURVE",
"306 343 OFFCURVE",
"250 343 CURVE SMOOTH",
"194 343 OFFCURVE",
"150 299 OFFCURVE",
"150 243 CURVE SMOOTH",
"150 187 OFFCURVE",
"194 143 OFFCURVE",
"250 143 CURVE SMOOTH"
);
}
);
width = 500;
}
);
unicode = 2022;
},
{
glyphname = asterisk;
lastChange = "2017-12-07 11:36:20 +0000";
layers = (
{
layerId = "85099F7B-7F46-42FC-B840-CDE30C82BCDD";
paths = (
{
closed = 1;
nodes = (
"221 549 LINE",
"221 484 LINE",
"226 477 LINE",
"226 321 LINE",
"221 314 LINE",
"221 249 LINE",
"277 249 LINE",
"277 314 LINE",
"272 321 LINE",
"272 477 LINE",
"277 484 LINE",
"277 549 LINE"
);
},
{
closed = 1;
nodes = (
"335 525 LINE",
"289 479 LINE",
"288 470 LINE",
"178 360 LINE",
"169 359 LINE",
"123 313 LINE",
"163 273 LINE",
"209 319 LINE",
"210 328 LINE",
"320 438 LINE",
"329 439 LINE",
"375 485 LINE"
);
},
{
closed = 1;
nodes = (
"335 525 LINE",
"289 479 LINE",
"288 470 LINE",
"178 360 LINE",
"169 359 LINE",
"123 313 LINE",
"163 273 LINE",
"209 319 LINE",
"210 328 LINE",
"320 438 LINE",
"329 439 LINE",
"375 485 LINE"
);
},
{
closed = 1;
nodes = (
"399 427 LINE",
"334 427 LINE",
"327 422 LINE",
"171 422 LINE",
"164 427 LINE",
"99 427 LINE",
"99 371 LINE",
"164 371 LINE",
"171 376 LINE",
"327 376 LINE",
"334 371 LINE",
"399 371 LINE"
);
},
{
closed = 1;
nodes = (
"399 427 LINE",
"334 427 LINE",
"327 422 LINE",
"171 422 LINE",
"164 427 LINE",
"99 427 LINE",
"99 371 LINE",
"164 371 LINE",
"171 376 LINE",
"327 376 LINE",
"334 371 LINE",
"399 371 LINE"
);
},
{
closed = 1;
nodes = (
"375 313 LINE",
"329 359 LINE",
"320 360 LINE",
"210 470 LINE",
"209 479 LINE",
"163 525 LINE",
"123 485 LINE",
"169 439 LINE",
"178 438 LINE",
"288 328 LINE",
"289 319 LINE",
"335 273 LINE"
);
}
);
width = 500;
}
);
unicode = 002A;
},
{
glyphname = numbersign;
lastChange = "2017-12-07 11:36:20 +0000";
layers = (
{
layerId = "85099F7B-7F46-42FC-B840-CDE30C82BCDD";
paths = (
{
closed = 1;
nodes = (
"64 0 LINE",
"121 0 LINE",
"285 550 LINE",
"229 550 LINE"
);
},
{
closed = 1;
nodes = (
"209 0 LINE",
"266 0 LINE",
"430 550 LINE",
"374 550 LINE"
);
},
{
closed = 1;
nodes = (
"58 328 LINE",
"416 328 LINE",
"456 384 LINE",
"98 384 LINE"
);
},
{
closed = 1;
nodes = (
"22 165 LINE",
"380 165 LINE",
"420 221 LINE",
"62 221 LINE"
);
}
);
width = 500;
}
);
unicode = 0023;
},
{
glyphname = slash;
lastChange = "2017-12-07 11:36:20 +0000";
layers = (
{
layerId = "85099F7B-7F46-42FC-B840-CDE30C82BCDD";
paths = (
{
closed = 1;
nodes = (
"40 -153 LINE",
"97 -153 LINE",
"460 550 LINE",
"404 550 LINE"
);
}
);
width = 500;
}
);
unicode = 002F;
},
{
glyphname = backslash;
lastChange = "2017-12-07 11:36:20 +0000";
layers = (
{
layerId = "85099F7B-7F46-42FC-B840-CDE30C82BCDD";
paths = (
{
closed = 1;
nodes = (
"40 550 LINE",
"403 -153 LINE",
"460 -153 LINE",
"96 550 LINE"
);
}
);
width = 500;
}
);
unicode = 005C;
},
{
glyphname = parenleft;
lastChange = "2017-12-07 11:36:20 +0000";
layers = (
{
layerId = "85099F7B-7F46-42FC-B840-CDE30C82BCDD";
paths = (
{
closed = 1;
nodes = (
"286 545 LINE",
"102 312 OFFCURVE",
"102 80 OFFCURVE",
"286 -153 CURVE",
"342 -153 LINE",
"158 80 OFFCURVE",
"158 312 OFFCURVE",
"342 545 CURVE"
);
}
);
width = 500;
}
);
unicode = 0028;
},
{
glyphname = parenright;
lastChange = "2017-12-07 11:36:20 +0000";
layers = (
{
layerId = "85099F7B-7F46-42FC-B840-CDE30C82BCDD";
paths = (
{
closed = 1;
nodes = (
"332 312 OFFCURVE",
"332 80 OFFCURVE",
"148 -153 CURVE",
"204 -153 LINE",
"388 80 OFFCURVE",
"388 312 OFFCURVE",
"204 545 CURVE",
"148 545 LINE"
);
}
);
width = 500;
}
);
unicode = 0029;
},
{
glyphname = braceleft;
lastChange = "2017-12-07 11:36:20 +0000";
layers = (
{
layerId = "85099F7B-7F46-42FC-B840-CDE30C82BCDD";
paths = (
{
closed = 1;
nodes = (
"107 161 LINE",
"222 161 OFFCURVE",
"222 114 OFFCURVE",
"222 -16 CURVE",
"278 -16 LINE",
"278 114 OFFCURVE",
"278 214 OFFCURVE",
"107 214 CURVE"
);
},
{
closed = 1;
nodes = (
"393 -108 LINE",
"267 -108 OFFCURVE",
"278 -108 OFFCURVE",
"278 -16 CURVE",
"222 -16 LINE",
"227 -161 OFFCURVE",
"227 -161 OFFCURVE",
"393 -161 CURVE"
);
},
{
closed = 1;
nodes = (
"278 161 OFFCURVE",
"278 261 OFFCURVE",
"278 391 CURVE",
"222 391 LINE",
"222 261 OFFCURVE",
"222 214 OFFCURVE",
"107 214 CURVE",
"107 161 LINE"
);
},
{
closed = 1;
nodes = (
"227 536 OFFCURVE",
"227 536 OFFCURVE",
"222 391 CURVE",
"278 391 LINE",
"278 483 OFFCURVE",
"267 483 OFFCURVE",
"393 483 CURVE",
"393 536 LINE"
);
}
);
width = 500;
}
);
unicode = 007B;
},
{
glyphname = braceright;
lastChange = "2017-12-07 11:36:20 +0000";
layers = (
{
layerId = "85099F7B-7F46-42FC-B840-CDE30C82BCDD";
paths = (
{
closed = 1;
nodes = (
"222 222 OFFCURVE",
"222 88 OFFCURVE",
"222 -42 CURVE",
"278 -42 LINE",
"278 88 OFFCURVE",
"278 169 OFFCURVE",
"393 169 CURVE",
"393 222 LINE"
);
},
{
closed = 1;
nodes = (
"273 -153 OFFCURVE",
"273 -153 OFFCURVE",
"278 -8 CURVE",
"222 -8 LINE",
"222 -100 OFFCURVE",
"233 -100 OFFCURVE",
"107 -100 CURVE",
"107 -153 LINE"
);
},
{
closed = 1;
nodes = (
"393 222 LINE",
"278 222 OFFCURVE",
"278 303 OFFCURVE",
"278 433 CURVE",
"222 433 LINE",
"222 303 OFFCURVE",
"222 169 OFFCURVE",
"393 169 CURVE"
);
},
{
closed = 1;
nodes = (
"107 491 LINE",
"233 491 OFFCURVE",
"222 491 OFFCURVE",
"222 399 CURVE",
"278 399 LINE",
"273 544 OFFCURVE",
"273 544 OFFCURVE",
"107 544 CURVE"
);
}
);
width = 500;
}
);
unicode = 007D;
},
{
glyphname = bracketleft;
lastChange = "2017-12-07 11:36:20 +0000";
layers = (
{
layerId = "85099F7B-7F46-42FC-B840-CDE30C82BCDD";
paths = (
{
closed = 1;
nodes = (
"156 -153 LINE",
"344 -153 LINE",
"344 -99 LINE",
"156 -99 LINE"
);
},
{
closed = 1;
nodes = (
"156 491 LINE",
"344 491 LINE",
"344 545 LINE",
"156 545 LINE"
);
},
{
closed = 1;
nodes = (
"156 545 LINE",
"156 -153 LINE",
"212 -153 LINE",
"212 545 LINE"
);
}
);
width = 500;
}
);
unicode = 005B;
},
{
glyphname = bracketright;
lastChange = "2017-12-07 11:36:20 +0000";
layers = (
{
layerId = "85099F7B-7F46-42FC-B840-CDE30C82BCDD";
paths = (
{
closed = 1;
nodes = (
"156 -99 LINE",
"156 -153 LINE",
"344 -153 LINE",
"344 -99 LINE"
);
},
{
closed = 1;
nodes = (
"156 545 LINE",
"156 491 LINE",
"344 491 LINE",
"344 545 LINE"
);
},
{
closed = 1;
nodes = (
"288 -153 LINE",
"344 -153 LINE",
"344 545 LINE",
"288 545 LINE"
);
}
);
width = 500;
}
);
unicode = 005D;
},
